<?xml version="1.0" encoding="UTF-8"?>
<svg xmlns="http://www.w3.org/2000/svg" xmlns:xlink="http://www.w3.org/1999/xlink" width="720pt" height="360pt" viewBox="0 0 720 360" version="1.1">
<g id="surface20">
<rect x="0" y="0" width="720" height="360" style="fill:rgb(100%,100%,100%);fill-opacity:1;stroke:none;"/>
<path style=" stroke:none;fill-rule:nonzero;fill:rgb(71.764706%,36.078431%,61.568627%);fill-opacity:1;" d="M 90.515625 222.601562 L 112.566406 222.601562 L 112.566406 200.554688 L 90.515625 200.554688 Z M 90.515625 222.601562 "/>
<path style=" stroke:none;fill-rule:nonzero;fill:rgb(71.764706%,36.078431%,61.568627%);fill-opacity:1;" d="M 128.835938 222.601562 L 150.882812 222.601562 L 150.882812 200.554688 L 128.835938 200.554688 Z M 128.835938 222.601562 "/>
<path style=" stroke:none;fill-rule:nonzero;fill:rgb(71.764706%,36.078431%,61.568627%);fill-opacity:1;" d="M 167.152344 222.601562 L 189.203125 222.601562 L 189.203125 200.554688 L 167.152344 200.554688 Z M 167.152344 222.601562 "/>
<path style=" stroke:none;fill-rule:nonzero;fill:rgb(71.764706%,36.078431%,61.568627%);fill-opacity:1;" d="M 205.472656 222.601562 L 227.519531 222.601562 L 227.519531 200.554688 L 205.472656 200.554688 Z M 205.472656 222.601562 "/>
<path style=" stroke:none;fill-rule:nonzero;fill:rgb(71.764706%,36.078431%,61.568627%);fill-opacity:1;" d="M 243.789062 222.601562 L 265.839844 222.601562 L 265.839844 200.554688 L 243.789062 200.554688 Z M 243.789062 222.601562 "/>
<path style=" stroke:none;fill-rule:nonzero;fill:rgb(0%,62.352941%,54.901961%);fill-opacity:1;" d="M 282.109375 222.601562 L 304.15625 222.601562 L 304.15625 200.554688 L 282.109375 200.554688 Z M 282.109375 222.601562 "/>
<path style=" stroke:none;fill-rule:nonzero;fill:rgb(0%,62.352941%,54.901961%);fill-opacity:1;" d="M 320.425781 222.601562 L 342.476562 222.601562 L 342.476562 200.554688 L 320.425781 200.554688 Z M 320.425781 222.601562 "/>
<path style=" stroke:none;fill-rule:nonzero;fill:rgb(0%,62.352941%,54.901961%);fill-opacity:1;" d="M 358.746094 222.601562 L 380.792969 222.601562 L 380.792969 200.554688 L 358.746094 200.554688 Z M 358.746094 222.601562 "/>
<path style=" stroke:none;fill-rule:nonzero;fill:rgb(0%,62.352941%,54.901961%);fill-opacity:1;" d="M 397.0625 222.601562 L 419.113281 222.601562 L 419.113281 200.554688 L 397.0625 200.554688 Z M 397.0625 222.601562 "/>
<path style=" stroke:none;fill-rule:nonzero;fill:rgb(0%,62.352941%,54.901961%);fill-opacity:1;" d="M 435.382812 222.601562 L 457.429688 222.601562 L 457.429688 200.554688 L 435.382812 200.554688 Z M 435.382812 222.601562 "/>
<path style=" stroke:none;fill-rule:nonzero;fill:rgb(0%,62.352941%,54.901961%);fill-opacity:1;" d="M 473.699219 222.601562 L 495.75 222.601562 L 495.75 200.554688 L 473.699219 200.554688 Z M 473.699219 222.601562 "/>
<path style=" stroke:none;fill-rule:nonzero;fill:rgb(0%,62.352941%,54.901961%);fill-opacity:1;" d="M 512.019531 222.601562 L 534.066406 222.601562 L 534.066406 200.554688 L 512.019531 200.554688 Z M 512.019531 222.601562 "/>
<path style=" stroke:none;fill-rule:nonzero;fill:rgb(0%,62.352941%,54.901961%);fill-opacity:1;" d="M 550.335938 222.601562 L 572.386719 222.601562 L 572.386719 200.554688 L 550.335938 200.554688 Z M 550.335938 222.601562 "/>
<path style=" stroke:none;fill-rule:nonzero;fill:rgb(0%,62.352941%,54.901961%);fill-opacity:1;" d="M 588.65625 222.601562 L 610.703125 222.601562 L 610.703125 200.554688 L 588.65625 200.554688 Z M 588.65625 222.601562 "/>
<path style=" stroke:none;fill-rule:nonzero;fill:rgb(0%,62.352941%,54.901961%);fill-opacity:1;" d="M 626.976562 222.601562 L 649.023438 222.601562 L 649.023438 200.554688 L 626.976562 200.554688 Z M 626.976562 222.601562 "/>
<path style=" stroke:none;fill-rule:nonzero;fill:rgb(0%,62.352941%,54.901961%);fill-opacity:1;" d="M 665.292969 222.601562 L 687.339844 222.601562 L 687.339844 200.554688 L 665.292969 200.554688 Z M 665.292969 222.601562 "/>
<path style=" stroke:none;fill-rule:nonzero;fill:rgb(71.764706%,36.078431%,61.568627%);fill-opacity:1;" d="M 90.515625 146.972656 L 112.566406 146.972656 L 112.566406 124.925781 L 90.515625 124.925781 Z M 90.515625 146.972656 "/>
<path style=" stroke:none;fill-rule:nonzero;fill:rgb(71.764706%,36.078431%,61.568627%);fill-opacity:1;" d="M 128.835938 146.972656 L 150.882812 146.972656 L 150.882812 124.925781 L 128.835938 124.925781 Z M 128.835938 146.972656 "/>
<path style=" stroke:none;fill-rule:nonzero;fill:rgb(71.764706%,36.078431%,61.568627%);fill-opacity:1;" d="M 167.152344 146.972656 L 189.203125 146.972656 L 189.203125 124.925781 L 167.152344 124.925781 Z M 167.152344 146.972656 "/>
<path style=" stroke:none;fill-rule:nonzero;fill:rgb(71.764706%,36.078431%,61.568627%);fill-opacity:1;" d="M 205.472656 146.972656 L 227.519531 146.972656 L 227.519531 124.925781 L 205.472656 124.925781 Z M 205.472656 146.972656 "/>
<path style=" stroke:none;fill-rule:nonzero;fill:rgb(71.764706%,36.078431%,61.568627%);fill-opacity:1;" d="M 243.789062 146.972656 L 265.839844 146.972656 L 265.839844 124.925781 L 243.789062 124.925781 Z M 243.789062 146.972656 "/>
<path style=" stroke:none;fill-rule:nonzero;fill:rgb(71.764706%,36.078431%,61.568627%);fill-opacity:1;" d="M 282.109375 146.972656 L 304.15625 146.972656 L 304.15625 124.925781 L 282.109375 124.925781 Z M 282.109375 146.972656 "/>
<path style=" stroke:none;fill-rule:nonzero;fill:rgb(71.764706%,36.078431%,61.568627%);fill-opacity:1;" d="M 320.425781 146.972656 L 342.476562 146.972656 L 342.476562 124.925781 L 320.425781 124.925781 Z M 320.425781 146.972656 "/>
<path style=" stroke:none;fill-rule:nonzero;fill:rgb(71.764706%,36.078431%,61.568627%);fill-opacity:1;" d="M 358.746094 146.972656 L 380.792969 146.972656 L 380.792969 124.925781 L 358.746094 124.925781 Z M 358.746094 146.972656 "/>
<path style=" stroke:none;fill-rule:nonzero;fill:rgb(71.764706%,36.078431%,61.568627%);fill-opacity:1;" d="M 397.0625 146.972656 L 419.113281 146.972656 L 419.113281 124.925781 L 397.0625 124.925781 Z M 397.0625 146.972656 "/>
<path style=" stroke:none;fill-rule:nonzero;fill:rgb(71.764706%,36.078431%,61.568627%);fill-opacity:1;" d="M 435.382812 146.972656 L 457.429688 146.972656 L 457.429688 124.925781 L 435.382812 124.925781 Z M 435.382812 146.972656 "/>
<path style=" stroke:none;fill-rule:nonzero;fill:rgb(0%,62.352941%,54.901961%);fill-opacity:1;" d="M 473.699219 146.972656 L 495.75 146.972656 L 495.75 124.925781 L 473.699219 124.925781 Z M 473.699219 146.972656 "/>
<path style=" stroke:none;fill-rule:nonzero;fill:rgb(0%,62.352941%,54.901961%);fill-opacity:1;" d="M 512.019531 146.972656 L 534.066406 146.972656 L 534.066406 124.925781 L 512.019531 124.925781 Z M 512.019531 146.972656 "/>
<path style=" stroke:none;fill-rule:nonzero;fill:rgb(0%,62.352941%,54.901961%);fill-opacity:1;" d="M 550.335938 146.972656 L 572.386719 146.972656 L 572.386719 124.925781 L 550.335938 124.925781 Z M 550.335938 146.972656 "/>
<path style=" stroke:none;fill-rule:nonzero;fill:rgb(0%,62.352941%,54.901961%);fill-opacity:1;" d="M 588.65625 146.972656 L 610.703125 146.972656 L 610.703125 124.925781 L 588.65625 124.925781 Z M 588.65625 146.972656 "/>
<path style=" stroke:none;fill-rule:nonzero;fill:rgb(0%,62.352941%,54.901961%);fill-opacity:1;" d="M 626.976562 146.972656 L 649.023438 146.972656 L 649.023438 124.925781 L 626.976562 124.925781 Z M 626.976562 146.972656 "/>
<path style=" stroke:none;fill-rule:nonzero;fill:rgb(0%,62.352941%,54.901961%);fill-opacity:1;" d="M 665.292969 146.972656 L 687.339844 146.972656 L 687.339844 124.925781 L 665.292969 124.925781 Z M 665.292969 146.972656 "/>
<path style=" stroke:none;fill-rule:nonzero;fill:rgb(71.764706%,36.078431%,61.568627%);fill-opacity:1;" d="M 90.515625 71.34375 L 112.566406 71.34375 L 112.566406 49.296875 L 90.515625 49.296875 Z M 90.515625 71.34375 "/>
<path style=" stroke:none;fill-rule:nonzero;fill:rgb(71.764706%,36.078431%,61.568627%);fill-opacity:1;" d="M 128.835938 71.34375 L 150.882812 71.34375 L 150.882812 49.296875 L 128.835938 49.296875 Z M 128.835938 71.34375 "/>
<path style=" stroke:none;fill-rule:nonzero;fill:rgb(71.764706%,36.078431%,61.568627%);fill-opacity:1;" d="M 167.152344 71.34375 L 189.203125 71.34375 L 189.203125 49.296875 L 167.152344 49.296875 Z M 167.152344 71.34375 "/>
<path style=" stroke:none;fill-rule:nonzero;fill:rgb(71.764706%,36.078431%,61.568627%);fill-opacity:1;" d="M 205.472656 71.34375 L 227.519531 71.34375 L 227.519531 49.296875 L 205.472656 49.296875 Z M 205.472656 71.34375 "/>
<path style=" stroke:none;fill-rule:nonzero;fill:rgb(71.764706%,36.078431%,61.568627%);fill-opacity:1;" d="M 243.789062 71.34375 L 265.839844 71.34375 L 265.839844 49.296875 L 243.789062 49.296875 Z M 243.789062 71.34375 "/>
<path style=" stroke:none;fill-rule:nonzero;fill:rgb(71.764706%,36.078431%,61.568627%);fill-opacity:1;" d="M 282.109375 71.34375 L 304.15625 71.34375 L 304.15625 49.296875 L 282.109375 49.296875 Z M 282.109375 71.34375 "/>
<path style=" stroke:none;fill-rule:nonzero;fill:rgb(71.764706%,36.078431%,61.568627%);fill-opacity:1;" d="M 320.425781 71.34375 L 342.476562 71.34375 L 342.476562 49.296875 L 320.425781 49.296875 Z M 320.425781 71.34375 "/>
<path style=" stroke:none;fill-rule:nonzero;fill:rgb(71.764706%,36.078431%,61.568627%);fill-opacity:1;" d="M 358.746094 71.34375 L 380.792969 71.34375 L 380.792969 49.296875 L 358.746094 49.296875 Z M 358.746094 71.34375 "/>
<path style=" stroke:none;fill-rule:nonzero;fill:rgb(71.764706%,36.078431%,61.568627%);fill-opacity:1;" d="M 397.0625 71.34375 L 419.113281 71.34375 L 419.113281 49.296875 L 397.0625 49.296875 Z M 397.0625 71.34375 "/>
<path style=" stroke:none;fill-rule:nonzero;fill:rgb(71.764706%,36.078431%,61.568627%);fill-opacity:1;" d="M 435.382812 71.34375 L 457.429688 71.34375 L 457.429688 49.296875 L 435.382812 49.296875 Z M 435.382812 71.34375 "/>
<path style=" stroke:none;fill-rule:nonzero;fill:rgb(71.764706%,36.078431%,61.568627%);fill-opacity:1;" d="M 473.699219 71.34375 L 495.75 71.34375 L 495.75 49.296875 L 473.699219 49.296875 Z M 473.699219 71.34375 "/>
<path style=" stroke:none;fill-rule:nonzero;fill:rgb(71.764706%,36.078431%,61.568627%);fill-opacity:1;" d="M 512.019531 71.34375 L 534.066406 71.34375 L 534.066406 49.296875 L 512.019531 49.296875 Z M 512.019531 71.34375 "/>
<path style=" stroke:none;fill-rule:nonzero;fill:rgb(71.764706%,36.078431%,61.568627%);fill-opacity:1;" d="M 550.335938 71.34375 L 572.386719 71.34375 L 572.386719 49.296875 L 550.335938 49.296875 Z M 550.335938 71.34375 "/>
<path style=" stroke:none;fill-rule:nonzero;fill:rgb(71.764706%,36.078431%,61.568627%);fill-opacity:1;" d="M 588.65625 71.34375 L 610.703125 71.34375 L 610.703125 49.296875 L 588.65625 49.296875 Z M 588.65625 71.34375 "/>
<path style=" stroke:none;fill-rule:nonzero;fill:rgb(71.764706%,36.078431%,61.568627%);fill-opacity:1;" d="M 626.976562 71.34375 L 649.023438 71.34375 L 649.023438 49.296875 L 626.976562 49.296875 Z M 626.976562 71.34375 "/>
<path style=" stroke:none;fill-rule:nonzero;fill:rgb(71.764706%,36.078431%,61.568627%);fill-opacity:1;" d="M 665.292969 71.34375 L 687.339844 71.34375 L 687.339844 49.296875 L 665.292969 49.296875 Z M 665.292969 71.34375 "/>
<path style=" stroke:none;fill-rule:nonzero;fill:rgb(30.196078%,30.196078%,30.196078%);fill-opacity:1;" d="M 48.144531 220.386719 L 57.792969 220.386719 L 57.792969 218.5625 L 54.265625 218.5625 L 54.265625 202.769531 L 52.582031 202.769531 L 52.289062 202.9375 L 51.984375 203.097656 L 51.667969 203.246094 L 51.335938 203.382812 L 50.984375 203.515625 L 50.617188 203.636719 L 50.230469 203.75 L 49.820312 203.855469 L 49.390625 203.953125 L 48.9375 204.042969 L 48.9375 205.433594 L 52.054688 205.433594 L 52.054688 218.5625 L 48.144531 218.5625 Z M 48.144531 220.386719 "/>
<path style=" stroke:none;fill-rule:nonzero;fill:rgb(30.196078%,30.196078%,30.196078%);fill-opacity:1;" d="M 47.089844 144.757812 L 58.152344 144.757812 L 58.152344 142.863281 L 53.007812 142.863281 L 52.726562 142.871094 L 52.4375 142.882812 L 52.144531 142.902344 L 51.847656 142.917969 L 51.550781 142.941406 L 51.257812 142.960938 L 50.964844 142.984375 L 50.679688 143.007812 L 50.398438 143.03125 L 51.597656 141.867188 L 52.703125 140.722656 L 53.707031 139.59375 L 54.609375 138.480469 L 55.390625 137.382812 L 56.050781 136.292969 L 56.582031 135.21875 L 56.96875 134.152344 L 57.207031 133.089844 L 57.289062 132.039062 L 57.230469 131.128906 L 57.058594 130.289062 L 56.777344 129.527344 L 56.394531 128.847656 L 55.910156 128.253906 L 55.332031 127.757812 L 54.667969 127.359375 L 53.914062 127.070312 L 53.082031 126.890625 L 52.175781 126.828125 L 51.527344 126.859375 L 50.917969 126.949219 L 50.34375 127.09375 L 49.800781 127.292969 L 49.285156 127.542969 L 48.796875 127.835938 L 48.324219 128.175781 L 47.871094 128.554688 L 47.425781 128.96875 L 46.992188 129.421875 L 48.265625 130.671875 L 48.558594 130.332031 L 48.875 130.015625 L 49.203125 129.722656 L 49.546875 129.453125 L 49.90625 129.21875 L 50.28125 129.015625 L 50.671875 128.851562 L 51.070312 128.730469 L 51.484375 128.65625 L 51.910156 128.628906 L 52.535156 128.671875 L 53.085938 128.796875 L 53.574219 129 L 53.996094 129.273438 L 54.351562 129.613281 L 54.640625 130.015625 L 54.863281 130.46875 L 55.023438 130.972656 L 55.121094 131.523438 L 55.152344 132.109375 L 55.074219 133.03125 L 54.84375 133.988281 L 54.453125 134.984375 L 53.902344 136.023438 L 53.191406 137.109375 L 52.3125 138.253906 L 51.265625 139.453125 L 50.046875 140.71875 L 48.65625 142.054688 L 47.089844 143.460938 Z M 47.089844 144.757812 "/>
<path style=" stroke:none;fill-rule:nonzero;fill:rgb(30.196078%,30.196078%,30.196078%);fill-opacity:1;" d="M 52.367188 69.441406 L 53.285156 69.386719 L 54.152344 69.222656 L 54.960938 68.953125 L 55.699219 68.582031 L 56.359375 68.113281 L 56.921875 67.550781 L 57.378906 66.894531 L 57.722656 66.152344 L 57.933594 65.328125 L 58.007812 64.425781 L 57.960938 63.730469 L 57.820312 63.085938 L 57.59375 62.492188 L 57.292969 61.957031 L 56.921875 61.472656 L 56.488281 61.046875 L 56 60.683594 L 55.46875 60.378906 L 54.894531 60.136719 L 54.289062 59.960938 L 54.289062 59.867188 L 54.824219 59.636719 L 55.320312 59.359375 L 55.777344 59.042969 L 56.183594 58.683594 L 56.539062 58.28125 L 56.84375 57.835938 L 57.082031 57.34375 L 57.261719 56.8125 L 57.371094 56.238281 L 57.40625 55.617188 L 57.34375 54.816406 L 57.160156 54.089844 L 56.863281 53.4375 L 56.457031 52.859375 L 55.957031 52.367188 L 55.371094 51.953125 L 54.703125 51.628906 L 53.960938 51.394531 L 53.15625 51.25 L 52.296875 51.203125 L 51.699219 51.226562 L 51.128906 51.304688 L 50.582031 51.425781 L 50.0625 51.59375 L 49.566406 51.796875 L 49.089844 52.042969 L 48.636719 52.316406 L 48.199219 52.625 L 47.78125 52.957031 L 47.375 53.3125 L 48.550781 54.707031 L 48.855469 54.414062 L 49.171875 54.140625 L 49.507812 53.894531 L 49.851562 53.671875 L 50.214844 53.476562 L 50.585938 53.3125 L 50.972656 53.179688 L 51.371094 53.082031 L 51.78125 53.023438 L 52.199219 53 L 52.726562 53.035156 L 53.210938 53.128906 L 53.648438 53.285156 L 54.035156 53.496094 L 54.371094 53.761719 L 54.652344 54.078125 L 54.878906 54.441406 L 55.042969 54.851562 L 55.140625 55.300781 L 55.175781 55.785156 L 55.136719 56.339844 L 55.015625 56.863281 L 54.808594 57.347656 L 54.503906 57.785156 L 54.097656 58.175781 L 53.585938 58.507812 L 52.953125 58.777344 L 52.203125 58.976562 L 51.320312 59.101562 L 50.304688 59.144531 L 50.304688 60.824219 L 51.441406 60.867188 L 52.429688 60.988281 L 53.273438 61.1875 L 53.980469 61.457031 L 54.5625 61.792969 L 55.019531 62.195312 L 55.359375 62.652344 L 55.597656 63.164062 L 55.730469 63.722656 L 55.777344 64.328125 L 55.730469 64.917969 L 55.605469 65.453125 L 55.398438 65.9375 L 55.117188 66.367188 L 54.769531 66.738281 L 54.359375 67.046875 L 53.894531 67.292969 L 53.375 67.472656 L 52.808594 67.582031 L 52.199219 67.617188 L 51.621094 67.589844 L 51.078125 67.511719 L 50.574219 67.386719 L 50.097656 67.21875 L 49.65625 67.015625 L 49.242188 66.777344 L 48.855469 66.511719 L 48.492188 66.226562 L 48.152344 65.921875 L 47.832031 65.601562 L 46.726562 67.042969 L 47.089844 67.410156 L 47.492188 67.769531 L 47.933594 68.109375 L 48.414062 68.425781 L 48.945312 68.710938 L 49.523438 68.957031 L 50.148438 69.160156 L 50.832031 69.3125 L 51.570312 69.40625 Z M 52.367188 69.441406 "/>
<path style=" stroke:none;fill-rule:nonzero;fill:rgb(30.196078%,30.196078%,30.196078%);fill-opacity:1;" d="M 77.011719 288.023438 L 86.660156 288.023438 L 86.660156 286.199219 L 83.132812 286.199219 L 83.132812 270.40625 L 81.453125 270.40625 L 81.160156 270.574219 L 80.855469 270.730469 L 80.535156 270.878906 L 80.203125 271.019531 L 79.851562 271.148438 L 79.484375 271.269531 L 79.097656 271.386719 L 78.691406 271.488281 L 78.257812 271.585938 L 77.804688 271.675781 L 77.804688 273.070312 L 80.925781 273.070312 L 80.925781 286.199219 L 77.011719 286.199219 Z M 77.011719 288.023438 "/>
<path style=" stroke:none;fill-rule:nonzero;fill:rgb(30.196078%,30.196078%,30.196078%);fill-opacity:1;" d="M 91.339844 275.804688 L 91.378906 275.109375 L 91.488281 274.46875 L 91.664062 273.886719 L 91.902344 273.367188 L 92.199219 272.914062 L 92.542969 272.53125 L 92.933594 272.230469 L 93.363281 272.003906 L 93.824219 271.867188 L 94.316406 271.820312 L 94.964844 271.878906 L 95.558594 272.050781 L 96.09375 272.335938 L 96.574219 272.730469 L 96.992188 273.234375 L 97.351562 273.847656 L 97.648438 274.570312 L 97.882812 275.398438 L 98.050781 276.328125 L 98.15625 277.367188 L 97.8125 277.832031 L 97.457031 278.246094 L 97.09375 278.605469 L 96.722656 278.910156 L 96.347656 279.164062 L 95.96875 279.367188 L 95.59375 279.523438 L 95.21875 279.632812 L 94.847656 279.695312 L 94.484375 279.71875 L 93.890625 279.671875 L 93.355469 279.539062 L 92.882812 279.320312 L 92.476562 279.023438 L 92.128906 278.652344 L 91.84375 278.210938 L 91.625 277.699219 L 91.46875 277.125 L 91.371094 276.492188 Z M 93.835938 288.332031 L 94.820312 288.25 L 95.773438 287.992188 L 96.675781 287.550781 L 97.515625 286.914062 L 98.269531 286.074219 L 98.925781 285.019531 L 99.46875 283.742188 L 99.875 282.234375 L 100.132812 280.476562 L 100.21875 278.46875 L 100.144531 276.875 L 99.929688 275.453125 L 99.585938 274.195312 L 99.117188 273.105469 L 98.539062 272.183594 L 97.855469 271.429688 L 97.082031 270.847656 L 96.230469 270.429688 L 95.304688 270.175781 L 94.316406 270.09375 L 93.511719 270.160156 L 92.742188 270.359375 L 92.019531 270.683594 L 91.359375 271.121094 L 90.769531 271.671875 L 90.261719 272.324219 L 89.847656 273.070312 L 89.539062 273.902344 L 89.34375 274.816406 L 89.277344 275.804688 L 89.332031 276.847656 L 89.5 277.78125 L 89.769531 278.613281 L 90.140625 279.332031 L 90.601562 279.945312 L 91.152344 280.449219 L 91.785156 280.839844 L 92.496094 281.125 L 93.277344 281.292969 L 94.125 281.351562 L 94.566406 281.324219 L 95.003906 281.25 L 95.441406 281.132812 L 95.875 280.96875 L 96.296875 280.765625 L 96.707031 280.519531 L 97.105469 280.238281 L 97.484375 279.921875 L 97.84375 279.570312 L 98.179688 279.191406 L 98.078125 280.71875 L 97.875 282.042969 L 97.582031 283.171875 L 97.210938 284.121094 L 96.765625 284.894531 L 96.253906 285.503906 L 95.691406 285.957031 L 95.082031 286.269531 L 94.4375 286.453125 L 93.765625 286.507812 L 93.425781 286.496094 L 93.097656 286.449219 L 92.769531 286.378906 L 92.453125 286.277344 L 92.148438 286.152344 L 91.851562 286 L 91.574219 285.828125 L 91.308594 285.628906 L 91.0625 285.40625 L 90.835938 285.164062 L 89.613281 286.535156 L 89.917969 286.835938 L 90.246094 287.117188 L 90.601562 287.378906 L 90.976562 287.613281 L 91.382812 287.820312 L 91.8125 287.996094 L 92.273438 288.140625 L 92.761719 288.246094 L 93.285156 288.3125 Z M 93.835938 288.332031 "/>
<path style=" stroke:none;fill-rule:nonzero;fill:rgb(30.196078%,30.196078%,30.196078%);fill-opacity:1;" d="M 108.238281 288.332031 L 109.195312 288.273438 L 110.082031 288.105469 L 110.890625 287.835938 L 111.609375 287.46875 L 112.238281 287.015625 L 112.765625 286.488281 L 113.191406 285.890625 L 113.5 285.234375 L 113.691406 284.523438 L 113.757812 283.773438 L 113.714844 283.085938 L 113.59375 282.457031 L 113.402344 281.886719 L 113.152344 281.371094 L 112.84375 280.902344 L 112.492188 280.480469 L 112.101562 280.097656 L 111.679688 279.753906 L 111.238281 279.445312 L 110.78125 279.164062 L 110.78125 279.046875 L 111.101562 278.777344 L 111.429688 278.46875 L 111.753906 278.117188 L 112.0625 277.730469 L 112.351562 277.308594 L 112.609375 276.855469 L 112.824219 276.375 L 112.988281 275.871094 L 113.09375 275.34375 L 113.132812 274.796875 L 113.078125 274.007812 L 112.917969 273.273438 L 112.65625 272.601562 L 112.296875 271.996094 L 111.84375 271.464844 L 111.300781 271.015625 L 110.671875 270.652344 L 109.960938 270.386719 L 109.171875 270.222656 L 108.308594 270.164062 L 107.507812 270.21875 L 106.757812 270.371094 L 106.058594 270.621094 L 105.429688 270.960938 L 104.871094 271.390625 L 104.394531 271.898438 L 104.007812 272.480469 L 103.722656 273.132812 L 103.546875 273.851562 L 103.484375 274.628906 L 103.515625 275.167969 L 103.605469 275.675781 L 103.753906 276.152344 L 103.949219 276.601562 L 104.1875 277.019531 L 104.464844 277.40625 L 104.777344 277.765625 L 105.117188 278.101562 L 105.480469 278.40625 L 105.859375 278.6875 L 105.859375 278.804688 L 105.378906 279.085938 L 104.90625 279.414062 L 104.453125 279.789062 L 104.023438 280.207031 L 103.636719 280.671875 L 103.296875 281.179688 L 103.015625 281.734375 L 102.804688 282.328125 L 102.667969 282.96875 L 102.621094 283.652344 L 102.691406 284.445312 L 102.894531 285.183594 L 103.222656 285.859375 L 103.664062 286.472656 L 104.214844 287.011719 L 104.859375 287.46875 L 105.59375 287.835938 L 106.40625 288.105469 L 107.292969 288.277344 Z M 109.4375 278.46875 L 108.824219 278.222656 L 108.230469 277.960938 L 107.671875 277.679688 L 107.152344 277.375 L 106.683594 277.035156 L 106.277344 276.660156 L 105.941406 276.234375 L 105.691406 275.761719 L 105.53125 275.226562 L 105.476562 274.628906 L 105.511719 274.136719 L 105.613281 273.679688 L 105.773438 273.261719 L 105.996094 272.886719 L 106.269531 272.5625 L 106.589844 272.289062 L 106.957031 272.070312 L 107.367188 271.90625 L 107.808594 271.808594 L 108.285156 271.773438 L 108.828125 271.816406 L 109.320312 271.933594 L 109.761719 272.125 L 110.152344 272.382812 L 110.484375 272.699219 L 110.757812 273.066406 L 110.976562 273.476562 L 111.132812 273.925781 L 111.226562 274.410156 L 111.261719 274.917969 L 111.242188 275.304688 L 111.1875 275.683594 L 111.09375 276.058594 L 110.964844 276.421875 L 110.796875 276.785156 L 110.597656 277.136719 L 110.359375 277.480469 L 110.085938 277.820312 L 109.777344 278.148438 Z M 108.285156 286.703125 L 107.667969 286.660156 L 107.089844 286.542969 L 106.558594 286.355469 L 106.078125 286.101562 L 105.65625 285.785156 L 105.296875 285.410156 L 105.007812 284.988281 L 104.792969 284.515625 L 104.65625 284.007812 L 104.613281 283.460938 L 104.640625 282.964844 L 104.726562 282.488281 L 104.863281 282.03125 L 105.050781 281.597656 L 105.28125 281.183594 L 105.554688 280.789062 L 105.871094 280.421875 L 106.21875 280.082031 L 106.601562 279.765625 L 107.011719 279.476562 L 107.75 279.777344 L 108.453125 280.082031 L 109.117188 280.394531 L 109.730469 280.730469 L 110.277344 281.097656 L 110.75 281.503906 L 111.132812 281.960938 L 111.421875 282.476562 L 111.605469 283.0625 L 111.667969 283.726562 L 111.628906 284.234375 L 111.511719 284.707031 L 111.320312 285.140625 L 111.058594 285.53125 L 110.730469 285.871094 L 110.347656 286.160156 L 109.90625 286.390625 L 109.410156 286.558594 L 108.867188 286.664062 Z M 108.285156 286.703125 "/>
<path style=" stroke:none;fill-rule:nonzero;fill:rgb(30.196078%,30.196078%,30.196078%);fill-opacity:1;" d="M 121.125 288.332031 L 122.007812 288.269531 L 122.867188 288.074219 L 123.679688 287.757812 L 124.4375 287.316406 L 125.121094 286.757812 L 125.714844 286.082031 L 126.203125 285.296875 L 126.570312 284.398438 L 126.804688 283.394531 L 126.882812 282.285156 L 126.816406 281.191406 L 126.613281 280.21875 L 126.292969 279.375 L 125.859375 278.648438 L 125.332031 278.039062 L 124.710938 277.550781 L 124.015625 277.171875 L 123.257812 276.902344 L 122.441406 276.746094 L 121.582031 276.695312 L 121.273438 276.703125 L 120.980469 276.722656 L 120.699219 276.761719 L 120.429688 276.8125 L 120.171875 276.878906 L 119.921875 276.957031 L 119.679688 277.046875 L 119.4375 277.152344 L 119.203125 277.265625 L 118.964844 277.390625 L 119.394531 272.300781 L 126.042969 272.300781 L 126.042969 270.40625 L 117.476562 270.40625 L 116.925781 278.660156 L 118.101562 279.382812 L 118.394531 279.191406 L 118.679688 279.015625 L 118.953125 278.863281 L 119.226562 278.726562 L 119.5 278.613281 L 119.78125 278.519531 L 120.066406 278.445312 L 120.367188 278.390625 L 120.6875 278.359375 L 121.027344 278.351562 L 121.667969 278.394531 L 122.253906 278.523438 L 122.789062 278.738281 L 123.265625 279.035156 L 123.679688 279.410156 L 124.027344 279.859375 L 124.304688 280.378906 L 124.507812 280.972656 L 124.632812 281.632812 L 124.675781 282.359375 L 124.628906 283.097656 L 124.484375 283.777344 L 124.257812 284.386719 L 123.953125 284.929688 L 123.578125 285.398438 L 123.140625 285.789062 L 122.652344 286.097656 L 122.113281 286.324219 L 121.539062 286.460938 L 120.933594 286.507812 L 120.34375 286.484375 L 119.796875 286.402344 L 119.289062 286.28125 L 118.820312 286.117188 L 118.386719 285.914062 L 117.980469 285.683594 L 117.605469 285.429688 L 117.253906 285.15625 L 116.921875 284.863281 L 116.613281 284.566406 L 115.53125 286.003906 L 115.902344 286.355469 L 116.304688 286.699219 L 116.742188 287.027344 L 117.222656 287.332031 L 117.742188 287.609375 L 118.3125 287.851562 L 118.933594 288.054688 L 119.605469 288.203125 L 120.335938 288.300781 Z M 121.125 288.332031 "/>
<path style=" stroke:none;fill-rule:nonzero;fill:rgb(30.196078%,30.196078%,30.196078%);fill-opacity:1;" d="M 268.605469 288.023438 L 278.253906 288.023438 L 278.253906 286.199219 L 274.726562 286.199219 L 274.726562 270.40625 L 273.042969 270.40625 L 272.75 270.574219 L 272.445312 270.730469 L 272.128906 270.878906 L 271.796875 271.019531 L 271.445312 271.148438 L 271.078125 271.269531 L 270.691406 271.386719 L 270.28125 271.488281 L 269.851562 271.585938 L 269.398438 271.675781 L 269.398438 273.070312 L 272.515625 273.070312 L 272.515625 286.199219 L 268.605469 286.199219 Z M 268.605469 288.023438 "/>
<path style=" stroke:none;fill-rule:nonzero;fill:rgb(30.196078%,30.196078%,30.196078%);fill-opacity:1;" d="M 282.933594 275.804688 L 282.96875 275.109375 L 283.082031 274.46875 L 283.257812 273.886719 L 283.496094 273.367188 L 283.789062 272.914062 L 284.136719 272.53125 L 284.523438 272.230469 L 284.953125 272.003906 L 285.417969 271.867188 L 285.910156 271.820312 L 286.558594 271.878906 L 287.152344 272.050781 L 287.6875 272.335938 L 288.164062 272.730469 L 288.585938 273.234375 L 288.941406 273.847656 L 289.238281 274.570312 L 289.472656 275.398438 L 289.644531 276.328125 L 289.75 277.367188 L 289.402344 277.832031 L 289.046875 278.246094 L 288.683594 278.605469 L 288.3125 278.910156 L 287.941406 279.164062 L 287.5625 279.367188 L 287.1875 279.523438 L 286.8125 279.632812 L 286.441406 279.695312 L 286.078125 279.71875 L 285.480469 279.671875 L 284.949219 279.539062 L 284.476562 279.320312 L 284.066406 279.023438 L 283.722656 278.652344 L 283.4375 278.210938 L 283.21875 277.699219 L 283.058594 277.125 L 282.964844 276.492188 Z M 285.429688 288.332031 L 286.414062 288.25 L 287.363281 287.992188 L 288.269531 287.550781 L 289.105469 286.914062 L 289.863281 286.074219 L 290.519531 285.019531 L 291.058594 283.742188 L 291.464844 282.234375 L 291.722656 280.476562 L 291.8125 278.46875 L 291.738281 276.875 L 291.523438 275.453125 L 291.175781 274.195312 L 290.710938 273.105469 L 290.128906 272.183594 L 289.449219 271.429688 L 288.675781 270.847656 L 287.820312 270.429688 L 286.894531 270.175781 L 285.910156 270.09375 L 285.101562 270.160156 L 284.332031 270.359375 L 283.613281 270.683594 L 282.953125 271.121094 L 282.363281 271.671875 L 281.855469 272.324219 L 281.441406 273.070312 L 281.128906 273.902344 L 280.9375 274.816406 L 280.867188 275.804688 L 280.925781 276.847656 L 281.089844 277.78125 L 281.363281 278.613281 L 281.730469 279.332031 L 282.195312 279.945312 L 282.746094 280.449219 L 283.378906 280.839844 L 284.089844 281.125 L 284.871094 281.292969 L 285.714844 281.351562 L 286.15625 281.324219 L 286.597656 281.25 L 287.035156 281.132812 L 287.464844 280.96875 L 287.886719 280.765625 L 288.300781 280.519531 L 288.695312 280.238281 L 289.078125 279.921875 L 289.4375 279.570312 L 289.773438 279.191406 L 289.667969 280.71875 L 289.46875 282.042969 L 289.175781 283.171875 L 288.800781 284.121094 L 288.355469 284.894531 L 287.847656 285.503906 L 287.285156 285.957031 L 286.675781 286.269531 L 286.03125 286.453125 L 285.355469 286.507812 L 285.019531 286.496094 L 284.6875 286.449219 L 284.363281 286.378906 L 284.046875 286.277344 L 283.738281 286.152344 L 283.445312 286 L 283.164062 285.828125 L 282.902344 285.628906 L 282.65625 285.40625 L 282.429688 285.164062 L 281.203125 286.535156 L 281.511719 286.835938 L 281.839844 287.117188 L 282.191406 287.378906 L 282.570312 287.613281 L 282.976562 287.820312 L 283.40625 287.996094 L 283.867188 288.140625 L 284.355469 288.246094 L 284.875 288.3125 Z M 285.429688 288.332031 "/>
<path style=" stroke:none;fill-rule:nonzero;fill:rgb(30.196078%,30.196078%,30.196078%);fill-opacity:1;" d="M 296.253906 275.804688 L 296.289062 275.109375 L 296.402344 274.46875 L 296.578125 273.886719 L 296.816406 273.367188 L 297.109375 272.914062 L 297.457031 272.53125 L 297.84375 272.230469 L 298.273438 272.003906 L 298.738281 271.867188 L 299.230469 271.820312 L 299.878906 271.878906 L 300.472656 272.050781 L 301.007812 272.335938 L 301.484375 272.730469 L 301.90625 273.234375 L 302.261719 273.847656 L 302.558594 274.570312 L 302.792969 275.398438 L 302.964844 276.328125 L 303.070312 277.367188 L 302.722656 277.832031 L 302.367188 278.246094 L 302.003906 278.605469 L 301.632812 278.910156 L 301.257812 279.164062 L 300.882812 279.367188 L 300.503906 279.523438 L 300.132812 279.632812 L 299.761719 279.695312 L 299.398438 279.71875 L 298.800781 279.671875 L 298.269531 279.539062 L 297.796875 279.320312 L 297.386719 279.023438 L 297.042969 278.652344 L 296.757812 278.210938 L 296.535156 277.699219 L 296.378906 277.125 L 296.285156 276.492188 Z M 298.75 288.332031 L 299.730469 288.25 L 300.683594 287.992188 L 301.589844 287.550781 L 302.425781 286.914062 L 303.183594 286.074219 L 303.839844 285.019531 L 304.378906 283.742188 L 304.785156 282.234375 L 305.042969 280.476562 L 305.132812 278.46875 L 305.058594 276.875 L 304.84375 275.453125 L 304.496094 274.195312 L 304.027344 273.105469 L 303.449219 272.183594 L 302.769531 271.429688 L 301.996094 270.847656 L 301.140625 270.429688 L 300.214844 270.175781 L 299.230469 270.09375 L 298.421875 270.160156 L 297.652344 270.359375 L 296.933594 270.683594 L 296.273438 271.121094 L 295.683594 271.671875 L 295.175781 272.324219 L 294.761719 273.070312 L 294.449219 273.902344 L 294.257812 274.816406 L 294.1875 275.804688 L 294.246094 276.847656 L 294.410156 277.78125 L 294.683594 278.613281 L 295.050781 279.332031 L 295.515625 279.945312 L 296.066406 280.449219 L 296.699219 280.839844 L 297.40625 281.125 L 298.1875 281.292969 L 299.035156 281.351562 L 299.476562 281.324219 L 299.917969 281.25 L 300.355469 281.132812 L 300.785156 280.96875 L 301.207031 280.765625 L 301.621094 280.519531 L 302.015625 280.238281 L 302.398438 279.921875 L 302.757812 279.570312 L 303.09375 279.191406 L 302.988281 280.71875 L 302.789062 282.042969 L 302.496094 283.171875 L 302.121094 284.121094 L 301.675781 284.894531 L 301.167969 285.503906 L 300.605469 285.957031 L 299.996094 286.269531 L 299.351562 286.453125 L 298.675781 286.507812 L 298.339844 286.496094 L 298.007812 286.449219 L 297.683594 286.378906 L 297.367188 286.277344 L 297.058594 286.152344 L 296.765625 286 L 296.484375 285.828125 L 296.222656 285.628906 L 295.976562 285.40625 L 295.75 285.164062 L 294.523438 286.535156 L 294.832031 286.835938 L 295.160156 287.117188 L 295.511719 287.378906 L 295.890625 287.613281 L 296.292969 287.820312 L 296.726562 287.996094 L 297.1875 288.140625 L 297.675781 288.246094 L 298.195312 288.3125 Z M 298.75 288.332031 "/>
<path style=" stroke:none;fill-rule:nonzero;fill:rgb(30.196078%,30.196078%,30.196078%);fill-opacity:1;" d="M 313.125 288.332031 L 314.089844 288.242188 L 314.976562 287.96875 L 315.777344 287.511719 L 316.492188 286.867188 L 317.113281 286.042969 L 317.632812 285.035156 L 318.046875 283.84375 L 318.347656 282.46875 L 318.535156 280.910156 L 318.597656 279.164062 L 318.535156 277.429688 L 318.347656 275.882812 L 318.046875 274.519531 L 317.632812 273.339844 L 317.113281 272.34375 L 316.492188 271.53125 L 315.777344 270.902344 L 314.976562 270.453125 L 314.089844 270.183594 L 313.125 270.09375 L 312.152344 270.183594 L 311.261719 270.449219 L 310.457031 270.898438 L 309.738281 271.523438 L 309.117188 272.335938 L 308.59375 273.328125 L 308.179688 274.507812 L 307.878906 275.871094 L 307.691406 277.425781 L 307.628906 279.164062 L 307.691406 280.910156 L 307.878906 282.46875 L 308.179688 283.84375 L 308.59375 285.035156 L 309.117188 286.042969 L 309.738281 286.867188 L 310.457031 287.511719 L 311.261719 287.96875 L 312.152344 288.242188 Z M 313.125 286.582031 L 312.539062 286.515625 L 312 286.308594 L 311.511719 285.960938 L 311.070312 285.464844 L 310.6875 284.816406 L 310.367188 284.015625 L 310.109375 283.054688 L 309.921875 281.925781 L 309.804688 280.632812 L 309.765625 279.164062 L 309.804688 277.710938 L 309.921875 276.433594 L 310.109375 275.320312 L 310.367188 274.371094 L 310.6875 273.578125 L 311.070312 272.941406 L 311.511719 272.457031 L 312 272.113281 L 312.539062 271.910156 L 313.125 271.84375 L 313.703125 271.910156 L 314.238281 272.113281 L 314.722656 272.457031 L 315.160156 272.941406 L 315.539062 273.578125 L 315.859375 274.371094 L 316.117188 275.320312 L 316.304688 276.433594 L 316.421875 277.710938 L 316.460938 279.164062 L 316.421875 280.632812 L 316.304688 281.925781 L 316.117188 283.054688 L 315.859375 284.015625 L 315.539062 284.816406 L 315.160156 285.464844 L 314.722656 285.960938 L 314.238281 286.308594 L 313.703125 286.515625 Z M 313.125 286.582031 "/>
<path style=" stroke:none;fill-rule:nonzero;fill:rgb(30.196078%,30.196078%,30.196078%);fill-opacity:1;" d="M 460.195312 288.023438 L 469.84375 288.023438 L 469.84375 286.199219 L 466.316406 286.199219 L 466.316406 270.40625 L 464.636719 270.40625 L 464.34375 270.574219 L 464.039062 270.730469 L 463.71875 270.878906 L 463.386719 271.019531 L 463.039062 271.148438 L 462.671875 271.269531 L 462.285156 271.386719 L 461.875 271.488281 L 461.445312 271.585938 L 460.988281 271.675781 L 460.988281 273.070312 L 464.109375 273.070312 L 464.109375 286.199219 L 460.195312 286.199219 Z M 460.195312 288.023438 "/>
<path style=" stroke:none;fill-rule:nonzero;fill:rgb(30.196078%,30.196078%,30.196078%);fill-opacity:1;" d="M 474.523438 275.804688 L 474.5625 275.109375 L 474.671875 274.46875 L 474.851562 273.886719 L 475.089844 273.367188 L 475.382812 272.914062 L 475.726562 272.53125 L 476.117188 272.230469 L 476.546875 272.003906 L 477.007812 271.867188 L 477.5 271.820312 L 478.148438 271.878906 L 478.742188 272.050781 L 479.28125 272.335938 L 479.757812 272.730469 L 480.175781 273.234375 L 480.535156 273.847656 L 480.832031 274.570312 L 481.066406 275.398438 L 481.234375 276.328125 L 481.339844 277.367188 L 480.996094 277.832031 L 480.640625 278.246094 L 480.277344 278.605469 L 479.90625 278.910156 L 479.53125 279.164062 L 479.15625 279.367188 L 478.777344 279.523438 L 478.402344 279.632812 L 478.03125 279.695312 L 477.667969 279.71875 L 477.074219 279.671875 L 476.539062 279.539062 L 476.070312 279.320312 L 475.660156 279.023438 L 475.3125 278.652344 L 475.03125 278.210938 L 474.808594 277.699219 L 474.652344 277.125 L 474.554688 276.492188 Z M 477.019531 288.332031 L 478.003906 288.25 L 478.957031 287.992188 L 479.859375 287.550781 L 480.699219 286.914062 L 481.453125 286.074219 L 482.113281 285.019531 L 482.652344 283.742188 L 483.058594 282.234375 L 483.316406 280.476562 L 483.40625 278.46875 L 483.332031 276.875 L 483.117188 275.453125 L 482.769531 274.195312 L 482.300781 273.105469 L 481.722656 272.183594 L 481.039062 271.429688 L 480.269531 270.847656 L 479.414062 270.429688 L 478.488281 270.175781 L 477.5 270.09375 L 476.695312 270.160156 L 475.925781 270.359375 L 475.207031 270.683594 L 474.542969 271.121094 L 473.953125 271.671875 L 473.445312 272.324219 L 473.03125 273.070312 L 472.722656 273.902344 L 472.527344 274.816406 L 472.460938 275.804688 L 472.519531 276.847656 L 472.683594 277.78125 L 472.953125 278.613281 L 473.324219 279.332031 L 473.785156 279.945312 L 474.335938 280.449219 L 474.96875 280.839844 L 475.679688 281.125 L 476.460938 281.292969 L 477.308594 281.351562 L 477.75 281.324219 L 478.1875 281.25 L 478.625 281.132812 L 479.058594 280.96875 L 479.480469 280.765625 L 479.890625 280.519531 L 480.289062 280.238281 L 480.667969 279.921875 L 481.027344 279.570312 L 481.363281 279.191406 L 481.261719 280.71875 L 481.058594 282.042969 L 480.769531 283.171875 L 480.394531 284.121094 L 479.949219 284.894531 L 479.441406 285.503906 L 478.875 285.957031 L 478.265625 286.269531 L 477.621094 286.453125 L 476.949219 286.507812 L 476.613281 286.496094 L 476.28125 286.449219 L 475.957031 286.378906 L 475.636719 286.277344 L 475.332031 286.152344 L 475.039062 286 L 474.757812 285.828125 L 474.492188 285.628906 L 474.246094 285.40625 L 474.019531 285.164062 L 472.796875 286.535156 L 473.101562 286.835938 L 473.433594 287.117188 L 473.785156 287.378906 L 474.164062 287.613281 L 474.566406 287.820312 L 475 287.996094 L 475.457031 288.140625 L 475.949219 288.246094 L 476.46875 288.3125 Z M 477.019531 288.332031 "/>
<path style=" stroke:none;fill-rule:nonzero;fill:rgb(30.196078%,30.196078%,30.196078%);fill-opacity:1;" d="M 487.84375 275.804688 L 487.882812 275.109375 L 487.992188 274.46875 L 488.171875 273.886719 L 488.410156 273.367188 L 488.703125 272.914062 L 489.046875 272.53125 L 489.4375 272.230469 L 489.867188 272.003906 L 490.328125 271.867188 L 490.820312 271.820312 L 491.46875 271.878906 L 492.0625 272.050781 L 492.601562 272.335938 L 493.078125 272.730469 L 493.496094 273.234375 L 493.855469 273.847656 L 494.152344 274.570312 L 494.386719 275.398438 L 494.554688 276.328125 L 494.660156 277.367188 L 494.316406 277.832031 L 493.960938 278.246094 L 493.597656 278.605469 L 493.226562 278.910156 L 492.851562 279.164062 L 492.476562 279.367188 L 492.097656 279.523438 L 491.722656 279.632812 L 491.351562 279.695312 L 490.988281 279.71875 L 490.394531 279.671875 L 489.859375 279.539062 L 489.390625 279.320312 L 488.980469 279.023438 L 488.632812 278.652344 L 488.351562 278.210938 L 488.128906 277.699219 L 487.972656 277.125 L 487.875 276.492188 Z M 490.339844 288.332031 L 491.324219 288.25 L 492.277344 287.992188 L 493.179688 287.550781 L 494.019531 286.914062 L 494.773438 286.074219 L 495.429688 285.019531 L 495.972656 283.742188 L 496.378906 282.234375 L 496.636719 280.476562 L 496.726562 278.46875 L 496.652344 276.875 L 496.4375 275.453125 L 496.089844 274.195312 L 495.621094 273.105469 L 495.042969 272.183594 L 494.359375 271.429688 L 493.589844 270.847656 L 492.734375 270.429688 L 491.808594 270.175781 L 490.820312 270.09375 L 490.015625 270.160156 L 489.246094 270.359375 L 488.527344 270.683594 L 487.863281 271.121094 L 487.273438 271.671875 L 486.765625 272.324219 L 486.351562 273.070312 L 486.042969 273.902344 L 485.847656 274.816406 L 485.78125 275.804688 L 485.835938 276.847656 L 486.003906 277.78125 L 486.273438 278.613281 L 486.644531 279.332031 L 487.105469 279.945312 L 487.65625 280.449219 L 488.289062 280.839844 L 489 281.125 L 489.78125 281.292969 L 490.628906 281.351562 L 491.070312 281.324219 L 491.507812 281.25 L 491.945312 281.132812 L 492.378906 280.96875 L 492.800781 280.765625 L 493.210938 280.519531 L 493.609375 280.238281 L 493.988281 279.921875 L 494.347656 279.570312 L 494.683594 279.191406 L 494.582031 280.71875 L 494.378906 282.042969 L 494.085938 283.171875 L 493.714844 284.121094 L 493.269531 284.894531 L 492.761719 285.503906 L 492.195312 285.957031 L 491.585938 286.269531 L 490.941406 286.453125 L 490.269531 286.507812 L 489.933594 286.496094 L 489.601562 286.449219 L 489.273438 286.378906 L 488.957031 286.277344 L 488.652344 286.152344 L 488.359375 286 L 488.078125 285.828125 L 487.8125 285.628906 L 487.566406 285.40625 L 487.339844 285.164062 L 486.117188 286.535156 L 486.421875 286.835938 L 486.753906 287.117188 L 487.105469 287.378906 L 487.484375 287.613281 L 487.886719 287.820312 L 488.320312 287.996094 L 488.777344 288.140625 L 489.269531 288.246094 L 489.789062 288.3125 Z M 490.339844 288.332031 "/>
<path style=" stroke:none;fill-rule:nonzero;fill:rgb(30.196078%,30.196078%,30.196078%);fill-opacity:1;" d="M 504.308594 288.332031 L 505.195312 288.269531 L 506.050781 288.074219 L 506.867188 287.757812 L 507.621094 287.316406 L 508.304688 286.757812 L 508.898438 286.082031 L 509.386719 285.296875 L 509.753906 284.398438 L 509.988281 283.394531 L 510.070312 282.285156 L 510 281.191406 L 509.796875 280.21875 L 509.476562 279.375 L 509.046875 278.648438 L 508.515625 278.039062 L 507.898438 277.550781 L 507.203125 277.171875 L 506.441406 276.902344 L 505.625 276.746094 L 504.765625 276.695312 L 504.457031 276.703125 L 504.164062 276.722656 L 503.882812 276.761719 L 503.617188 276.8125 L 503.359375 276.878906 L 503.109375 276.957031 L 502.863281 277.046875 L 502.625 277.152344 L 502.386719 277.265625 L 502.148438 277.390625 L 502.582031 272.300781 L 509.230469 272.300781 L 509.230469 270.40625 L 500.660156 270.40625 L 500.109375 278.660156 L 501.285156 279.382812 L 501.582031 279.191406 L 501.863281 279.015625 L 502.140625 278.863281 L 502.414062 278.726562 L 502.6875 278.613281 L 502.964844 278.519531 L 503.253906 278.445312 L 503.554688 278.390625 L 503.871094 278.359375 L 504.214844 278.351562 L 504.851562 278.394531 L 505.441406 278.523438 L 505.976562 278.738281 L 506.449219 279.035156 L 506.863281 279.410156 L 507.210938 279.859375 L 507.492188 280.378906 L 507.695312 280.972656 L 507.820312 281.632812 L 507.859375 282.359375 L 507.8125 283.097656 L 507.667969 283.777344 L 507.441406 284.386719 L 507.136719 284.929688 L 506.761719 285.398438 L 506.328125 285.789062 L 505.835938 286.097656 L 505.300781 286.324219 L 504.722656 286.460938 L 504.117188 286.507812 L 503.527344 286.484375 L 502.980469 286.402344 L 502.476562 286.28125 L 502.003906 286.117188 L 501.570312 285.914062 L 501.164062 285.683594 L 500.789062 285.429688 L 500.4375 285.15625 L 500.109375 284.863281 L 499.796875 284.566406 L 498.71875 286.003906 L 499.085938 286.355469 L 499.488281 286.699219 L 499.925781 287.027344 L 500.40625 287.332031 L 500.929688 287.609375 L 501.496094 287.851562 L 502.117188 288.054688 L 502.789062 288.203125 L 503.519531 288.300781 Z M 504.308594 288.332031 "/>
<path style=" stroke:none;fill-rule:nonzero;fill:rgb(30.196078%,30.196078%,30.196078%);fill-opacity:1;" d="M 650.734375 288.023438 L 661.796875 288.023438 L 661.796875 286.125 L 656.925781 286.125 L 656.652344 286.128906 L 656.371094 286.136719 L 656.082031 286.148438 L 655.789062 286.164062 L 655.496094 286.183594 L 655.195312 286.203125 L 654.609375 286.25 L 654.324219 286.269531 L 654.046875 286.292969 L 655.242188 285.128906 L 656.347656 283.984375 L 657.351562 282.855469 L 658.253906 281.742188 L 659.039062 280.644531 L 659.699219 279.558594 L 660.226562 278.480469 L 660.613281 277.414062 L 660.851562 276.355469 L 660.933594 275.300781 L 660.875 274.390625 L 660.703125 273.554688 L 660.421875 272.789062 L 660.039062 272.109375 L 659.554688 271.519531 L 658.980469 271.019531 L 658.3125 270.625 L 657.558594 270.332031 L 656.726562 270.15625 L 655.820312 270.09375 L 655.171875 270.125 L 654.5625 270.214844 L 653.988281 270.359375 L 653.445312 270.558594 L 652.933594 270.804688 L 652.441406 271.097656 L 651.96875 271.4375 L 651.515625 271.816406 L 651.070312 272.234375 L 650.636719 272.6875 L 651.910156 273.933594 L 652.207031 273.597656 L 652.519531 273.277344 L 652.847656 272.984375 L 653.191406 272.71875 L 653.554688 272.480469 L 653.925781 272.28125 L 654.316406 272.117188 L 654.71875 271.996094 L 655.132812 271.917969 L 655.558594 271.894531 L 656.179688 271.9375 L 656.734375 272.0625 L 657.21875 272.265625 L 657.640625 272.539062 L 657.996094 272.878906 L 658.285156 273.277344 L 658.511719 273.734375 L 658.667969 274.238281 L 658.765625 274.785156 L 658.796875 275.375 L 658.71875 276.296875 L 658.488281 277.253906 L 658.097656 278.246094 L 657.546875 279.285156 L 656.835938 280.375 L 655.957031 281.515625 L 654.910156 282.71875 L 653.691406 283.984375 L 652.300781 285.316406 L 650.734375 286.726562 Z M 650.734375 288.023438 "/>
<path style=" stroke:none;fill-rule:nonzero;fill:rgb(30.196078%,30.196078%,30.196078%);fill-opacity:1;" d="M 669.667969 288.332031 L 670.632812 288.242188 L 671.519531 287.96875 L 672.324219 287.511719 L 673.035156 286.867188 L 673.65625 286.042969 L 674.175781 285.035156 L 674.589844 283.84375 L 674.890625 282.46875 L 675.078125 280.910156 L 675.140625 279.164062 L 675.078125 277.429688 L 674.890625 275.882812 L 674.589844 274.519531 L 674.175781 273.339844 L 673.65625 272.34375 L 673.035156 271.53125 L 672.324219 270.902344 L 671.519531 270.453125 L 670.632812 270.183594 L 669.667969 270.09375 L 668.699219 270.183594 L 667.808594 270.449219 L 667 270.898438 L 666.28125 271.523438 L 665.660156 272.335938 L 665.140625 273.328125 L 664.726562 274.507812 L 664.421875 275.871094 L 664.238281 277.425781 L 664.171875 279.164062 L 664.238281 280.910156 L 664.421875 282.46875 L 664.726562 283.84375 L 665.140625 285.035156 L 665.660156 286.042969 L 666.28125 286.867188 L 667 287.511719 L 667.808594 287.96875 L 668.699219 288.242188 Z M 669.667969 286.582031 L 669.085938 286.515625 L 668.546875 286.308594 L 668.054688 285.960938 L 667.617188 285.464844 L 667.234375 284.816406 L 666.910156 284.015625 L 666.652344 283.054688 L 666.464844 281.925781 L 666.347656 280.632812 L 666.308594 279.164062 L 666.347656 277.710938 L 666.464844 276.433594 L 666.652344 275.320312 L 666.910156 274.371094 L 667.234375 273.578125 L 667.617188 272.941406 L 668.054688 272.457031 L 668.546875 272.113281 L 669.085938 271.910156 L 669.667969 271.84375 L 670.246094 271.910156 L 670.78125 272.113281 L 671.269531 272.457031 L 671.703125 272.941406 L 672.085938 273.578125 L 672.40625 274.371094 L 672.660156 275.320312 L 672.847656 276.433594 L 672.964844 277.710938 L 673.003906 279.164062 L 672.964844 280.632812 L 672.847656 281.925781 L 672.660156 283.054688 L 672.40625 284.015625 L 672.085938 284.816406 L 671.703125 285.464844 L 671.269531 285.960938 L 670.78125 286.308594 L 670.246094 286.515625 Z M 669.667969 286.582031 "/>
<path style=" stroke:none;fill-rule:nonzero;fill:rgb(30.196078%,30.196078%,30.196078%);fill-opacity:1;" d="M 682.988281 288.332031 L 683.953125 288.242188 L 684.839844 287.96875 L 685.640625 287.511719 L 686.355469 286.867188 L 686.976562 286.042969 L 687.496094 285.035156 L 687.910156 283.84375 L 688.210938 282.46875 L 688.398438 280.910156 L 688.460938 279.164062 L 688.398438 277.429688 L 688.210938 275.882812 L 687.910156 274.519531 L 687.496094 273.339844 L 686.976562 272.34375 L 686.355469 271.53125 L 685.640625 270.902344 L 684.839844 270.453125 L 683.953125 270.183594 L 682.988281 270.09375 L 682.019531 270.183594 L 681.128906 270.449219 L 680.320312 270.898438 L 679.601562 271.523438 L 678.980469 272.335938 L 678.460938 273.328125 L 678.046875 274.507812 L 677.742188 275.871094 L 677.554688 277.425781 L 677.492188 279.164062 L 677.554688 280.910156 L 677.742188 282.46875 L 678.046875 283.84375 L 678.460938 285.035156 L 678.980469 286.042969 L 679.601562 286.867188 L 680.320312 287.511719 L 681.128906 287.96875 L 682.019531 288.242188 Z M 682.988281 286.582031 L 682.40625 286.515625 L 681.867188 286.308594 L 681.375 285.960938 L 680.9375 285.464844 L 680.554688 284.816406 L 680.230469 284.015625 L 679.972656 283.054688 L 679.785156 281.925781 L 679.667969 280.632812 L 679.628906 279.164062 L 679.667969 277.710938 L 679.785156 276.433594 L 679.972656 275.320312 L 680.230469 274.371094 L 680.554688 273.578125 L 680.9375 272.941406 L 681.375 272.457031 L 681.867188 272.113281 L 682.40625 271.910156 L 682.988281 271.84375 L 683.566406 271.910156 L 684.101562 272.113281 L 684.589844 272.457031 L 685.023438 272.941406 L 685.402344 273.578125 L 685.726562 274.371094 L 685.980469 275.320312 L 686.167969 276.433594 L 686.285156 277.710938 L 686.324219 279.164062 L 686.285156 280.632812 L 686.167969 281.925781 L 685.980469 283.054688 L 685.726562 284.015625 L 685.402344 284.816406 L 685.023438 285.464844 L 684.589844 285.960938 L 684.101562 286.308594 L 683.566406 286.515625 Z M 682.988281 286.582031 "/>
<path style=" stroke:none;fill-rule:nonzero;fill:rgb(30.196078%,30.196078%,30.196078%);fill-opacity:1;" d="M 696.308594 288.332031 L 697.273438 288.242188 L 698.160156 287.96875 L 698.960938 287.511719 L 699.675781 286.867188 L 700.296875 286.042969 L 700.816406 285.035156 L 701.230469 283.84375 L 701.53125 282.46875 L 701.71875 280.910156 L 701.78125 279.164062 L 701.71875 277.429688 L 701.53125 275.882812 L 701.230469 274.519531 L 700.816406 273.339844 L 700.296875 272.34375 L 699.675781 271.53125 L 698.960938 270.902344 L 698.160156 270.453125 L 697.273438 270.183594 L 696.308594 270.09375 L 695.339844 270.183594 L 694.449219 270.449219 L 693.640625 270.898438 L 692.921875 271.523438 L 692.300781 272.335938 L 691.78125 273.328125 L 691.367188 274.507812 L 691.0625 275.871094 L 690.875 277.425781 L 690.8125 279.164062 L 690.875 280.910156 L 691.0625 282.46875 L 691.367188 283.84375 L 691.78125 285.035156 L 692.300781 286.042969 L 692.921875 286.867188 L 693.640625 287.511719 L 694.449219 287.96875 L 695.339844 288.242188 Z M 696.308594 286.582031 L 695.726562 286.515625 L 695.1875 286.308594 L 694.695312 285.960938 L 694.253906 285.464844 L 693.875 284.816406 L 693.550781 284.015625 L 693.292969 283.054688 L 693.105469 281.925781 L 692.988281 280.632812 L 692.949219 279.164062 L 692.988281 277.710938 L 693.105469 276.433594 L 693.292969 275.320312 L 693.550781 274.371094 L 693.875 273.578125 L 694.253906 272.941406 L 694.695312 272.457031 L 695.1875 272.113281 L 695.726562 271.910156 L 696.308594 271.84375 L 696.886719 271.910156 L 697.421875 272.113281 L 697.910156 272.457031 L 698.34375 272.941406 L 698.722656 273.578125 L 699.042969 274.371094 L 699.300781 275.320312 L 699.488281 276.433594 L 699.605469 277.710938 L 699.644531 279.164062 L 699.605469 280.632812 L 699.488281 281.925781 L 699.300781 283.054688 L 699.042969 284.015625 L 698.722656 284.816406 L 698.34375 285.464844 L 697.910156 285.960938 L 697.421875 286.308594 L 696.886719 286.515625 Z M 696.308594 286.582031 "/>
<path style=" stroke:none;fill-rule:nonzero;fill:rgb(0%,0%,0%);fill-opacity:1;" d="M 32.871094 161.558594 L 32.847656 160.859375 L 32.773438 160.1875 L 32.652344 159.546875 L 32.492188 158.9375 L 32.292969 158.367188 L 32.058594 157.832031 L 31.792969 157.335938 L 31.496094 156.882812 L 31.175781 156.472656 L 30.832031 156.109375 L 23.441406 156.109375 L 23.441406 161.871094 L 25.289062 161.871094 L 25.289062 158.148438 L 29.894531 158.148438 L 30.082031 158.375 L 30.253906 158.628906 L 30.40625 158.90625 L 30.539062 159.207031 L 30.65625 159.527344 L 30.75 159.863281 L 30.828125 160.214844 L 30.882812 160.574219 L 30.917969 160.945312 L 30.929688 161.316406 L 30.84375 162.402344 L 30.601562 163.386719 L 30.207031 164.261719 L 29.664062 165.027344 L 28.980469 165.679688 L 28.164062 166.21875 L 27.222656 166.644531 L 26.160156 166.949219 L 24.984375 167.136719 L 23.703125 167.199219 L 22.4375 167.128906 L 21.277344 166.929688 L 20.226562 166.605469 L 19.296875 166.160156 L 18.492188 165.605469 L 17.820312 164.941406 L 17.285156 164.179688 L 16.894531 163.328125 L 16.65625 162.386719 L 16.574219 161.367188 L 16.597656 160.847656 L 16.660156 160.363281 L 16.761719 159.914062 L 16.898438 159.5 L 17.066406 159.117188 L 17.261719 158.757812 L 17.480469 158.425781 L 17.722656 158.113281 L 17.980469 157.824219 L 18.257812 157.550781 L 16.816406 156.351562 L 16.492188 156.671875 L 16.175781 157.027344 L 15.867188 157.425781 L 15.582031 157.863281 L 15.320312 158.34375 L 15.089844 158.863281 L 14.898438 159.429688 L 14.753906 160.042969 L 14.664062 160.703125 L 14.632812 161.414062 L 14.734375 162.769531 L 15.035156 164.039062 L 15.53125 165.210938 L 16.210938 166.265625 L 17.070312 167.191406 L 18.101562 167.980469 L 19.292969 168.617188 L 20.640625 169.085938 L 22.136719 169.378906 L 23.777344 169.476562 L 25.417969 169.378906 L 26.914062 169.097656 L 28.257812 168.636719 L 29.445312 168.015625 L 30.464844 167.246094 L 31.316406 166.335938 L 31.988281 165.300781 L 32.472656 164.152344 L 32.773438 162.898438 Z M 32.871094 161.558594 "/>
<path style=" stroke:none;fill-rule:nonzero;fill:rgb(0%,0%,0%);fill-opacity:1;" d="M 32.558594 152.125 L 32.558594 149.941406 L 24.183594 149.941406 L 23.558594 149.667969 L 23.015625 149.371094 L 22.550781 149.054688 L 22.164062 148.722656 L 21.847656 148.378906 L 21.597656 148.027344 L 21.410156 147.675781 L 21.28125 147.328125 L 21.207031 146.984375 L 21.183594 146.652344 L 21.183594 146.5 L 21.191406 146.359375 L 21.199219 146.226562 L 21.210938 146.101562 L 21.230469 145.980469 L 21.25 145.863281 L 21.277344 145.746094 L 21.3125 145.628906 L 21.351562 145.507812 L 21.398438 145.382812 L 19.480469 144.972656 L 19.417969 145.097656 L 19.367188 145.21875 L 19.324219 145.347656 L 19.285156 145.472656 L 19.253906 145.605469 L 19.230469 145.746094 L 19.214844 145.886719 L 19.203125 146.039062 L 19.195312 146.199219 L 19.191406 146.367188 L 19.222656 146.800781 L 19.316406 147.226562 L 19.464844 147.636719 L 19.667969 148.035156 L 19.925781 148.421875 L 20.234375 148.789062 L 20.585938 149.136719 L 20.984375 149.46875 L 21.425781 149.777344 L 21.902344 150.0625 L 21.902344 150.132812 L 19.527344 150.324219 L 19.527344 152.125 Z M 32.558594 152.125 "/>
<path style=" stroke:none;fill-rule:nonzero;fill:rgb(0%,0%,0%);fill-opacity:1;" d="M 32.871094 137.75 L 32.796875 136.804688 L 32.578125 135.894531 L 32.214844 135.035156 L 31.71875 134.242188 L 31.082031 133.527344 L 30.320312 132.910156 L 29.433594 132.40625 L 28.421875 132.023438 L 27.296875 131.785156 L 26.054688 131.703125 L 24.808594 131.785156 L 23.675781 132.023438 L 22.65625 132.40625 L 21.761719 132.910156 L 20.996094 133.527344 L 20.355469 134.242188 L 19.855469 135.035156 L 19.488281 135.894531 L 19.265625 136.804688 L 19.191406 137.75 L 19.265625 138.695312 L 19.488281 139.605469 L 19.855469 140.464844 L 20.355469 141.257812 L 20.996094 141.972656 L 21.761719 142.589844 L 22.65625 143.09375 L 23.675781 143.476562 L 24.808594 143.714844 L 26.054688 143.796875 L 27.296875 143.714844 L 28.421875 143.476562 L 29.433594 143.09375 L 30.320312 142.589844 L 31.082031 141.972656 L 31.71875 141.257812 L 32.214844 140.464844 L 32.578125 139.605469 L 32.796875 138.695312 Z M 31.046875 137.75 L 30.988281 138.402344 L 30.816406 139.007812 L 30.535156 139.558594 L 30.15625 140.050781 L 29.675781 140.480469 L 29.109375 140.839844 L 28.457031 141.128906 L 27.726562 141.34375 L 26.925781 141.472656 L 26.054688 141.519531 L 25.1875 141.472656 L 24.378906 141.34375 L 23.644531 141.128906 L 22.984375 140.839844 L 22.410156 140.480469 L 21.925781 140.050781 L 21.539062 139.558594 L 21.253906 139.007812 L 21.074219 138.402344 L 21.015625 137.75 L 21.074219 137.09375 L 21.253906 136.488281 L 21.539062 135.9375 L 21.925781 135.441406 L 22.410156 135.007812 L 22.984375 134.644531 L 23.644531 134.351562 L 24.378906 134.136719 L 25.1875 134.003906 L 26.054688 133.957031 L 26.925781 134.003906 L 27.726562 134.136719 L 28.457031 134.351562 L 29.109375 134.644531 L 29.675781 135.007812 L 30.15625 135.441406 L 30.535156 135.9375 L 30.816406 136.488281 L 30.988281 137.09375 Z M 31.046875 137.75 "/>
<path style=" stroke:none;fill-rule:nonzero;fill:rgb(0%,0%,0%);fill-opacity:1;" d="M 32.871094 124.476562 L 32.84375 123.953125 L 32.761719 123.453125 L 32.632812 122.984375 L 32.453125 122.53125 L 32.226562 122.101562 L 31.960938 121.6875 L 31.652344 121.289062 L 31.308594 120.90625 L 30.929688 120.527344 L 30.519531 120.15625 L 30.519531 120.085938 L 32.558594 119.917969 L 32.558594 118.09375 L 19.527344 118.09375 L 19.527344 120.277344 L 28.769531 120.277344 L 29.207031 120.644531 L 29.597656 120.996094 L 29.933594 121.335938 L 30.21875 121.671875 L 30.457031 122.007812 L 30.648438 122.34375 L 30.792969 122.6875 L 30.894531 123.042969 L 30.957031 123.414062 L 30.976562 123.804688 L 30.945312 124.292969 L 30.847656 124.722656 L 30.6875 125.097656 L 30.457031 125.414062 L 30.15625 125.679688 L 29.785156 125.890625 L 29.335938 126.050781 L 28.808594 126.164062 L 28.207031 126.230469 L 27.519531 126.253906 L 19.527344 126.253906 L 19.527344 128.4375 L 27.785156 128.4375 L 28.730469 128.402344 L 29.585938 128.289062 L 30.34375 128.101562 L 31.003906 127.832031 L 31.570312 127.484375 L 32.035156 127.054688 L 32.398438 126.539062 L 32.660156 125.941406 L 32.820312 125.253906 Z M 32.871094 124.476562 "/>
<path style=" stroke:none;fill-rule:nonzero;fill:rgb(0%,0%,0%);fill-opacity:1;" d="M 38.054688 113.703125 L 38.054688 111.519531 L 33.640625 111.519531 L 31.359375 111.566406 L 31.636719 111.210938 L 31.886719 110.851562 L 32.109375 110.492188 L 32.308594 110.128906 L 32.476562 109.765625 L 32.617188 109.402344 L 32.726562 109.039062 L 32.808594 108.679688 L 32.855469 108.320312 L 32.871094 107.964844 L 32.796875 107.078125 L 32.570312 106.226562 L 32.195312 105.417969 L 31.683594 104.675781 L 31.03125 104.007812 L 30.242188 103.433594 L 29.328125 102.957031 L 28.285156 102.601562 L 27.121094 102.378906 L 25.839844 102.300781 L 24.679688 102.355469 L 23.609375 102.519531 L 22.636719 102.785156 L 21.769531 103.160156 L 21.011719 103.632812 L 20.378906 104.210938 L 19.871094 104.882812 L 19.5 105.65625 L 19.269531 106.523438 L 19.191406 107.484375 L 19.21875 107.9375 L 19.289062 108.386719 L 19.40625 108.828125 L 19.558594 109.261719 L 19.742188 109.6875 L 19.960938 110.105469 L 20.199219 110.507812 L 20.457031 110.898438 L 20.730469 111.277344 L 21.015625 111.636719 L 21.015625 111.710938 L 19.527344 111.902344 L 19.527344 113.703125 Z M 31.046875 108.324219 L 31.035156 108.59375 L 31.003906 108.875 L 30.941406 109.175781 L 30.855469 109.484375 L 30.742188 109.804688 L 30.597656 110.136719 L 30.421875 110.472656 L 30.210938 110.816406 L 29.964844 111.167969 L 29.679688 111.519531 L 22.839844 111.519531 L 22.503906 111.140625 L 22.203125 110.769531 L 21.933594 110.410156 L 21.699219 110.054688 L 21.5 109.703125 L 21.335938 109.359375 L 21.207031 109.015625 L 21.113281 108.679688 L 21.058594 108.347656 L 21.039062 108.015625 L 21.097656 107.316406 L 21.265625 106.707031 L 21.539062 106.183594 L 21.910156 105.738281 L 22.371094 105.371094 L 22.921875 105.078125 L 23.550781 104.855469 L 24.257812 104.703125 L 25.027344 104.613281 L 25.863281 104.582031 L 26.796875 104.628906 L 27.648438 104.765625 L 28.414062 104.984375 L 29.089844 105.277344 L 29.671875 105.644531 L 30.15625 106.074219 L 30.539062 106.566406 L 30.820312 107.105469 L 30.992188 107.695312 Z M 31.046875 108.324219 "/>
<path style=" stroke:none;fill-rule:nonzero;fill:rgb(0%,62.352941%,54.901961%);fill-opacity:1;" d="M 268.160156 341.90625 L 290.207031 341.90625 L 290.207031 319.859375 L 268.160156 319.859375 Z M 268.160156 341.90625 "/>
<path style=" stroke:none;fill-rule:nonzero;fill:rgb(71.764706%,36.078431%,61.568627%);fill-opacity:1;" d="M 408.652344 341.90625 L 430.703125 341.90625 L 430.703125 319.859375 L 408.652344 319.859375 Z M 408.652344 341.90625 "/>
<path style=" stroke:none;fill-rule:nonzero;fill:rgb(0%,0%,0%);fill-opacity:1;" d="M 313.992188 339.140625 L 316.085938 339.140625 L 316.085938 324.402344 L 321.078125 324.402344 L 321.078125 322.625 L 308.996094 322.625 L 308.996094 324.402344 L 313.992188 324.402344 Z M 313.992188 339.140625 "/>
<path style=" stroke:none;fill-rule:nonzero;fill:rgb(0%,0%,0%);fill-opacity:1;" d="M 323.847656 339.140625 L 325.894531 339.140625 L 325.894531 331.289062 L 326.152344 330.699219 L 326.429688 330.191406 L 326.726562 329.757812 L 327.039062 329.394531 L 327.359375 329.097656 L 327.6875 328.863281 L 328.019531 328.6875 L 328.347656 328.566406 L 328.667969 328.496094 L 328.976562 328.476562 L 329.121094 328.476562 L 329.253906 328.480469 L 329.375 328.488281 L 329.496094 328.5 L 329.609375 328.515625 L 329.71875 328.539062 L 329.828125 328.566406 L 329.9375 328.597656 L 330.050781 328.632812 L 330.171875 328.679688 L 330.550781 326.878906 L 330.4375 326.820312 L 330.320312 326.773438 L 330.203125 326.730469 L 330.082031 326.695312 L 329.960938 326.667969 L 329.828125 326.644531 L 329.695312 326.628906 L 329.554688 326.617188 L 329.40625 326.609375 L 329.246094 326.609375 L 328.839844 326.636719 L 328.441406 326.722656 L 328.054688 326.863281 L 327.679688 327.054688 L 327.320312 327.296875 L 326.976562 327.585938 L 326.648438 327.917969 L 326.339844 328.289062 L 326.050781 328.703125 L 325.78125 329.148438 L 325.714844 329.148438 L 325.535156 326.921875 L 323.847656 326.921875 Z M 323.847656 339.140625 "/>
<path style=" stroke:none;fill-rule:nonzero;fill:rgb(0%,0%,0%);fill-opacity:1;" d="M 337.503906 339.433594 L 337.992188 339.417969 L 338.460938 339.367188 L 338.910156 339.292969 L 339.339844 339.191406 L 339.75 339.0625 L 340.140625 338.917969 L 340.519531 338.753906 L 340.878906 338.570312 L 341.222656 338.378906 L 341.554688 338.171875 L 340.8125 336.824219 L 340.539062 336.996094 L 340.261719 337.15625 L 339.980469 337.300781 L 339.691406 337.425781 L 339.390625 337.535156 L 339.085938 337.625 L 338.769531 337.695312 L 338.441406 337.746094 L 338.105469 337.78125 L 337.753906 337.789062 L 337.078125 337.742188 L 336.453125 337.597656 L 335.882812 337.359375 L 335.363281 337.039062 L 334.910156 336.632812 L 334.519531 336.148438 L 334.199219 335.589844 L 333.953125 334.960938 L 333.785156 334.269531 L 333.703125 333.515625 L 341.9375 333.515625 L 341.949219 333.421875 L 341.964844 333.324219 L 341.976562 333.21875 L 341.988281 333.105469 L 342 332.988281 L 342.007812 332.867188 L 342.015625 332.742188 L 342.023438 332.613281 L 342.027344 332.480469 L 342.027344 332.34375 L 341.976562 331.335938 L 341.820312 330.410156 L 341.566406 329.566406 L 341.210938 328.820312 L 340.761719 328.167969 L 340.21875 327.621094 L 339.585938 327.1875 L 338.867188 326.871094 L 338.058594 326.675781 L 337.167969 326.609375 L 336.324219 326.679688 L 335.503906 326.898438 L 334.726562 327.25 L 334.003906 327.734375 L 333.347656 328.339844 L 332.777344 329.066406 L 332.308594 329.90625 L 331.957031 330.851562 L 331.734375 331.898438 L 331.65625 333.042969 L 331.730469 334.199219 L 331.953125 335.253906 L 332.304688 336.199219 L 332.78125 337.03125 L 333.363281 337.75 L 334.046875 338.34375 L 334.8125 338.8125 L 335.652344 339.15625 L 336.554688 339.363281 Z M 333.679688 332.03125 L 333.792969 331.34375 L 333.972656 330.722656 L 334.21875 330.160156 L 334.523438 329.667969 L 334.878906 329.246094 L 335.277344 328.894531 L 335.714844 328.617188 L 336.183594 328.414062 L 336.675781 328.292969 L 337.191406 328.25 L 337.738281 328.289062 L 338.242188 328.40625 L 338.691406 328.601562 L 339.085938 328.875 L 339.425781 329.21875 L 339.710938 329.640625 L 339.933594 330.132812 L 340.09375 330.695312 L 340.195312 331.328125 L 340.226562 332.03125 Z M 333.679688 332.03125 "/>
<path style=" stroke:none;fill-rule:nonzero;fill:rgb(0%,0%,0%);fill-opacity:1;" d="M 347.855469 339.433594 L 348.304688 339.410156 L 348.742188 339.34375 L 349.171875 339.238281 L 349.59375 339.09375 L 350.007812 338.917969 L 350.40625 338.714844 L 350.800781 338.484375 L 351.179688 338.230469 L 351.546875 337.960938 L 351.90625 337.679688 L 351.972656 337.679688 L 352.152344 339.140625 L 353.839844 339.140625 L 353.839844 331.625 L 353.800781 330.753906 L 353.683594 329.945312 L 353.488281 329.210938 L 353.207031 328.558594 L 352.839844 327.984375 L 352.382812 327.503906 L 351.832031 327.121094 L 351.191406 326.839844 L 350.449219 326.667969 L 349.609375 326.609375 L 349.03125 326.632812 L 348.464844 326.703125 L 347.917969 326.816406 L 347.394531 326.960938 L 346.890625 327.136719 L 346.414062 327.332031 L 345.960938 327.542969 L 345.539062 327.761719 L 345.148438 327.984375 L 344.796875 328.207031 L 345.605469 329.621094 L 345.90625 329.425781 L 346.222656 329.238281 L 346.554688 329.054688 L 346.90625 328.882812 L 347.269531 328.726562 L 347.648438 328.589844 L 348.039062 328.476562 L 348.441406 328.390625 L 348.851562 328.335938 L 349.273438 328.316406 L 349.828125 328.363281 L 350.304688 328.488281 L 350.699219 328.6875 L 351.023438 328.949219 L 351.285156 329.269531 L 351.480469 329.636719 L 351.625 330.039062 L 351.722656 330.476562 L 351.777344 330.929688 L 351.792969 331.398438 L 350.320312 331.597656 L 349.015625 331.84375 L 347.878906 332.144531 L 346.902344 332.496094 L 346.085938 332.90625 L 345.425781 333.382812 L 344.917969 333.921875 L 344.558594 334.53125 L 344.347656 335.210938 L 344.277344 335.96875 L 344.324219 336.601562 L 344.453125 337.175781 L 344.664062 337.6875 L 344.945312 338.140625 L 345.296875 338.527344 L 345.710938 338.847656 L 346.179688 339.101562 L 346.695312 339.285156 L 347.257812 339.394531 Z M 348.441406 337.789062 L 348.085938 337.773438 L 347.75 337.71875 L 347.4375 337.632812 L 347.15625 337.503906 L 346.90625 337.335938 L 346.691406 337.125 L 346.515625 336.871094 L 346.386719 336.570312 L 346.308594 336.226562 L 346.28125 335.832031 L 346.324219 335.378906 L 346.457031 334.953125 L 346.691406 334.566406 L 347.035156 334.210938 L 347.492188 333.886719 L 348.074219 333.59375 L 348.785156 333.335938 L 349.636719 333.109375 L 350.636719 332.914062 L 351.792969 332.75 L 351.792969 336.171875 L 351.441406 336.472656 L 351.101562 336.746094 L 350.769531 336.988281 L 350.441406 337.199219 L 350.117188 337.375 L 349.792969 337.523438 L 349.464844 337.640625 L 349.132812 337.722656 L 348.792969 337.773438 Z M 348.441406 337.789062 "/>
<path style=" stroke:none;fill-rule:nonzero;fill:rgb(0%,0%,0%);fill-opacity:1;" d="M 361.578125 339.433594 L 361.804688 339.425781 L 362.03125 339.40625 L 362.261719 339.378906 L 362.492188 339.339844 L 362.722656 339.292969 L 362.949219 339.238281 L 363.175781 339.179688 L 363.398438 339.117188 L 363.617188 339.050781 L 363.828125 338.984375 L 363.425781 337.453125 L 363.300781 337.5 L 363.164062 337.546875 L 363.027344 337.589844 L 362.882812 337.632812 L 362.734375 337.667969 L 362.589844 337.703125 L 362.441406 337.730469 L 362.300781 337.75 L 362.160156 337.761719 L 362.03125 337.769531 L 361.632812 337.742188 L 361.289062 337.667969 L 360.996094 337.542969 L 360.753906 337.371094 L 360.554688 337.152344 L 360.398438 336.886719 L 360.28125 336.582031 L 360.199219 336.230469 L 360.15625 335.835938 L 360.140625 335.40625 L 360.140625 328.585938 L 363.449219 328.585938 L 363.449219 326.921875 L 360.140625 326.921875 L 360.140625 323.480469 L 358.429688 323.480469 L 358.183594 326.921875 L 356.269531 327.035156 L 356.269531 328.585938 L 358.09375 328.585938 L 358.09375 335.359375 L 358.121094 336.066406 L 358.203125 336.71875 L 358.351562 337.3125 L 358.570312 337.84375 L 358.859375 338.308594 L 359.226562 338.699219 L 359.675781 339.011719 L 360.214844 339.242188 L 360.847656 339.382812 Z M 361.578125 339.433594 "/>
<path style=" stroke:none;fill-rule:nonzero;fill:rgb(0%,0%,0%);fill-opacity:1;" d="M 371.140625 339.433594 L 371.632812 339.417969 L 372.097656 339.367188 L 372.546875 339.292969 L 372.976562 339.191406 L 373.386719 339.0625 L 373.78125 338.917969 L 374.15625 338.753906 L 374.515625 338.570312 L 374.863281 338.378906 L 375.191406 338.171875 L 374.449219 336.824219 L 374.179688 336.996094 L 373.902344 337.15625 L 373.617188 337.300781 L 373.328125 337.425781 L 373.03125 337.535156 L 372.722656 337.625 L 372.40625 337.695312 L 372.078125 337.746094 L 371.742188 337.78125 L 371.390625 337.789062 L 370.71875 337.742188 L 370.09375 337.597656 L 369.519531 337.359375 L 369.003906 337.039062 L 368.546875 336.632812 L 368.15625 336.148438 L 367.835938 335.589844 L 367.589844 334.960938 L 367.421875 334.269531 L 367.339844 333.515625 L 375.574219 333.515625 L 375.589844 333.421875 L 375.601562 333.324219 L 375.613281 333.21875 L 375.625 333.105469 L 375.636719 332.988281 L 375.644531 332.867188 L 375.652344 332.742188 L 375.660156 332.613281 L 375.664062 332.480469 L 375.664062 332.34375 L 375.613281 331.335938 L 375.457031 330.410156 L 375.203125 329.566406 L 374.847656 328.820312 L 374.398438 328.167969 L 373.855469 327.621094 L 373.222656 327.1875 L 372.503906 326.871094 L 371.695312 326.675781 L 370.804688 326.609375 L 369.960938 326.679688 L 369.144531 326.898438 L 368.363281 327.25 L 367.640625 327.734375 L 366.984375 328.339844 L 366.417969 329.066406 L 365.949219 329.90625 L 365.59375 330.851562 L 365.371094 331.898438 L 365.292969 333.042969 L 365.367188 334.199219 L 365.589844 335.253906 L 365.945312 336.199219 L 366.417969 337.03125 L 367.003906 337.75 L 367.683594 338.34375 L 368.449219 338.8125 L 369.289062 339.15625 L 370.191406 339.363281 Z M 367.316406 332.03125 L 367.429688 331.34375 L 367.609375 330.722656 L 367.855469 330.160156 L 368.160156 329.667969 L 368.515625 329.246094 L 368.914062 328.894531 L 369.351562 328.617188 L 369.820312 328.414062 L 370.316406 328.292969 L 370.828125 328.25 L 371.378906 328.289062 L 371.878906 328.40625 L 372.328125 328.601562 L 372.722656 328.875 L 373.0625 329.21875 L 373.347656 329.640625 L 373.570312 330.132812 L 373.734375 330.695312 L 373.832031 331.328125 L 373.863281 332.03125 Z M 367.316406 332.03125 "/>
<path style=" stroke:none;fill-rule:nonzero;fill:rgb(0%,0%,0%);fill-opacity:1;" d="M 382.84375 339.433594 L 383.277344 339.410156 L 383.699219 339.34375 L 384.105469 339.238281 L 384.503906 339.09375 L 384.882812 338.921875 L 385.25 338.71875 L 385.601562 338.492188 L 385.9375 338.242188 L 386.253906 337.976562 L 386.554688 337.699219 L 386.621094 337.699219 L 386.800781 339.140625 L 388.46875 339.140625 L 388.46875 321.230469 L 386.441406 321.230469 L 386.441406 325.933594 L 386.53125 328.046875 L 386.210938 327.789062 L 385.898438 327.550781 L 385.585938 327.339844 L 385.269531 327.152344 L 384.945312 326.992188 L 384.613281 326.855469 L 384.265625 326.75 L 383.898438 326.671875 L 383.507812 326.625 L 383.089844 326.609375 L 382.265625 326.679688 L 381.46875 326.898438 L 380.71875 327.25 L 380.023438 327.734375 L 379.398438 328.339844 L 378.859375 329.066406 L 378.417969 329.90625 L 378.085938 330.851562 L 377.875 331.898438 L 377.800781 333.042969 L 377.859375 334.210938 L 378.03125 335.269531 L 378.3125 336.21875 L 378.695312 337.050781 L 379.175781 337.765625 L 379.746094 338.355469 L 380.40625 338.824219 L 381.144531 339.160156 L 381.957031 339.363281 Z M 383.292969 337.722656 L 382.671875 337.671875 L 382.113281 337.515625 L 381.609375 337.265625 L 381.171875 336.917969 L 380.796875 336.476562 L 380.484375 335.949219 L 380.238281 335.335938 L 380.0625 334.640625 L 379.953125 333.867188 L 379.917969 333.019531 L 379.964844 332.210938 L 380.09375 331.460938 L 380.304688 330.777344 L 380.589844 330.167969 L 380.941406 329.632812 L 381.351562 329.183594 L 381.8125 328.824219 L 382.324219 328.558594 L 382.871094 328.394531 L 383.449219 328.339844 L 383.75 328.351562 L 384.046875 328.386719 L 384.34375 328.441406 L 384.636719 328.527344 L 384.929688 328.636719 L 385.222656 328.773438 L 385.519531 328.9375 L 385.824219 329.136719 L 386.128906 329.363281 L 386.441406 329.621094 L 386.441406 336.035156 L 386.132812 336.355469 L 385.824219 336.644531 L 385.519531 336.894531 L 385.210938 337.117188 L 384.902344 337.300781 L 384.589844 337.453125 L 384.273438 337.570312 L 383.953125 337.65625 L 383.625 337.707031 Z M 383.292969 337.722656 "/>
<path style=" stroke:none;fill-rule:nonzero;fill:rgb(0%,0%,0%);fill-opacity:1;" d="M 457.277344 339.433594 L 457.902344 339.40625 L 458.5 339.332031 L 459.066406 339.207031 L 459.605469 339.035156 L 460.121094 338.816406 L 460.609375 338.554688 L 461.074219 338.246094 L 461.515625 337.894531 L 461.9375 337.503906 L 462.339844 337.070312 L 461.191406 335.765625 L 460.871094 336.097656 L 460.539062 336.398438 L 460.195312 336.667969 L 459.84375 336.910156 L 459.472656 337.117188 L 459.089844 337.292969 L 458.6875 337.429688 L 458.269531 337.527344 L 457.828125 337.589844 L 457.367188 337.609375 L 456.457031 337.53125 L 455.625 337.304688 L 454.871094 336.933594 L 454.199219 336.425781 L 453.621094 335.785156 L 453.136719 335.019531 L 452.75 334.136719 L 452.46875 333.140625 L 452.296875 332.039062 L 452.238281 330.835938 L 452.296875 329.648438 L 452.476562 328.5625 L 452.769531 327.578125 L 453.164062 326.707031 L 453.664062 325.953125 L 454.253906 325.320312 L 454.933594 324.820312 L 455.691406 324.453125 L 456.527344 324.230469 L 457.433594 324.15625 L 457.851562 324.175781 L 458.246094 324.230469 L 458.625 324.320312 L 458.988281 324.445312 L 459.332031 324.597656 L 459.660156 324.777344 L 459.972656 324.984375 L 460.265625 325.210938 L 460.546875 325.460938 L 460.808594 325.730469 L 461.933594 324.378906 L 461.632812 324.066406 L 461.292969 323.761719 L 460.917969 323.472656 L 460.511719 323.203125 L 460.070312 322.960938 L 459.597656 322.75 L 459.09375 322.574219 L 458.558594 322.445312 L 458 322.363281 L 457.410156 322.332031 L 456.191406 322.429688 L 455.042969 322.710938 L 453.988281 323.175781 L 453.03125 323.816406 L 452.1875 324.621094 L 451.46875 325.585938 L 450.886719 326.703125 L 450.457031 327.964844 L 450.191406 329.371094 L 450.097656 330.90625 L 450.191406 332.445312 L 450.453125 333.847656 L 450.875 335.109375 L 451.445312 336.21875 L 452.152344 337.175781 L 452.980469 337.972656 L 453.921875 338.601562 L 454.957031 339.058594 L 456.082031 339.339844 Z M 457.277344 339.433594 "/>
<path style=" stroke:none;fill-rule:nonzero;fill:rgb(0%,0%,0%);fill-opacity:1;" d="M 469.96875 339.433594 L 470.851562 339.363281 L 471.707031 339.15625 L 472.511719 338.816406 L 473.253906 338.351562 L 473.925781 337.757812 L 474.503906 337.042969 L 474.976562 336.210938 L 475.335938 335.261719 L 475.558594 334.207031 L 475.636719 333.042969 L 475.558594 331.871094 L 475.335938 330.808594 L 474.976562 329.855469 L 474.503906 329.019531 L 473.925781 328.296875 L 473.253906 327.699219 L 472.511719 327.226562 L 471.707031 326.886719 L 470.851562 326.679688 L 469.96875 326.609375 L 469.082031 326.679688 L 468.226562 326.886719 L 467.421875 327.226562 L 466.679688 327.699219 L 466.007812 328.296875 L 465.429688 329.019531 L 464.957031 329.855469 L 464.597656 330.808594 L 464.375 331.871094 L 464.296875 333.042969 L 464.375 334.207031 L 464.597656 335.261719 L 464.957031 336.210938 L 465.429688 337.042969 L 466.007812 337.757812 L 466.679688 338.351562 L 467.421875 338.816406 L 468.226562 339.15625 L 469.082031 339.363281 Z M 469.96875 337.722656 L 469.355469 337.667969 L 468.789062 337.507812 L 468.269531 337.242188 L 467.808594 336.886719 L 467.40625 336.4375 L 467.070312 335.90625 L 466.796875 335.292969 L 466.597656 334.609375 L 466.476562 333.855469 L 466.433594 333.042969 L 466.476562 332.226562 L 466.597656 331.472656 L 466.796875 330.78125 L 467.070312 330.164062 L 467.40625 329.625 L 467.808594 329.171875 L 468.269531 328.808594 L 468.789062 328.539062 L 469.355469 328.375 L 469.96875 328.316406 L 470.582031 328.375 L 471.148438 328.539062 L 471.667969 328.808594 L 472.132812 329.171875 L 472.539062 329.625 L 472.878906 330.164062 L 473.152344 330.78125 L 473.355469 331.472656 L 473.480469 332.226562 L 473.523438 333.042969 L 473.480469 333.855469 L 473.355469 334.609375 L 473.152344 335.292969 L 472.878906 335.90625 L 472.539062 336.4375 L 472.132812 336.886719 L 471.667969 337.242188 L 471.148438 337.507812 L 470.582031 337.667969 Z M 469.96875 337.722656 "/>
<path style=" stroke:none;fill-rule:nonzero;fill:rgb(0%,0%,0%);fill-opacity:1;" d="M 478.855469 339.140625 L 480.902344 339.140625 L 480.902344 330.273438 L 481.261719 329.921875 L 481.605469 329.605469 L 481.933594 329.328125 L 482.253906 329.082031 L 482.570312 328.878906 L 482.886719 328.707031 L 483.207031 328.578125 L 483.539062 328.484375 L 483.886719 328.425781 L 484.253906 328.40625 L 484.714844 328.4375 L 485.117188 328.527344 L 485.46875 328.679688 L 485.769531 328.894531 L 486.019531 329.179688 L 486.222656 329.53125 L 486.378906 329.953125 L 486.488281 330.449219 L 486.550781 331.019531 L 486.570312 331.671875 L 486.570312 339.140625 L 488.621094 339.140625 L 488.621094 331.398438 L 488.585938 330.507812 L 488.476562 329.699219 L 488.296875 328.984375 L 488.042969 328.363281 L 487.714844 327.832031 L 487.308594 327.394531 L 486.824219 327.050781 L 486.257812 326.804688 L 485.613281 326.65625 L 484.882812 326.609375 L 484.398438 326.636719 L 483.929688 326.714844 L 483.488281 326.839844 L 483.0625 327.007812 L 482.652344 327.210938 L 482.257812 327.453125 L 481.875 327.726562 L 481.503906 328.023438 L 481.144531 328.339844 L 480.789062 328.679688 L 480.722656 328.679688 L 480.542969 326.921875 L 478.855469 326.921875 Z M 478.855469 339.140625 "/>
<path style=" stroke:none;fill-rule:nonzero;fill:rgb(0%,0%,0%);fill-opacity:1;" d="M 496.449219 339.433594 L 496.675781 339.425781 L 496.902344 339.40625 L 497.132812 339.378906 L 497.359375 339.339844 L 497.589844 339.292969 L 497.820312 339.238281 L 498.046875 339.179688 L 498.269531 339.117188 L 498.488281 339.050781 L 498.699219 338.984375 L 498.292969 337.453125 L 498.167969 337.5 L 498.035156 337.546875 L 497.894531 337.589844 L 497.75 337.632812 L 497.605469 337.667969 L 497.457031 337.703125 L 497.3125 337.730469 L 497.167969 337.75 L 497.03125 337.761719 L 496.898438 337.769531 L 496.503906 337.742188 L 496.160156 337.667969 L 495.867188 337.542969 L 495.621094 337.371094 L 495.421875 337.152344 L 495.265625 336.886719 L 495.148438 336.582031 L 495.070312 336.230469 L 495.023438 335.835938 L 495.007812 335.40625 L 495.007812 328.585938 L 498.316406 328.585938 L 498.316406 326.921875 L 495.007812 326.921875 L 495.007812 323.480469 L 493.300781 323.480469 L 493.050781 326.921875 L 491.140625 327.035156 L 491.140625 328.585938 L 492.960938 328.585938 L 492.960938 335.359375 L 492.988281 336.066406 L 493.074219 336.71875 L 493.222656 337.3125 L 493.4375 337.84375 L 493.726562 338.308594 L 494.09375 338.699219 L 494.546875 339.011719 L 495.085938 339.242188 L 495.71875 339.382812 Z M 496.449219 339.433594 "/>
<path style=" stroke:none;fill-rule:nonzero;fill:rgb(0%,0%,0%);fill-opacity:1;" d="M 501.085938 339.140625 L 503.132812 339.140625 L 503.132812 331.289062 L 503.386719 330.699219 L 503.667969 330.191406 L 503.964844 329.757812 L 504.273438 329.394531 L 504.597656 329.097656 L 504.925781 328.863281 L 505.253906 328.6875 L 505.582031 328.566406 L 505.902344 328.496094 L 506.214844 328.476562 L 506.355469 328.476562 L 506.488281 328.480469 L 506.613281 328.488281 L 506.730469 328.5 L 506.84375 328.515625 L 506.953125 328.539062 L 507.0625 328.566406 L 507.175781 328.597656 L 507.289062 328.632812 L 507.40625 328.679688 L 507.789062 326.878906 L 507.675781 326.820312 L 507.558594 326.773438 L 507.441406 326.730469 L 507.320312 326.695312 L 507.195312 326.667969 L 507.066406 326.644531 L 506.933594 326.628906 L 506.789062 326.617188 L 506.640625 326.609375 L 506.484375 326.609375 L 506.078125 326.636719 L 505.679688 326.722656 L 505.292969 326.863281 L 504.917969 327.054688 L 504.558594 327.296875 L 504.214844 327.585938 L 503.886719 327.917969 L 503.578125 328.289062 L 503.289062 328.703125 L 503.019531 329.148438 L 502.953125 329.148438 L 502.773438 326.921875 L 501.085938 326.921875 Z M 501.085938 339.140625 "/>
<path style=" stroke:none;fill-rule:nonzero;fill:rgb(0%,0%,0%);fill-opacity:1;" d="M 514.5625 339.433594 L 515.449219 339.363281 L 516.300781 339.15625 L 517.105469 338.816406 L 517.851562 338.351562 L 518.519531 337.757812 L 519.097656 337.042969 L 519.574219 336.210938 L 519.929688 335.261719 L 520.152344 334.207031 L 520.230469 333.042969 L 520.152344 331.871094 L 519.929688 330.808594 L 519.574219 329.855469 L 519.097656 329.019531 L 518.519531 328.296875 L 517.851562 327.699219 L 517.105469 327.226562 L 516.300781 326.886719 L 515.449219 326.679688 L 514.5625 326.609375 L 513.675781 326.679688 L 512.824219 326.886719 L 512.015625 327.226562 L 511.273438 327.699219 L 510.605469 328.296875 L 510.027344 329.019531 L 509.550781 329.855469 L 509.195312 330.808594 L 508.96875 331.871094 L 508.890625 333.042969 L 508.96875 334.207031 L 509.195312 335.261719 L 509.550781 336.210938 L 510.027344 337.042969 L 510.605469 337.757812 L 511.273438 338.351562 L 512.015625 338.816406 L 512.824219 339.15625 L 513.675781 339.363281 Z M 514.5625 337.722656 L 513.949219 337.667969 L 513.382812 337.507812 L 512.867188 337.242188 L 512.40625 336.886719 L 512.003906 336.4375 L 511.664062 335.90625 L 511.394531 335.292969 L 511.195312 334.609375 L 511.070312 333.855469 L 511.03125 333.042969 L 511.070312 332.226562 L 511.195312 331.472656 L 511.394531 330.78125 L 511.664062 330.164062 L 512.003906 329.625 L 512.40625 329.171875 L 512.867188 328.808594 L 513.382812 328.539062 L 513.949219 328.375 L 514.5625 328.316406 L 515.175781 328.375 L 515.742188 328.539062 L 516.261719 328.808594 L 516.726562 329.171875 L 517.132812 329.625 L 517.476562 330.164062 L 517.75 330.78125 L 517.949219 331.472656 L 518.074219 332.226562 L 518.117188 333.042969 L 518.074219 333.855469 L 517.949219 334.609375 L 517.75 335.292969 L 517.476562 335.90625 L 517.132812 336.4375 L 516.726562 336.886719 L 516.261719 337.242188 L 515.742188 337.507812 L 515.175781 337.667969 Z M 514.5625 337.722656 "/>
<path style=" stroke:none;fill-rule:nonzero;fill:rgb(0%,0%,0%);fill-opacity:1;" d="M 525.609375 339.433594 L 525.773438 339.429688 L 525.921875 339.425781 L 526.058594 339.414062 L 526.1875 339.402344 L 526.308594 339.386719 L 526.417969 339.363281 L 526.523438 339.339844 L 526.621094 339.316406 L 526.800781 339.253906 L 526.507812 337.679688 L 526.445312 337.691406 L 526.390625 337.699219 L 526.339844 337.707031 L 526.292969 337.714844 L 526.253906 337.71875 L 526.214844 337.71875 L 526.179688 337.722656 L 526.082031 337.722656 L 525.988281 337.714844 L 525.898438 337.691406 L 525.816406 337.652344 L 525.738281 337.59375 L 525.671875 337.519531 L 525.613281 337.425781 L 525.5625 337.3125 L 525.527344 337.179688 L 525.503906 337.023438 L 525.496094 336.84375 L 525.496094 321.230469 L 523.449219 321.230469 L 523.449219 336.710938 L 523.46875 337.207031 L 523.527344 337.660156 L 523.625 338.0625 L 523.769531 338.417969 L 523.957031 338.722656 L 524.1875 338.972656 L 524.46875 339.171875 L 524.796875 339.316406 L 525.175781 339.402344 Z M 525.609375 339.433594 "/>
</g>
</svg>
