<?xml version="1.0" encoding="UTF-8"?>
<svg xmlns="http://www.w3.org/2000/svg" xmlns:xlink="http://www.w3.org/1999/xlink" width="720pt" height="360pt" viewBox="0 0 720 360" version="1.1">
<defs>
<clipPath id="clip1">
  <path d="M 92.792969 260 L 705.054688 260 L 705.054688 264 L 92.792969 264 Z M 92.792969 260 "/>
</clipPath>
<clipPath id="clip2">
  <path d="M 92.792969 177 L 705.054688 177 L 705.054688 181 L 92.792969 181 Z M 92.792969 177 "/>
</clipPath>
<clipPath id="clip3">
  <path d="M 92.792969 94 L 705.054688 94 L 705.054688 98 L 92.792969 98 Z M 92.792969 94 "/>
</clipPath>
<clipPath id="clip4">
  <path d="M 268 14.945312 L 270 14.945312 L 270 279.394531 L 268 279.394531 Z M 268 14.945312 "/>
</clipPath>
<clipPath id="clip5">
  <path d="M 92.792969 261 L 705.054688 261 L 705.054688 263 L 92.792969 263 Z M 92.792969 261 "/>
</clipPath>
</defs>
<g id="surface10">
<rect x="0" y="0" width="720" height="360" style="fill:rgb(100%,100%,100%);fill-opacity:1;stroke:none;"/>
<g clip-path="url(#clip1)" clip-rule="nonzero">
<path style="fill:none;stroke-width:2.909941;stroke-linecap:butt;stroke-linejoin:round;stroke:rgb(92.156863%,92.156863%,92.156863%);stroke-opacity:1;stroke-miterlimit:10;" d="M 92.792969 261.90625 L 705.054688 261.90625 "/>
</g>
<g clip-path="url(#clip2)" clip-rule="nonzero">
<path style="fill:none;stroke-width:2.909941;stroke-linecap:butt;stroke-linejoin:round;stroke:rgb(92.156863%,92.156863%,92.156863%);stroke-opacity:1;stroke-miterlimit:10;" d="M 92.792969 178.914062 L 705.054688 178.914062 "/>
</g>
<g clip-path="url(#clip3)" clip-rule="nonzero">
<path style="fill:none;stroke-width:2.909941;stroke-linecap:butt;stroke-linejoin:round;stroke:rgb(92.156863%,92.156863%,92.156863%);stroke-opacity:1;stroke-miterlimit:10;" d="M 92.792969 95.917969 L 705.054688 95.917969 "/>
</g>
<path style="fill:none;stroke-width:1.066978;stroke-linecap:butt;stroke-linejoin:round;stroke:rgb(0%,62.352941%,54.901961%);stroke-opacity:1;stroke-miterlimit:10;" d="M 120.625 255.308594 L 157.730469 263.480469 L 194.835938 243.226562 L 231.945312 267.371094 L 269.050781 261.90625 L 306.15625 99.207031 L 343.265625 79.710938 L 380.371094 54.015625 L 417.476562 55.710938 L 454.585938 100.371094 L 491.691406 26.964844 L 528.796875 85.703125 L 565.90625 108.121094 L 603.011719 57.835938 L 640.117188 108.402344 L 677.226562 128.417969 "/>
<g clip-path="url(#clip4)" clip-rule="nonzero">
<path style="fill:none;stroke-width:1.066978;stroke-linecap:butt;stroke-linejoin:round;stroke:rgb(0%,0%,0%);stroke-opacity:1;stroke-dasharray:4.267913,4.267913;stroke-miterlimit:10;" d="M 269.050781 279.394531 L 269.050781 14.945312 "/>
</g>
<g clip-path="url(#clip5)" clip-rule="nonzero">
<path style="fill:none;stroke-width:1.066978;stroke-linecap:butt;stroke-linejoin:round;stroke:rgb(0%,0%,0%);stroke-opacity:1;stroke-miterlimit:10;" d="M 92.792969 261.90625 L 705.054688 261.90625 "/>
</g>
<path style=" stroke:none;fill-rule:nonzero;fill:rgb(30.196078%,30.196078%,30.196078%);fill-opacity:1;" d="M 52.703125 271.027344 L 53.667969 270.9375 L 54.554688 270.664062 L 55.355469 270.203125 L 56.070312 269.5625 L 56.691406 268.738281 L 57.210938 267.730469 L 57.625 266.539062 L 57.925781 265.164062 L 58.113281 263.605469 L 58.175781 261.859375 L 58.113281 260.125 L 57.925781 258.574219 L 57.625 257.210938 L 57.210938 256.035156 L 56.691406 255.039062 L 56.070312 254.226562 L 55.355469 253.59375 L 54.554688 253.144531 L 53.667969 252.878906 L 52.703125 252.789062 L 51.734375 252.875 L 50.84375 253.144531 L 50.035156 253.589844 L 49.316406 254.21875 L 48.695312 255.027344 L 48.175781 256.023438 L 47.761719 257.203125 L 47.457031 258.566406 L 47.269531 260.117188 L 47.207031 261.859375 L 47.269531 263.605469 L 47.457031 265.164062 L 47.761719 266.539062 L 48.175781 267.730469 L 48.695312 268.738281 L 49.316406 269.5625 L 50.035156 270.203125 L 50.84375 270.664062 L 51.734375 270.9375 Z M 52.703125 269.277344 L 52.121094 269.207031 L 51.582031 269.003906 L 51.089844 268.652344 L 50.648438 268.160156 L 50.269531 267.511719 L 49.945312 266.710938 L 49.6875 265.75 L 49.5 264.621094 L 49.382812 263.328125 L 49.34375 261.859375 L 49.382812 260.40625 L 49.5 259.125 L 49.6875 258.015625 L 49.945312 257.066406 L 50.269531 256.273438 L 50.648438 255.636719 L 51.089844 255.152344 L 51.582031 254.808594 L 52.121094 254.605469 L 52.703125 254.539062 L 53.28125 254.605469 L 53.816406 254.808594 L 54.304688 255.152344 L 54.738281 255.636719 L 55.117188 256.273438 L 55.4375 257.066406 L 55.695312 258.015625 L 55.882812 259.125 L 56 260.40625 L 56.039062 261.859375 L 56 263.328125 L 55.882812 264.621094 L 55.695312 265.75 L 55.4375 266.710938 L 55.117188 267.511719 L 54.738281 268.160156 L 54.304688 268.652344 L 53.816406 269.003906 L 53.28125 269.207031 Z M 52.703125 269.277344 "/>
<path style=" stroke:none;fill-rule:nonzero;fill:rgb(30.196078%,30.196078%,30.196078%);fill-opacity:1;" d="M 62.6875 271.027344 L 62.941406 271.007812 L 63.183594 270.949219 L 63.410156 270.855469 L 63.617188 270.730469 L 63.804688 270.570312 L 63.964844 270.378906 L 64.09375 270.164062 L 64.191406 269.921875 L 64.25 269.65625 L 64.273438 269.371094 L 64.25 269.078125 L 64.191406 268.808594 L 64.09375 268.558594 L 63.964844 268.335938 L 63.804688 268.140625 L 63.617188 267.976562 L 63.410156 267.84375 L 63.183594 267.75 L 62.941406 267.6875 L 62.6875 267.667969 L 62.433594 267.6875 L 62.191406 267.75 L 61.964844 267.84375 L 61.757812 267.976562 L 61.570312 268.140625 L 61.414062 268.335938 L 61.28125 268.558594 L 61.1875 268.808594 L 61.125 269.078125 L 61.105469 269.371094 L 61.125 269.65625 L 61.1875 269.921875 L 61.28125 270.164062 L 61.414062 270.378906 L 61.570312 270.570312 L 61.757812 270.730469 L 61.964844 270.855469 L 62.191406 270.949219 L 62.433594 271.007812 Z M 62.6875 271.027344 "/>
<path style=" stroke:none;fill-rule:nonzero;fill:rgb(30.196078%,30.196078%,30.196078%);fill-opacity:1;" d="M 72.695312 271.027344 L 73.660156 270.9375 L 74.546875 270.664062 L 75.347656 270.203125 L 76.0625 269.5625 L 76.683594 268.738281 L 77.203125 267.730469 L 77.617188 266.539062 L 77.917969 265.164062 L 78.105469 263.605469 L 78.167969 261.859375 L 78.105469 260.125 L 77.917969 258.574219 L 77.617188 257.210938 L 77.203125 256.035156 L 76.683594 255.039062 L 76.0625 254.226562 L 75.347656 253.59375 L 74.546875 253.144531 L 73.660156 252.878906 L 72.695312 252.789062 L 71.726562 252.875 L 70.835938 253.144531 L 70.027344 253.589844 L 69.308594 254.21875 L 68.6875 255.027344 L 68.167969 256.023438 L 67.753906 257.203125 L 67.449219 258.566406 L 67.261719 260.117188 L 67.199219 261.859375 L 67.261719 263.605469 L 67.449219 265.164062 L 67.753906 266.539062 L 68.167969 267.730469 L 68.6875 268.738281 L 69.308594 269.5625 L 70.027344 270.203125 L 70.835938 270.664062 L 71.726562 270.9375 Z M 72.695312 269.277344 L 72.113281 269.207031 L 71.574219 269.003906 L 71.082031 268.652344 L 70.640625 268.160156 L 70.261719 267.511719 L 69.9375 266.710938 L 69.679688 265.75 L 69.492188 264.621094 L 69.375 263.328125 L 69.335938 261.859375 L 69.375 260.40625 L 69.492188 259.125 L 69.679688 258.015625 L 69.9375 257.066406 L 70.261719 256.273438 L 70.640625 255.636719 L 71.082031 255.152344 L 71.574219 254.808594 L 72.113281 254.605469 L 72.695312 254.539062 L 73.273438 254.605469 L 73.808594 254.808594 L 74.296875 255.152344 L 74.730469 255.636719 L 75.109375 256.273438 L 75.429688 257.066406 L 75.6875 258.015625 L 75.875 259.125 L 75.992188 260.40625 L 76.03125 261.859375 L 75.992188 263.328125 L 75.875 264.621094 L 75.6875 265.75 L 75.429688 266.710938 L 75.109375 267.511719 L 74.730469 268.160156 L 74.296875 268.652344 L 73.808594 269.003906 L 73.273438 269.207031 Z M 72.695312 269.277344 "/>
<path style=" stroke:none;fill-rule:nonzero;fill:rgb(30.196078%,30.196078%,30.196078%);fill-opacity:1;" d="M 52.703125 188.035156 L 53.667969 187.941406 L 54.554688 187.667969 L 55.355469 187.210938 L 56.070312 186.570312 L 56.691406 185.746094 L 57.210938 184.738281 L 57.625 183.542969 L 57.925781 182.167969 L 58.113281 180.609375 L 58.175781 178.867188 L 58.113281 177.128906 L 57.925781 175.582031 L 57.625 174.21875 L 57.210938 173.039062 L 56.691406 172.042969 L 56.070312 171.230469 L 55.355469 170.601562 L 54.554688 170.152344 L 53.667969 169.882812 L 52.703125 169.792969 L 51.734375 169.882812 L 50.84375 170.148438 L 50.035156 170.597656 L 49.316406 171.222656 L 48.695312 172.035156 L 48.175781 173.027344 L 47.761719 174.207031 L 47.457031 175.570312 L 47.269531 177.125 L 47.207031 178.867188 L 47.269531 180.609375 L 47.457031 182.167969 L 47.761719 183.542969 L 48.175781 184.738281 L 48.695312 185.746094 L 49.316406 186.570312 L 50.035156 187.210938 L 50.84375 187.667969 L 51.734375 187.941406 Z M 52.703125 186.28125 L 52.121094 186.214844 L 51.582031 186.007812 L 51.089844 185.660156 L 50.648438 185.164062 L 50.269531 184.515625 L 49.945312 183.714844 L 49.6875 182.753906 L 49.5 181.628906 L 49.382812 180.332031 L 49.34375 178.867188 L 49.382812 177.414062 L 49.5 176.132812 L 49.6875 175.019531 L 49.945312 174.070312 L 50.269531 173.28125 L 50.648438 172.644531 L 51.089844 172.15625 L 51.582031 171.8125 L 52.121094 171.613281 L 52.703125 171.546875 L 53.28125 171.613281 L 53.816406 171.8125 L 54.304688 172.15625 L 54.738281 172.644531 L 55.117188 173.28125 L 55.4375 174.070312 L 55.695312 175.019531 L 55.882812 176.132812 L 56 177.414062 L 56.039062 178.867188 L 56 180.332031 L 55.882812 181.628906 L 55.695312 182.753906 L 55.4375 183.714844 L 55.117188 184.515625 L 54.738281 185.164062 L 54.304688 185.660156 L 53.816406 186.007812 L 53.28125 186.214844 Z M 52.703125 186.28125 "/>
<path style=" stroke:none;fill-rule:nonzero;fill:rgb(30.196078%,30.196078%,30.196078%);fill-opacity:1;" d="M 62.6875 188.035156 L 62.941406 188.015625 L 63.183594 187.957031 L 63.410156 187.863281 L 63.617188 187.734375 L 63.804688 187.574219 L 63.964844 187.386719 L 64.09375 187.167969 L 64.191406 186.925781 L 64.25 186.664062 L 64.273438 186.378906 L 64.25 186.085938 L 64.191406 185.8125 L 64.09375 185.566406 L 63.964844 185.34375 L 63.804688 185.148438 L 63.617188 184.984375 L 63.410156 184.851562 L 63.183594 184.753906 L 62.941406 184.695312 L 62.6875 184.671875 L 62.433594 184.695312 L 62.191406 184.753906 L 61.964844 184.851562 L 61.757812 184.984375 L 61.570312 185.148438 L 61.414062 185.34375 L 61.28125 185.566406 L 61.1875 185.8125 L 61.125 186.085938 L 61.105469 186.378906 L 61.125 186.664062 L 61.1875 186.925781 L 61.28125 187.167969 L 61.414062 187.386719 L 61.570312 187.574219 L 61.757812 187.734375 L 61.964844 187.863281 L 62.191406 187.957031 L 62.433594 188.015625 Z M 62.6875 188.035156 "/>
<path style=" stroke:none;fill-rule:nonzero;fill:rgb(30.196078%,30.196078%,30.196078%);fill-opacity:1;" d="M 68.136719 187.722656 L 77.785156 187.722656 L 77.785156 185.898438 L 74.257812 185.898438 L 74.257812 170.105469 L 72.574219 170.105469 L 72.28125 170.273438 L 71.976562 170.429688 L 71.660156 170.578125 L 71.328125 170.71875 L 70.976562 170.847656 L 70.609375 170.972656 L 70.222656 171.085938 L 69.8125 171.191406 L 69.382812 171.289062 L 68.929688 171.378906 L 68.929688 172.769531 L 72.046875 172.769531 L 72.046875 185.898438 L 68.136719 185.898438 Z M 68.136719 187.722656 "/>
<path style=" stroke:none;fill-rule:nonzero;fill:rgb(30.196078%,30.196078%,30.196078%);fill-opacity:1;" d="M 52.703125 105.039062 L 53.667969 104.949219 L 54.554688 104.671875 L 55.355469 104.214844 L 56.070312 103.574219 L 56.691406 102.75 L 57.210938 101.742188 L 57.625 100.550781 L 57.925781 99.175781 L 58.113281 97.613281 L 58.175781 95.871094 L 58.113281 94.136719 L 57.925781 92.585938 L 57.625 91.222656 L 57.210938 90.042969 L 56.691406 89.050781 L 56.070312 88.238281 L 55.355469 87.605469 L 54.554688 87.15625 L 53.667969 86.886719 L 52.703125 86.800781 L 51.734375 86.886719 L 50.84375 87.15625 L 50.035156 87.601562 L 49.316406 88.230469 L 48.695312 89.039062 L 48.175781 90.035156 L 47.761719 91.210938 L 47.457031 92.578125 L 47.269531 94.128906 L 47.207031 95.871094 L 47.269531 97.613281 L 47.457031 99.175781 L 47.761719 100.550781 L 48.175781 101.742188 L 48.695312 102.75 L 49.316406 103.574219 L 50.035156 104.214844 L 50.84375 104.671875 L 51.734375 104.949219 Z M 52.703125 103.285156 L 52.121094 103.21875 L 51.582031 103.011719 L 51.089844 102.664062 L 50.648438 102.167969 L 50.269531 101.523438 L 49.945312 100.722656 L 49.6875 99.757812 L 49.5 98.632812 L 49.382812 97.339844 L 49.34375 95.871094 L 49.382812 94.417969 L 49.5 93.136719 L 49.6875 92.023438 L 49.945312 91.074219 L 50.269531 90.285156 L 50.648438 89.648438 L 51.089844 89.160156 L 51.582031 88.820312 L 52.121094 88.617188 L 52.703125 88.550781 L 53.28125 88.617188 L 53.816406 88.820312 L 54.304688 89.160156 L 54.738281 89.648438 L 55.117188 90.285156 L 55.4375 91.074219 L 55.695312 92.023438 L 55.882812 93.136719 L 56 94.417969 L 56.039062 95.871094 L 56 97.339844 L 55.882812 98.632812 L 55.695312 99.757812 L 55.4375 100.722656 L 55.117188 101.523438 L 54.738281 102.167969 L 54.304688 102.664062 L 53.816406 103.011719 L 53.28125 103.21875 Z M 52.703125 103.285156 "/>
<path style=" stroke:none;fill-rule:nonzero;fill:rgb(30.196078%,30.196078%,30.196078%);fill-opacity:1;" d="M 62.6875 105.039062 L 62.941406 105.019531 L 63.183594 104.960938 L 63.410156 104.867188 L 63.617188 104.738281 L 63.804688 104.578125 L 63.964844 104.390625 L 64.09375 104.175781 L 64.191406 103.933594 L 64.25 103.667969 L 64.273438 103.382812 L 64.25 103.089844 L 64.191406 102.820312 L 64.09375 102.570312 L 63.964844 102.347656 L 63.804688 102.152344 L 63.617188 101.988281 L 63.410156 101.855469 L 63.183594 101.757812 L 62.941406 101.699219 L 62.6875 101.679688 L 62.433594 101.699219 L 62.191406 101.757812 L 61.964844 101.855469 L 61.757812 101.988281 L 61.570312 102.152344 L 61.414062 102.347656 L 61.28125 102.570312 L 61.1875 102.820312 L 61.125 103.089844 L 61.105469 103.382812 L 61.125 103.667969 L 61.1875 103.933594 L 61.28125 104.175781 L 61.414062 104.390625 L 61.570312 104.578125 L 61.757812 104.738281 L 61.964844 104.867188 L 62.191406 104.960938 L 62.433594 105.019531 Z M 62.6875 105.039062 "/>
<path style=" stroke:none;fill-rule:nonzero;fill:rgb(30.196078%,30.196078%,30.196078%);fill-opacity:1;" d="M 67.078125 104.726562 L 78.144531 104.726562 L 78.144531 102.832031 L 73 102.832031 L 72.71875 102.839844 L 72.429688 102.855469 L 72.136719 102.871094 L 71.839844 102.886719 L 71.542969 102.910156 L 71.25 102.929688 L 70.957031 102.953125 L 70.671875 102.976562 L 70.390625 103 L 71.589844 101.835938 L 72.695312 100.691406 L 73.699219 99.5625 L 74.601562 98.449219 L 75.382812 97.351562 L 76.042969 96.261719 L 76.574219 95.1875 L 76.960938 94.121094 L 77.199219 93.058594 L 77.28125 92.007812 L 77.222656 91.097656 L 77.050781 90.257812 L 76.769531 89.496094 L 76.386719 88.816406 L 75.902344 88.222656 L 75.324219 87.726562 L 74.660156 87.328125 L 73.90625 87.039062 L 73.074219 86.859375 L 72.167969 86.800781 L 71.519531 86.828125 L 70.910156 86.917969 L 70.335938 87.0625 L 69.792969 87.261719 L 69.277344 87.511719 L 68.789062 87.804688 L 68.316406 88.144531 L 67.863281 88.523438 L 67.417969 88.9375 L 66.984375 89.390625 L 68.257812 90.640625 L 68.550781 90.300781 L 68.867188 89.984375 L 69.195312 89.691406 L 69.539062 89.421875 L 69.898438 89.1875 L 70.273438 88.984375 L 70.664062 88.820312 L 71.0625 88.699219 L 71.476562 88.625 L 71.902344 88.597656 L 72.523438 88.640625 L 73.078125 88.765625 L 73.566406 88.96875 L 73.988281 89.242188 L 74.34375 89.582031 L 74.632812 89.984375 L 74.855469 90.4375 L 75.015625 90.941406 L 75.113281 91.492188 L 75.144531 92.078125 L 75.066406 93 L 74.835938 93.957031 L 74.445312 94.953125 L 73.894531 95.992188 L 73.183594 97.078125 L 72.304688 98.222656 L 71.257812 99.421875 L 70.039062 100.6875 L 68.648438 102.023438 L 67.078125 103.429688 Z M 67.078125 104.726562 "/>
<path style=" stroke:none;fill-rule:nonzero;fill:rgb(30.196078%,30.196078%,30.196078%);fill-opacity:1;" d="M 110.902344 304.578125 L 117.046875 304.578125 L 117.046875 302.898438 L 110.902344 302.898438 Z M 110.902344 304.578125 "/>
<path style=" stroke:none;fill-rule:nonzero;fill:rgb(30.196078%,30.196078%,30.196078%);fill-opacity:1;" d="M 124.390625 310.769531 L 125.277344 310.707031 L 126.132812 310.511719 L 126.949219 310.195312 L 127.703125 309.753906 L 128.386719 309.195312 L 128.980469 308.519531 L 129.46875 307.734375 L 129.839844 306.835938 L 130.070312 305.832031 L 130.152344 304.722656 L 130.082031 303.628906 L 129.882812 302.65625 L 129.558594 301.8125 L 129.128906 301.085938 L 128.597656 300.476562 L 127.980469 299.984375 L 127.285156 299.609375 L 126.523438 299.339844 L 125.707031 299.183594 L 124.847656 299.128906 L 124.539062 299.136719 L 124.246094 299.160156 L 123.964844 299.199219 L 123.699219 299.25 L 123.441406 299.316406 L 123.191406 299.394531 L 122.945312 299.484375 L 122.707031 299.589844 L 122.46875 299.703125 L 122.230469 299.828125 L 122.664062 294.738281 L 129.3125 294.738281 L 129.3125 292.84375 L 120.742188 292.84375 L 120.191406 301.097656 L 121.367188 301.820312 L 121.664062 301.625 L 121.945312 301.453125 L 122.222656 301.300781 L 122.496094 301.164062 L 122.769531 301.050781 L 123.046875 300.957031 L 123.335938 300.882812 L 123.636719 300.828125 L 123.957031 300.796875 L 124.296875 300.785156 L 124.933594 300.832031 L 125.523438 300.960938 L 126.058594 301.175781 L 126.535156 301.472656 L 126.949219 301.847656 L 127.296875 302.296875 L 127.574219 302.816406 L 127.777344 303.410156 L 127.902344 304.070312 L 127.945312 304.792969 L 127.894531 305.535156 L 127.753906 306.210938 L 127.523438 306.824219 L 127.21875 307.367188 L 126.84375 307.832031 L 126.410156 308.226562 L 125.917969 308.535156 L 125.382812 308.761719 L 124.804688 308.898438 L 124.199219 308.945312 L 123.609375 308.917969 L 123.0625 308.839844 L 122.558594 308.71875 L 122.089844 308.554688 L 121.652344 308.351562 L 121.25 308.121094 L 120.871094 307.867188 L 120.519531 307.59375 L 120.191406 307.300781 L 119.878906 307.003906 L 118.800781 308.441406 L 119.167969 308.792969 L 119.570312 309.136719 L 120.007812 309.464844 L 120.488281 309.769531 L 121.011719 310.046875 L 121.578125 310.289062 L 122.199219 310.488281 L 122.871094 310.640625 L 123.601562 310.738281 Z M 124.390625 310.769531 "/>
<path style=" stroke:none;fill-rule:nonzero;fill:rgb(30.196078%,30.196078%,30.196078%);fill-opacity:1;" d="M 306.167969 310.769531 L 307.132812 310.679688 L 308.019531 310.40625 L 308.824219 309.945312 L 309.535156 309.304688 L 310.15625 308.480469 L 310.675781 307.472656 L 311.089844 306.28125 L 311.394531 304.90625 L 311.578125 303.347656 L 311.640625 301.601562 L 311.578125 299.867188 L 311.394531 298.320312 L 311.089844 296.953125 L 310.675781 295.777344 L 310.15625 294.78125 L 309.535156 293.96875 L 308.824219 293.339844 L 308.019531 292.890625 L 307.132812 292.621094 L 306.167969 292.53125 L 305.199219 292.621094 L 304.308594 292.886719 L 303.5 293.332031 L 302.785156 293.960938 L 302.160156 294.773438 L 301.640625 295.765625 L 301.226562 296.945312 L 300.921875 298.308594 L 300.738281 299.863281 L 300.671875 301.601562 L 300.738281 303.347656 L 300.921875 304.90625 L 301.226562 306.28125 L 301.640625 307.472656 L 302.160156 308.480469 L 302.785156 309.304688 L 303.5 309.945312 L 304.308594 310.40625 L 305.199219 310.679688 Z M 306.167969 309.019531 L 305.585938 308.949219 L 305.046875 308.746094 L 304.554688 308.398438 L 304.117188 307.902344 L 303.734375 307.253906 L 303.410156 306.453125 L 303.15625 305.492188 L 302.964844 304.363281 L 302.847656 303.070312 L 302.808594 301.601562 L 302.847656 300.148438 L 302.964844 298.871094 L 303.15625 297.757812 L 303.410156 296.808594 L 303.734375 296.015625 L 304.117188 295.378906 L 304.554688 294.894531 L 305.046875 294.550781 L 305.585938 294.347656 L 306.167969 294.28125 L 306.746094 294.347656 L 307.28125 294.550781 L 307.769531 294.894531 L 308.203125 295.378906 L 308.585938 296.015625 L 308.90625 296.808594 L 309.160156 297.757812 L 309.351562 298.871094 L 309.464844 300.148438 L 309.503906 301.601562 L 309.464844 303.070312 L 309.351562 304.363281 L 309.160156 305.492188 L 308.90625 306.453125 L 308.585938 307.253906 L 308.203125 307.902344 L 307.769531 308.398438 L 307.28125 308.746094 L 306.746094 308.949219 Z M 306.167969 309.019531 "/>
<path style=" stroke:none;fill-rule:nonzero;fill:rgb(30.196078%,30.196078%,30.196078%);fill-opacity:1;" d="M 491.296875 310.769531 L 492.179688 310.707031 L 493.039062 310.511719 L 493.851562 310.195312 L 494.609375 309.753906 L 495.292969 309.195312 L 495.886719 308.519531 L 496.375 307.734375 L 496.742188 306.835938 L 496.976562 305.832031 L 497.054688 304.722656 L 496.988281 303.628906 L 496.785156 302.65625 L 496.464844 301.8125 L 496.03125 301.085938 L 495.5 300.476562 L 494.882812 299.984375 L 494.1875 299.609375 L 493.429688 299.339844 L 492.613281 299.183594 L 491.75 299.128906 L 491.441406 299.136719 L 491.148438 299.160156 L 490.871094 299.199219 L 490.601562 299.25 L 490.34375 299.316406 L 490.09375 299.394531 L 489.851562 299.484375 L 489.609375 299.589844 L 489.371094 299.703125 L 489.136719 299.828125 L 489.566406 294.738281 L 496.214844 294.738281 L 496.214844 292.84375 L 487.648438 292.84375 L 487.097656 301.097656 L 488.273438 301.820312 L 488.566406 301.625 L 488.851562 301.453125 L 489.125 301.300781 L 489.398438 301.164062 L 489.671875 301.050781 L 489.953125 300.957031 L 490.238281 300.882812 L 490.539062 300.828125 L 490.859375 300.796875 L 491.199219 300.785156 L 491.839844 300.832031 L 492.425781 300.960938 L 492.960938 301.175781 L 493.4375 301.472656 L 493.851562 301.847656 L 494.199219 302.296875 L 494.476562 302.816406 L 494.679688 303.410156 L 494.804688 304.070312 L 494.847656 304.792969 L 494.796875 305.535156 L 494.65625 306.210938 L 494.429688 306.824219 L 494.125 307.367188 L 493.75 307.832031 L 493.3125 308.226562 L 492.824219 308.535156 L 492.285156 308.761719 L 491.710938 308.898438 L 491.105469 308.945312 L 490.515625 308.917969 L 489.96875 308.839844 L 489.460938 308.71875 L 488.992188 308.554688 L 488.558594 308.351562 L 488.152344 308.121094 L 487.777344 307.867188 L 487.425781 307.59375 L 487.09375 307.300781 L 486.785156 307.003906 L 485.703125 308.441406 L 486.074219 308.792969 L 486.472656 309.136719 L 486.914062 309.464844 L 487.390625 309.769531 L 487.914062 310.046875 L 488.484375 310.289062 L 489.105469 310.488281 L 489.777344 310.640625 L 490.507812 310.738281 Z M 491.296875 310.769531 "/>
<path style=" stroke:none;fill-rule:nonzero;fill:rgb(30.196078%,30.196078%,30.196078%);fill-opacity:1;" d="M 666.019531 310.457031 L 675.664062 310.457031 L 675.664062 308.632812 L 672.136719 308.632812 L 672.136719 292.84375 L 670.457031 292.84375 L 670.164062 293.011719 L 669.859375 293.167969 L 669.542969 293.316406 L 669.207031 293.457031 L 668.859375 293.585938 L 668.492188 293.707031 L 668.105469 293.820312 L 667.695312 293.925781 L 667.265625 294.023438 L 666.808594 294.113281 L 666.808594 295.507812 L 669.929688 295.507812 L 669.929688 308.632812 L 666.019531 308.632812 Z M 666.019531 310.457031 "/>
<path style=" stroke:none;fill-rule:nonzero;fill:rgb(30.196078%,30.196078%,30.196078%);fill-opacity:1;" d="M 683.898438 310.769531 L 684.863281 310.679688 L 685.746094 310.40625 L 686.550781 309.945312 L 687.265625 309.304688 L 687.886719 308.480469 L 688.40625 307.472656 L 688.820312 306.28125 L 689.121094 304.90625 L 689.308594 303.347656 L 689.371094 301.601562 L 689.308594 299.867188 L 689.121094 298.320312 L 688.820312 296.953125 L 688.40625 295.777344 L 687.886719 294.78125 L 687.265625 293.96875 L 686.550781 293.339844 L 685.746094 292.890625 L 684.863281 292.621094 L 683.898438 292.53125 L 682.925781 292.621094 L 682.035156 292.886719 L 681.230469 293.332031 L 680.511719 293.960938 L 679.890625 294.773438 L 679.367188 295.765625 L 678.953125 296.945312 L 678.652344 298.308594 L 678.464844 299.863281 L 678.402344 301.601562 L 678.464844 303.347656 L 678.652344 304.90625 L 678.953125 306.28125 L 679.367188 307.472656 L 679.890625 308.480469 L 680.511719 309.304688 L 681.230469 309.945312 L 682.035156 310.40625 L 682.925781 310.679688 Z M 683.898438 309.019531 L 683.3125 308.949219 L 682.773438 308.746094 L 682.28125 308.398438 L 681.84375 307.902344 L 681.460938 307.253906 L 681.140625 306.453125 L 680.882812 305.492188 L 680.695312 304.363281 L 680.578125 303.070312 L 680.539062 301.601562 L 680.578125 300.148438 L 680.695312 298.871094 L 680.882812 297.757812 L 681.140625 296.808594 L 681.460938 296.015625 L 681.84375 295.378906 L 682.28125 294.894531 L 682.773438 294.550781 L 683.3125 294.347656 L 683.898438 294.28125 L 684.476562 294.347656 L 685.011719 294.550781 L 685.496094 294.894531 L 685.933594 295.378906 L 686.3125 296.015625 L 686.632812 296.808594 L 686.890625 297.757812 L 687.078125 298.871094 L 687.195312 300.148438 L 687.234375 301.601562 L 687.195312 303.070312 L 687.078125 304.363281 L 686.890625 305.492188 L 686.632812 306.453125 L 686.3125 307.253906 L 685.933594 307.902344 L 685.496094 308.398438 L 685.011719 308.746094 L 684.476562 308.949219 Z M 683.898438 309.019531 "/>
<path style=" stroke:none;fill-rule:nonzero;fill:rgb(0%,0%,0%);fill-opacity:1;" d="M 300.175781 339.054688 L 302.410156 339.054688 L 302.410156 323.335938 L 307.738281 323.335938 L 307.738281 321.441406 L 294.847656 321.441406 L 294.847656 323.335938 L 300.175781 323.335938 Z M 300.175781 339.054688 "/>
<path style=" stroke:none;fill-rule:nonzero;fill:rgb(0%,0%,0%);fill-opacity:1;" d="M 310.6875 339.054688 L 312.871094 339.054688 L 312.871094 326.023438 L 310.6875 326.023438 Z M 311.792969 323.335938 L 312.042969 323.320312 L 312.277344 323.269531 L 312.488281 323.1875 L 312.679688 323.078125 L 312.847656 322.9375 L 312.992188 322.769531 L 313.105469 322.578125 L 313.1875 322.367188 L 313.238281 322.128906 L 313.257812 321.871094 L 313.238281 321.628906 L 313.1875 321.402344 L 313.105469 321.195312 L 312.992188 321.011719 L 312.847656 320.847656 L 312.679688 320.710938 L 312.488281 320.601562 L 312.277344 320.523438 L 312.042969 320.472656 L 311.792969 320.457031 L 311.542969 320.472656 L 311.308594 320.523438 L 311.09375 320.601562 L 310.902344 320.710938 L 310.738281 320.847656 L 310.59375 321.011719 L 310.480469 321.195312 L 310.398438 321.402344 L 310.347656 321.628906 L 310.328125 321.871094 L 310.347656 322.128906 L 310.398438 322.367188 L 310.480469 322.578125 L 310.59375 322.769531 L 310.738281 322.9375 L 310.902344 323.078125 L 311.09375 323.1875 L 311.308594 323.269531 L 311.542969 323.320312 Z M 311.792969 323.335938 "/>
<path style=" stroke:none;fill-rule:nonzero;fill:rgb(0%,0%,0%);fill-opacity:1;" d="M 317.289062 339.054688 L 319.472656 339.054688 L 319.472656 329.601562 L 319.828125 329.21875 L 320.179688 328.875 L 320.527344 328.578125 L 320.863281 328.316406 L 321.199219 328.101562 L 321.523438 327.921875 L 321.84375 327.785156 L 322.15625 327.6875 L 322.460938 327.628906 L 322.761719 327.609375 L 323.230469 327.640625 L 323.648438 327.734375 L 324.015625 327.898438 L 324.328125 328.128906 L 324.59375 328.429688 L 324.808594 328.804688 L 324.972656 329.257812 L 325.089844 329.785156 L 325.160156 330.394531 L 325.183594 331.089844 L 325.183594 339.054688 L 327.367188 339.054688 L 327.367188 329.601562 L 327.730469 329.21875 L 328.082031 328.875 L 328.429688 328.578125 L 328.765625 328.316406 L 329.09375 328.101562 L 329.417969 327.921875 L 329.734375 327.785156 L 330.046875 327.6875 L 330.351562 327.628906 L 330.65625 327.609375 L 331.128906 327.640625 L 331.542969 327.734375 L 331.910156 327.898438 L 332.226562 328.128906 L 332.488281 328.429688 L 332.703125 328.804688 L 332.871094 329.257812 L 332.988281 329.785156 L 333.058594 330.394531 L 333.082031 331.089844 L 333.082031 339.054688 L 335.265625 339.054688 L 335.265625 330.800781 L 335.226562 329.847656 L 335.109375 328.988281 L 334.917969 328.226562 L 334.644531 327.558594 L 334.292969 326.992188 L 333.859375 326.527344 L 333.34375 326.160156 L 332.75 325.898438 L 332.070312 325.742188 L 331.304688 325.6875 L 330.835938 325.71875 L 330.378906 325.808594 L 329.933594 325.949219 L 329.496094 326.144531 L 329.066406 326.386719 L 328.644531 326.671875 L 328.230469 327 L 327.820312 327.363281 L 327.414062 327.757812 L 327.007812 328.183594 L 326.832031 327.742188 L 326.621094 327.335938 L 326.375 326.96875 L 326.085938 326.640625 L 325.757812 326.359375 L 325.382812 326.125 L 324.964844 325.9375 L 324.496094 325.800781 L 323.980469 325.714844 L 323.410156 325.6875 L 322.945312 325.71875 L 322.496094 325.800781 L 322.058594 325.933594 L 321.632812 326.113281 L 321.21875 326.335938 L 320.820312 326.59375 L 320.429688 326.886719 L 320.058594 327.207031 L 319.699219 327.554688 L 319.351562 327.921875 L 319.28125 327.921875 L 319.089844 326.023438 L 317.289062 326.023438 Z M 317.289062 339.054688 "/>
<path style=" stroke:none;fill-rule:nonzero;fill:rgb(0%,0%,0%);fill-opacity:1;" d="M 344.769531 339.367188 L 345.289062 339.351562 L 345.789062 339.300781 L 346.265625 339.21875 L 346.726562 339.109375 L 347.164062 338.976562 L 347.582031 338.820312 L 347.984375 338.640625 L 348.367188 338.449219 L 348.734375 338.242188 L 349.089844 338.023438 L 348.296875 336.585938 L 348.007812 336.769531 L 347.710938 336.941406 L 347.410156 337.09375 L 347.097656 337.226562 L 346.78125 337.34375 L 346.453125 337.4375 L 346.117188 337.515625 L 345.769531 337.570312 L 345.40625 337.605469 L 345.03125 337.617188 L 344.316406 337.5625 L 343.648438 337.410156 L 343.035156 337.15625 L 342.484375 336.8125 L 342 336.378906 L 341.582031 335.863281 L 341.242188 335.269531 L 340.980469 334.597656 L 340.800781 333.859375 L 340.710938 333.054688 L 349.496094 333.054688 L 349.511719 332.957031 L 349.523438 332.851562 L 349.539062 332.738281 L 349.550781 332.621094 L 349.5625 332.496094 L 349.574219 332.363281 L 349.582031 332.230469 L 349.585938 332.09375 L 349.589844 331.953125 L 349.59375 331.808594 L 349.535156 330.734375 L 349.371094 329.742188 L 349.097656 328.84375 L 348.722656 328.046875 L 348.242188 327.351562 L 347.664062 326.769531 L 346.988281 326.308594 L 346.21875 325.96875 L 345.359375 325.757812 L 344.410156 325.6875 L 343.507812 325.765625 L 342.636719 325.996094 L 341.804688 326.371094 L 341.03125 326.886719 L 340.335938 327.535156 L 339.726562 328.3125 L 339.226562 329.207031 L 338.851562 330.214844 L 338.613281 331.332031 L 338.527344 332.550781 L 338.609375 333.785156 L 338.847656 334.910156 L 339.222656 335.917969 L 339.730469 336.808594 L 340.351562 337.570312 L 341.078125 338.207031 L 341.898438 338.707031 L 342.792969 339.070312 L 343.753906 339.292969 Z M 340.6875 331.472656 L 340.808594 330.742188 L 341.003906 330.074219 L 341.265625 329.480469 L 341.589844 328.953125 L 341.964844 328.503906 L 342.394531 328.125 L 342.859375 327.832031 L 343.359375 327.613281 L 343.886719 327.484375 L 344.433594 327.441406 L 345.019531 327.480469 L 345.554688 327.609375 L 346.03125 327.816406 L 346.453125 328.105469 L 346.816406 328.476562 L 347.121094 328.921875 L 347.359375 329.449219 L 347.53125 330.046875 L 347.636719 330.722656 L 347.671875 331.472656 Z M 340.6875 331.472656 "/>
<path style=" stroke:none;fill-rule:nonzero;fill:rgb(0%,0%,0%);fill-opacity:1;" d="M 362.289062 339.367188 L 362.527344 339.359375 L 362.769531 339.339844 L 363.015625 339.308594 L 363.261719 339.269531 L 363.507812 339.21875 L 363.75 339.160156 L 363.992188 339.097656 L 364.230469 339.03125 L 364.460938 338.960938 L 364.6875 338.886719 L 364.257812 337.257812 L 364.121094 337.304688 L 363.980469 337.355469 L 363.832031 337.402344 L 363.675781 337.445312 L 363.523438 337.488281 L 363.363281 337.523438 L 363.210938 337.550781 L 363.058594 337.574219 L 362.910156 337.585938 L 362.769531 337.59375 L 362.34375 337.566406 L 361.976562 337.484375 L 361.667969 337.351562 L 361.40625 337.167969 L 361.195312 336.933594 L 361.027344 336.652344 L 360.902344 336.324219 L 360.816406 335.953125 L 360.769531 335.535156 L 360.753906 335.070312 L 360.753906 327.800781 L 364.28125 327.800781 L 364.28125 326.023438 L 360.753906 326.023438 L 360.753906 322.351562 L 358.929688 322.351562 L 358.664062 326.023438 L 356.625 326.144531 L 356.625 327.800781 L 358.570312 327.800781 L 358.570312 335.023438 L 358.597656 335.777344 L 358.6875 336.472656 L 358.847656 337.105469 L 359.078125 337.671875 L 359.386719 338.167969 L 359.777344 338.585938 L 360.257812 338.917969 L 360.832031 339.164062 L 361.507812 339.316406 Z M 362.289062 339.367188 "/>
<path style=" stroke:none;fill-rule:nonzero;fill:rgb(0%,0%,0%);fill-opacity:1;" d="M 372.296875 339.367188 L 373.242188 339.292969 L 374.152344 339.074219 L 375.011719 338.710938 L 375.804688 338.214844 L 376.519531 337.578125 L 377.136719 336.816406 L 377.640625 335.929688 L 378.023438 334.917969 L 378.261719 333.792969 L 378.34375 332.550781 L 378.261719 331.304688 L 378.023438 330.171875 L 377.640625 329.152344 L 377.136719 328.257812 L 376.519531 327.492188 L 375.804688 326.851562 L 375.011719 326.351562 L 374.152344 325.984375 L 373.242188 325.761719 L 372.296875 325.6875 L 371.351562 325.761719 L 370.441406 325.984375 L 369.582031 326.351562 L 368.789062 326.851562 L 368.074219 327.492188 L 367.457031 328.257812 L 366.953125 329.152344 L 366.570312 330.171875 L 366.332031 331.304688 L 366.25 332.550781 L 366.332031 333.792969 L 366.570312 334.917969 L 366.953125 335.929688 L 367.457031 336.816406 L 368.074219 337.578125 L 368.789062 338.214844 L 369.582031 338.710938 L 370.441406 339.074219 L 371.351562 339.292969 Z M 372.296875 337.542969 L 371.644531 337.484375 L 371.039062 337.3125 L 370.488281 337.03125 L 369.996094 336.652344 L 369.566406 336.171875 L 369.207031 335.605469 L 368.917969 334.953125 L 368.703125 334.222656 L 368.574219 333.421875 L 368.527344 332.550781 L 368.574219 331.683594 L 368.703125 330.875 L 368.917969 330.140625 L 369.207031 329.480469 L 369.566406 328.90625 L 369.996094 328.421875 L 370.488281 328.035156 L 371.039062 327.75 L 371.644531 327.570312 L 372.296875 327.511719 L 372.949219 327.570312 L 373.558594 327.75 L 374.109375 328.035156 L 374.605469 328.421875 L 375.039062 328.90625 L 375.402344 329.480469 L 375.695312 330.140625 L 375.910156 330.875 L 376.042969 331.683594 L 376.089844 332.550781 L 376.042969 333.421875 L 375.910156 334.222656 L 375.695312 334.953125 L 375.402344 335.605469 L 375.039062 336.171875 L 374.605469 336.652344 L 374.109375 337.03125 L 373.558594 337.3125 L 372.949219 337.484375 Z M 372.296875 337.542969 "/>
<path style=" stroke:none;fill-rule:nonzero;fill:rgb(0%,0%,0%);fill-opacity:1;" d="M 391.015625 339.054688 L 393.25 339.054688 L 393.25 323.335938 L 398.578125 323.335938 L 398.578125 321.441406 L 385.6875 321.441406 L 385.6875 323.335938 L 391.015625 323.335938 Z M 391.015625 339.054688 "/>
<path style=" stroke:none;fill-rule:nonzero;fill:rgb(0%,0%,0%);fill-opacity:1;" d="M 401.527344 339.054688 L 403.710938 339.054688 L 403.710938 330.679688 L 403.984375 330.054688 L 404.28125 329.511719 L 404.601562 329.046875 L 404.933594 328.660156 L 405.277344 328.34375 L 405.625 328.09375 L 405.976562 327.90625 L 406.328125 327.777344 L 406.667969 327.703125 L 407 327.679688 L 407.152344 327.679688 L 407.292969 327.6875 L 407.425781 327.695312 L 407.550781 327.707031 L 407.671875 327.726562 L 407.789062 327.746094 L 407.90625 327.773438 L 408.023438 327.808594 L 408.144531 327.847656 L 408.273438 327.894531 L 408.679688 325.976562 L 408.558594 325.914062 L 408.433594 325.863281 L 408.308594 325.820312 L 408.179688 325.78125 L 408.046875 325.75 L 407.910156 325.726562 L 407.765625 325.710938 L 407.617188 325.695312 L 407.457031 325.691406 L 407.289062 325.6875 L 406.855469 325.71875 L 406.429688 325.8125 L 406.015625 325.960938 L 405.617188 326.164062 L 405.234375 326.421875 L 404.867188 326.730469 L 404.515625 327.082031 L 404.1875 327.480469 L 403.878906 327.921875 L 403.59375 328.398438 L 403.519531 328.398438 L 403.328125 326.023438 L 401.527344 326.023438 Z M 401.527344 339.054688 "/>
<path style=" stroke:none;fill-rule:nonzero;fill:rgb(0%,0%,0%);fill-opacity:1;" d="M 416.097656 339.367188 L 416.617188 339.351562 L 417.117188 339.300781 L 417.59375 339.21875 L 418.054688 339.109375 L 418.492188 338.976562 L 418.910156 338.820312 L 419.3125 338.640625 L 419.695312 338.449219 L 420.0625 338.242188 L 420.417969 338.023438 L 419.625 336.585938 L 419.335938 336.769531 L 419.039062 336.941406 L 418.738281 337.09375 L 418.425781 337.226562 L 418.109375 337.34375 L 417.78125 337.4375 L 417.445312 337.515625 L 417.097656 337.570312 L 416.734375 337.605469 L 416.359375 337.617188 L 415.644531 337.5625 L 414.976562 337.410156 L 414.363281 337.15625 L 413.8125 336.8125 L 413.328125 336.378906 L 412.910156 335.863281 L 412.570312 335.269531 L 412.308594 334.597656 L 412.128906 333.859375 L 412.039062 333.054688 L 420.824219 333.054688 L 420.839844 332.957031 L 420.851562 332.851562 L 420.867188 332.738281 L 420.878906 332.621094 L 420.890625 332.496094 L 420.902344 332.363281 L 420.910156 332.230469 L 420.914062 332.09375 L 420.917969 331.953125 L 420.921875 331.808594 L 420.863281 330.734375 L 420.699219 329.742188 L 420.425781 328.84375 L 420.050781 328.046875 L 419.570312 327.351562 L 418.992188 326.769531 L 418.316406 326.308594 L 417.546875 325.96875 L 416.6875 325.757812 L 415.738281 325.6875 L 414.835938 325.765625 L 413.964844 325.996094 L 413.132812 326.371094 L 412.359375 326.886719 L 411.664062 327.535156 L 411.054688 328.3125 L 410.554688 329.207031 L 410.179688 330.214844 L 409.941406 331.332031 L 409.855469 332.550781 L 409.9375 333.785156 L 410.175781 334.910156 L 410.550781 335.917969 L 411.058594 336.808594 L 411.679688 337.570312 L 412.40625 338.207031 L 413.226562 338.707031 L 414.121094 339.070312 L 415.082031 339.292969 Z M 412.015625 331.472656 L 412.136719 330.742188 L 412.332031 330.074219 L 412.59375 329.480469 L 412.917969 328.953125 L 413.292969 328.503906 L 413.71875 328.125 L 414.1875 327.832031 L 414.6875 327.613281 L 415.214844 327.484375 L 415.761719 327.441406 L 416.347656 327.480469 L 416.882812 327.609375 L 417.359375 327.816406 L 417.78125 328.105469 L 418.144531 328.476562 L 418.449219 328.921875 L 418.6875 329.449219 L 418.859375 330.046875 L 418.964844 330.722656 L 419 331.472656 Z M 412.015625 331.472656 "/>
<path style=" stroke:none;fill-rule:nonzero;fill:rgb(0%,0%,0%);fill-opacity:1;" d="M 427.136719 339.367188 L 427.613281 339.34375 L 428.082031 339.273438 L 428.542969 339.160156 L 428.992188 339.007812 L 429.433594 338.820312 L 429.859375 338.601562 L 430.277344 338.355469 L 430.683594 338.085938 L 431.074219 337.800781 L 431.457031 337.496094 L 431.527344 337.496094 L 431.722656 339.054688 L 433.519531 339.054688 L 433.519531 331.039062 L 433.480469 330.109375 L 433.355469 329.25 L 433.144531 328.464844 L 432.84375 327.765625 L 432.453125 327.15625 L 431.964844 326.644531 L 431.378906 326.234375 L 430.695312 325.9375 L 429.90625 325.75 L 429.007812 325.6875 L 428.390625 325.714844 L 427.789062 325.792969 L 427.207031 325.910156 L 426.644531 326.066406 L 426.109375 326.253906 L 425.597656 326.460938 L 425.117188 326.683594 L 424.667969 326.917969 L 424.25 327.15625 L 423.871094 327.390625 L 424.738281 328.902344 L 425.054688 328.695312 L 425.394531 328.492188 L 425.75 328.296875 L 426.125 328.113281 L 426.511719 327.945312 L 426.914062 327.800781 L 427.332031 327.679688 L 427.761719 327.589844 L 428.199219 327.53125 L 428.648438 327.511719 L 429.242188 327.558594 L 429.75 327.691406 L 430.171875 327.90625 L 430.519531 328.1875 L 430.792969 328.527344 L 431.003906 328.917969 L 431.160156 329.347656 L 431.261719 329.8125 L 431.320312 330.300781 L 431.335938 330.800781 L 429.765625 331.011719 L 428.375 331.273438 L 427.160156 331.59375 L 426.121094 331.96875 L 425.25 332.40625 L 424.546875 332.914062 L 424.003906 333.488281 L 423.621094 334.136719 L 423.394531 334.863281 L 423.320312 335.671875 L 423.367188 336.347656 L 423.507812 336.960938 L 423.730469 337.507812 L 424.035156 337.988281 L 424.410156 338.402344 L 424.851562 338.746094 L 425.347656 339.015625 L 425.902344 339.210938 L 426.5 339.328125 Z M 427.761719 337.617188 L 427.382812 337.597656 L 427.023438 337.542969 L 426.691406 337.445312 L 426.390625 337.308594 L 426.121094 337.128906 L 425.894531 336.90625 L 425.710938 336.636719 L 425.570312 336.316406 L 425.484375 335.949219 L 425.457031 335.527344 L 425.503906 335.042969 L 425.648438 334.589844 L 425.898438 334.175781 L 426.261719 333.796875 L 426.75 333.453125 L 427.371094 333.140625 L 428.128906 332.867188 L 429.039062 332.625 L 430.105469 332.414062 L 431.335938 332.238281 L 431.335938 335.886719 L 430.960938 336.210938 L 430.597656 336.5 L 430.242188 336.757812 L 429.894531 336.984375 L 429.546875 337.175781 L 429.203125 337.332031 L 428.855469 337.457031 L 428.5 337.542969 L 428.136719 337.597656 Z M 427.761719 337.617188 "/>
<path style=" stroke:none;fill-rule:nonzero;fill:rgb(0%,0%,0%);fill-opacity:1;" d="M 441.777344 339.367188 L 442.015625 339.359375 L 442.257812 339.339844 L 442.503906 339.308594 L 442.75 339.269531 L 442.996094 339.21875 L 443.238281 339.160156 L 443.480469 339.097656 L 443.71875 339.03125 L 443.949219 338.960938 L 444.175781 338.886719 L 443.746094 337.257812 L 443.609375 337.304688 L 443.46875 337.355469 L 443.320312 337.402344 L 443.164062 337.445312 L 443.011719 337.488281 L 442.851562 337.523438 L 442.699219 337.550781 L 442.546875 337.574219 L 442.398438 337.585938 L 442.257812 337.59375 L 441.832031 337.566406 L 441.464844 337.484375 L 441.15625 337.351562 L 440.894531 337.167969 L 440.683594 336.933594 L 440.515625 336.652344 L 440.390625 336.324219 L 440.304688 335.953125 L 440.257812 335.535156 L 440.242188 335.070312 L 440.242188 327.800781 L 443.769531 327.800781 L 443.769531 326.023438 L 440.242188 326.023438 L 440.242188 322.351562 L 438.417969 322.351562 L 438.152344 326.023438 L 436.113281 326.144531 L 436.113281 327.800781 L 438.058594 327.800781 L 438.058594 335.023438 L 438.085938 335.777344 L 438.175781 336.472656 L 438.335938 337.105469 L 438.5625 337.671875 L 438.871094 338.167969 L 439.265625 338.585938 L 439.746094 338.917969 L 440.320312 339.164062 L 440.996094 339.316406 Z M 441.777344 339.367188 "/>
<path style=" stroke:none;fill-rule:nonzero;fill:rgb(0%,0%,0%);fill-opacity:1;" d="M 446.722656 339.054688 L 448.90625 339.054688 L 448.90625 329.601562 L 449.261719 329.21875 L 449.613281 328.875 L 449.957031 328.578125 L 450.296875 328.316406 L 450.628906 328.101562 L 450.957031 327.921875 L 451.277344 327.785156 L 451.589844 327.6875 L 451.894531 327.628906 L 452.191406 327.609375 L 452.664062 327.640625 L 453.082031 327.734375 L 453.445312 327.898438 L 453.761719 328.128906 L 454.027344 328.429688 L 454.242188 328.804688 L 454.40625 329.257812 L 454.523438 329.785156 L 454.59375 330.394531 L 454.617188 331.089844 L 454.617188 339.054688 L 456.800781 339.054688 L 456.800781 329.601562 L 457.164062 329.21875 L 457.515625 328.875 L 457.859375 328.578125 L 458.195312 328.316406 L 458.527344 328.101562 L 458.847656 327.921875 L 459.164062 327.785156 L 459.476562 327.6875 L 459.785156 327.628906 L 460.089844 327.609375 L 460.558594 327.640625 L 460.976562 327.734375 L 461.34375 327.898438 L 461.65625 328.128906 L 461.921875 328.429688 L 462.136719 328.804688 L 462.300781 329.257812 L 462.417969 329.785156 L 462.488281 330.394531 L 462.511719 331.089844 L 462.511719 339.054688 L 464.695312 339.054688 L 464.695312 330.800781 L 464.660156 329.847656 L 464.542969 328.988281 L 464.347656 328.226562 L 464.078125 327.558594 L 463.726562 326.992188 L 463.292969 326.527344 L 462.777344 326.160156 L 462.179688 325.898438 L 461.5 325.742188 L 460.738281 325.6875 L 460.269531 325.71875 L 459.8125 325.808594 L 459.363281 325.949219 L 458.925781 326.144531 L 458.5 326.386719 L 458.078125 326.671875 L 457.660156 327 L 457.25 327.363281 L 456.84375 327.757812 L 456.441406 328.183594 L 456.265625 327.742188 L 456.054688 327.335938 L 455.808594 326.96875 L 455.519531 326.640625 L 455.191406 326.359375 L 454.816406 326.125 L 454.398438 325.9375 L 453.929688 325.800781 L 453.410156 325.714844 L 452.839844 325.6875 L 452.378906 325.71875 L 451.929688 325.800781 L 451.488281 325.933594 L 451.0625 326.113281 L 450.652344 326.335938 L 450.25 326.59375 L 449.863281 326.886719 L 449.488281 327.207031 L 449.128906 327.554688 L 448.785156 327.921875 L 448.710938 327.921875 L 448.519531 326.023438 L 446.722656 326.023438 Z M 446.722656 339.054688 "/>
<path style=" stroke:none;fill-rule:nonzero;fill:rgb(0%,0%,0%);fill-opacity:1;" d="M 474.199219 339.367188 L 474.722656 339.351562 L 475.222656 339.300781 L 475.699219 339.21875 L 476.15625 339.109375 L 476.59375 338.976562 L 477.015625 338.820312 L 477.414062 338.640625 L 477.800781 338.449219 L 478.167969 338.242188 L 478.519531 338.023438 L 477.730469 336.585938 L 477.4375 336.769531 L 477.144531 336.941406 L 476.839844 337.09375 L 476.53125 337.226562 L 476.214844 337.34375 L 475.886719 337.4375 L 475.550781 337.515625 L 475.199219 337.570312 L 474.839844 337.605469 L 474.464844 337.617188 L 473.746094 337.5625 L 473.078125 337.410156 L 472.46875 337.15625 L 471.917969 336.8125 L 471.433594 336.378906 L 471.015625 335.863281 L 470.675781 335.269531 L 470.410156 334.597656 L 470.234375 333.859375 L 470.144531 333.054688 L 478.929688 333.054688 L 478.941406 332.957031 L 478.957031 332.851562 L 478.96875 332.738281 L 478.984375 332.621094 L 478.996094 332.496094 L 479.011719 332.230469 L 479.019531 332.09375 L 479.023438 331.953125 L 479.023438 331.808594 L 478.96875 330.734375 L 478.804688 329.742188 L 478.53125 328.84375 L 478.152344 328.046875 L 477.675781 327.351562 L 477.097656 326.769531 L 476.421875 326.308594 L 475.652344 325.96875 L 474.789062 325.757812 L 473.839844 325.6875 L 472.941406 325.765625 L 472.066406 325.996094 L 471.238281 326.371094 L 470.464844 326.886719 L 469.765625 327.535156 L 469.160156 328.3125 L 468.660156 329.207031 L 468.28125 330.214844 L 468.042969 331.332031 L 467.960938 332.550781 L 468.042969 333.785156 L 468.277344 334.910156 L 468.65625 335.917969 L 469.160156 336.808594 L 469.785156 337.570312 L 470.511719 338.207031 L 471.328125 338.707031 L 472.226562 339.070312 L 473.1875 339.292969 Z M 470.121094 331.472656 L 470.238281 330.742188 L 470.433594 330.074219 L 470.695312 329.480469 L 471.019531 328.953125 L 471.398438 328.503906 L 471.824219 328.125 L 472.289062 327.832031 L 472.792969 327.613281 L 473.316406 327.484375 L 473.863281 327.441406 L 474.453125 327.480469 L 474.984375 327.609375 L 475.464844 327.816406 L 475.886719 328.105469 L 476.25 328.476562 L 476.550781 328.921875 L 476.789062 329.449219 L 476.964844 330.046875 L 477.070312 330.722656 L 477.105469 331.472656 Z M 470.121094 331.472656 "/>
<path style=" stroke:none;fill-rule:nonzero;fill:rgb(0%,0%,0%);fill-opacity:1;" d="M 482.242188 339.054688 L 484.425781 339.054688 L 484.425781 329.601562 L 484.808594 329.222656 L 485.175781 328.886719 L 485.523438 328.585938 L 485.867188 328.328125 L 486.203125 328.109375 L 486.542969 327.929688 L 486.886719 327.789062 L 487.238281 327.6875 L 487.609375 327.628906 L 488 327.609375 L 488.488281 327.640625 L 488.921875 327.734375 L 489.296875 327.898438 L 489.617188 328.128906 L 489.886719 328.429688 L 490.101562 328.804688 L 490.265625 329.257812 L 490.382812 329.785156 L 490.449219 330.394531 L 490.472656 331.089844 L 490.472656 339.054688 L 492.65625 339.054688 L 492.65625 330.800781 L 492.617188 329.847656 L 492.503906 328.988281 L 492.3125 328.226562 L 492.042969 327.558594 L 491.691406 326.992188 L 491.257812 326.527344 L 490.738281 326.160156 L 490.136719 325.898438 L 489.449219 325.742188 L 488.671875 325.6875 L 488.152344 325.71875 L 487.65625 325.800781 L 487.183594 325.933594 L 486.726562 326.113281 L 486.289062 326.332031 L 485.871094 326.589844 L 485.464844 326.878906 L 485.066406 327.195312 L 484.683594 327.535156 L 484.304688 327.894531 L 484.234375 327.894531 L 484.039062 326.023438 L 482.242188 326.023438 Z M 482.242188 339.054688 "/>
<path style=" stroke:none;fill-rule:nonzero;fill:rgb(0%,0%,0%);fill-opacity:1;" d="M 501.007812 339.367188 L 501.25 339.359375 L 501.492188 339.339844 L 501.734375 339.308594 L 501.980469 339.269531 L 502.226562 339.21875 L 502.46875 339.160156 L 502.710938 339.097656 L 502.949219 339.03125 L 503.183594 338.960938 L 503.410156 338.886719 L 502.976562 337.257812 L 502.84375 337.304688 L 502.699219 337.355469 L 502.550781 337.402344 L 502.398438 337.445312 L 502.242188 337.488281 L 502.085938 337.523438 L 501.929688 337.550781 L 501.777344 337.574219 L 501.628906 337.585938 L 501.488281 337.59375 L 501.066406 337.566406 L 500.699219 337.484375 L 500.386719 337.351562 L 500.125 337.167969 L 499.914062 336.933594 L 499.746094 336.652344 L 499.621094 336.324219 L 499.539062 335.953125 L 499.488281 335.535156 L 499.472656 335.070312 L 499.472656 327.800781 L 503 327.800781 L 503 326.023438 L 499.472656 326.023438 L 499.472656 322.351562 L 497.648438 322.351562 L 497.386719 326.023438 L 495.34375 326.144531 L 495.34375 327.800781 L 497.289062 327.800781 L 497.289062 335.023438 L 497.316406 335.777344 L 497.410156 336.472656 L 497.566406 337.105469 L 497.796875 337.671875 L 498.105469 338.167969 L 498.496094 338.585938 L 498.976562 338.917969 L 499.554688 339.164062 L 500.226562 339.316406 Z M 501.007812 339.367188 "/>
<path style=" stroke:none;fill-rule:nonzero;fill:rgb(0%,0%,0%);fill-opacity:1;" d="M 32.871094 205.355469 L 32.84375 204.6875 L 32.765625 204.054688 L 32.632812 203.449219 L 32.449219 202.871094 L 32.214844 202.324219 L 31.933594 201.800781 L 31.605469 201.304688 L 31.230469 200.832031 L 30.8125 200.382812 L 30.351562 199.957031 L 28.960938 201.179688 L 29.3125 201.523438 L 29.632812 201.875 L 29.925781 202.242188 L 30.179688 202.621094 L 30.402344 203.011719 L 30.585938 203.421875 L 30.734375 203.851562 L 30.839844 204.300781 L 30.90625 204.769531 L 30.929688 205.261719 L 30.84375 206.230469 L 30.601562 207.121094 L 30.207031 207.925781 L 29.664062 208.636719 L 28.980469 209.257812 L 28.164062 209.773438 L 27.222656 210.1875 L 26.160156 210.484375 L 24.984375 210.671875 L 23.703125 210.734375 L 22.4375 210.667969 L 21.277344 210.476562 L 20.226562 210.164062 L 19.296875 209.742188 L 18.492188 209.210938 L 17.820312 208.582031 L 17.285156 207.855469 L 16.894531 207.046875 L 16.65625 206.15625 L 16.574219 205.1875 L 16.597656 204.746094 L 16.65625 204.320312 L 16.753906 203.917969 L 16.882812 203.53125 L 17.046875 203.164062 L 17.238281 202.8125 L 17.460938 202.484375 L 17.703125 202.167969 L 17.96875 201.871094 L 18.257812 201.589844 L 16.816406 200.386719 L 16.480469 200.710938 L 16.15625 201.074219 L 15.847656 201.472656 L 15.558594 201.90625 L 15.300781 202.378906 L 15.074219 202.882812 L 14.890625 203.417969 L 14.75 203.988281 L 14.664062 204.585938 L 14.632812 205.210938 L 14.734375 206.515625 L 15.035156 207.738281 L 15.53125 208.867188 L 16.210938 209.886719 L 17.070312 210.785156 L 18.101562 211.550781 L 19.292969 212.171875 L 20.640625 212.628906 L 22.136719 212.914062 L 23.777344 213.011719 L 25.417969 212.917969 L 26.914062 212.636719 L 28.257812 212.183594 L 29.445312 211.574219 L 30.464844 210.824219 L 31.316406 209.9375 L 31.988281 208.9375 L 32.472656 207.832031 L 32.773438 206.632812 Z M 32.871094 205.355469 "/>
<path style=" stroke:none;fill-rule:nonzero;fill:rgb(0%,0%,0%);fill-opacity:1;" d="M 32.871094 191.820312 L 32.796875 190.875 L 32.578125 189.964844 L 32.214844 189.105469 L 31.71875 188.3125 L 31.082031 187.597656 L 30.320312 186.980469 L 29.433594 186.476562 L 28.421875 186.09375 L 27.296875 185.855469 L 26.054688 185.773438 L 24.808594 185.855469 L 23.675781 186.09375 L 22.65625 186.476562 L 21.761719 186.980469 L 20.996094 187.597656 L 20.355469 188.3125 L 19.855469 189.105469 L 19.488281 189.964844 L 19.265625 190.875 L 19.191406 191.820312 L 19.265625 192.765625 L 19.488281 193.675781 L 19.855469 194.535156 L 20.355469 195.328125 L 20.996094 196.042969 L 21.761719 196.660156 L 22.65625 197.164062 L 23.675781 197.546875 L 24.808594 197.785156 L 26.054688 197.867188 L 27.296875 197.785156 L 28.421875 197.546875 L 29.433594 197.164062 L 30.320312 196.660156 L 31.082031 196.042969 L 31.71875 195.328125 L 32.214844 194.535156 L 32.578125 193.675781 L 32.796875 192.765625 Z M 31.046875 191.820312 L 30.988281 192.472656 L 30.816406 193.078125 L 30.535156 193.628906 L 30.15625 194.121094 L 29.675781 194.550781 L 29.109375 194.910156 L 28.457031 195.199219 L 27.726562 195.414062 L 26.925781 195.542969 L 26.054688 195.589844 L 25.1875 195.542969 L 24.378906 195.414062 L 23.644531 195.199219 L 22.984375 194.910156 L 22.410156 194.550781 L 21.925781 194.121094 L 21.539062 193.628906 L 21.253906 193.078125 L 21.074219 192.472656 L 21.015625 191.820312 L 21.074219 191.167969 L 21.253906 190.558594 L 21.539062 190.007812 L 21.925781 189.511719 L 22.410156 189.078125 L 22.984375 188.714844 L 23.644531 188.421875 L 24.378906 188.207031 L 25.1875 188.074219 L 26.054688 188.027344 L 26.925781 188.074219 L 27.726562 188.207031 L 28.457031 188.421875 L 29.109375 188.714844 L 29.675781 189.078125 L 30.15625 189.511719 L 30.535156 190.007812 L 30.816406 190.558594 L 30.988281 191.167969 Z M 31.046875 191.820312 "/>
<path style=" stroke:none;fill-rule:nonzero;fill:rgb(0%,0%,0%);fill-opacity:1;" d="M 32.871094 177.085938 L 32.855469 176.5625 L 32.804688 176.0625 L 32.722656 175.585938 L 32.613281 175.128906 L 32.480469 174.691406 L 32.324219 174.269531 L 32.144531 173.871094 L 31.953125 173.484375 L 31.746094 173.117188 L 31.527344 172.765625 L 30.089844 173.554688 L 30.273438 173.847656 L 30.445312 174.140625 L 30.597656 174.445312 L 30.730469 174.753906 L 30.847656 175.070312 L 30.941406 175.398438 L 31.019531 175.734375 L 31.074219 176.085938 L 31.109375 176.445312 L 31.121094 176.820312 L 31.066406 177.539062 L 30.914062 178.207031 L 30.660156 178.816406 L 30.316406 179.367188 L 29.882812 179.855469 L 29.367188 180.269531 L 28.773438 180.609375 L 28.101562 180.875 L 27.363281 181.050781 L 26.558594 181.140625 L 26.558594 172.355469 L 26.460938 172.34375 L 26.355469 172.328125 L 26.242188 172.316406 L 26.125 172.300781 L 26 172.289062 L 25.734375 172.273438 L 25.597656 172.265625 L 25.457031 172.261719 L 25.3125 172.261719 L 24.238281 172.316406 L 23.246094 172.480469 L 22.347656 172.753906 L 21.550781 173.132812 L 20.855469 173.609375 L 20.273438 174.1875 L 19.8125 174.863281 L 19.472656 175.632812 L 19.261719 176.496094 L 19.191406 177.445312 L 19.269531 178.34375 L 19.5 179.21875 L 19.875 180.046875 L 20.390625 180.820312 L 21.039062 181.519531 L 21.816406 182.125 L 22.710938 182.625 L 23.71875 183.003906 L 24.835938 183.242188 L 26.054688 183.324219 L 27.289062 183.242188 L 28.414062 183.007812 L 29.421875 182.628906 L 30.3125 182.125 L 31.074219 181.5 L 31.710938 180.773438 L 32.210938 179.957031 L 32.574219 179.0625 L 32.796875 178.097656 Z M 24.976562 181.164062 L 24.246094 181.046875 L 23.578125 180.851562 L 22.984375 180.589844 L 22.457031 180.265625 L 22.007812 179.886719 L 21.628906 179.460938 L 21.335938 178.996094 L 21.117188 178.496094 L 20.988281 177.96875 L 20.945312 177.421875 L 20.984375 176.835938 L 21.113281 176.300781 L 21.320312 175.820312 L 21.609375 175.398438 L 21.980469 175.035156 L 22.425781 174.734375 L 22.953125 174.496094 L 23.550781 174.320312 L 24.226562 174.214844 L 24.976562 174.179688 Z M 24.976562 181.164062 "/>
<path style=" stroke:none;fill-rule:nonzero;fill:rgb(0%,0%,0%);fill-opacity:1;" d="M 32.558594 168.683594 L 32.558594 166.5 L 21.304688 166.5 L 21.304688 163.742188 L 19.527344 163.742188 L 19.527344 166.5 L 17.464844 166.5 L 16.984375 166.484375 L 16.550781 166.429688 L 16.167969 166.335938 L 15.835938 166.210938 L 15.550781 166.042969 L 15.316406 165.84375 L 15.132812 165.601562 L 15 165.324219 L 14.921875 165.007812 L 14.894531 164.652344 L 14.898438 164.515625 L 14.910156 164.371094 L 14.925781 164.226562 L 14.953125 164.078125 L 14.984375 163.929688 L 15.019531 163.78125 L 15.0625 163.628906 L 15.113281 163.480469 L 15.171875 163.332031 L 15.230469 163.1875 L 13.574219 162.707031 L 13.5 162.894531 L 13.429688 163.089844 L 13.367188 163.296875 L 13.308594 163.507812 L 13.261719 163.730469 L 13.21875 163.953125 L 13.1875 164.183594 L 13.164062 164.417969 L 13.148438 164.65625 L 13.144531 164.890625 L 13.191406 165.628906 L 13.335938 166.28125 L 13.574219 166.855469 L 13.894531 167.347656 L 14.300781 167.761719 L 14.789062 168.097656 L 15.347656 168.355469 L 15.980469 168.539062 L 16.679688 168.648438 L 17.441406 168.683594 L 19.527344 168.683594 L 19.648438 170.460938 L 21.304688 170.460938 L 21.304688 168.683594 Z M 32.558594 168.683594 "/>
<path style=" stroke:none;fill-rule:nonzero;fill:rgb(0%,0%,0%);fill-opacity:1;" d="M 32.558594 160.882812 L 32.558594 158.699219 L 21.304688 158.699219 L 21.304688 155.941406 L 19.527344 155.941406 L 19.527344 158.699219 L 17.464844 158.699219 L 16.984375 158.683594 L 16.550781 158.628906 L 16.167969 158.539062 L 15.835938 158.410156 L 15.550781 158.246094 L 15.316406 158.042969 L 15.132812 157.800781 L 15 157.523438 L 14.921875 157.207031 L 14.894531 156.851562 L 14.898438 156.714844 L 14.910156 156.570312 L 14.925781 156.425781 L 14.953125 156.277344 L 14.984375 156.128906 L 15.019531 155.980469 L 15.0625 155.832031 L 15.113281 155.679688 L 15.171875 155.535156 L 15.230469 155.386719 L 13.574219 154.910156 L 13.5 155.09375 L 13.429688 155.289062 L 13.367188 155.496094 L 13.308594 155.707031 L 13.261719 155.929688 L 13.21875 156.15625 L 13.1875 156.386719 L 13.164062 156.617188 L 13.148438 156.855469 L 13.144531 157.09375 L 13.191406 157.828125 L 13.335938 158.480469 L 13.574219 159.054688 L 13.894531 159.546875 L 14.300781 159.960938 L 14.789062 160.296875 L 15.347656 160.554688 L 15.980469 160.738281 L 16.679688 160.847656 L 17.441406 160.882812 L 19.527344 160.882812 L 19.648438 162.660156 L 21.304688 162.660156 L 21.304688 160.882812 Z M 32.558594 160.882812 "/>
<path style=" stroke:none;fill-rule:nonzero;fill:rgb(0%,0%,0%);fill-opacity:1;" d="M 32.558594 153.445312 L 32.558594 151.261719 L 19.527344 151.261719 L 19.527344 153.445312 Z M 16.839844 152.339844 L 16.824219 152.089844 L 16.773438 151.855469 L 16.691406 151.644531 L 16.582031 151.453125 L 16.441406 151.285156 L 16.273438 151.144531 L 16.082031 151.03125 L 15.871094 150.945312 L 15.632812 150.894531 L 15.375 150.875 L 15.132812 150.894531 L 14.90625 150.945312 L 14.699219 151.03125 L 14.515625 151.144531 L 14.351562 151.285156 L 14.214844 151.453125 L 14.105469 151.644531 L 14.027344 151.855469 L 13.976562 152.089844 L 13.960938 152.339844 L 13.976562 152.589844 L 14.027344 152.824219 L 14.105469 153.039062 L 14.214844 153.230469 L 14.351562 153.398438 L 14.515625 153.539062 L 14.699219 153.652344 L 14.90625 153.734375 L 15.132812 153.785156 L 15.375 153.804688 L 15.632812 153.785156 L 15.871094 153.734375 L 16.082031 153.652344 L 16.273438 153.539062 L 16.441406 153.398438 L 16.582031 153.230469 L 16.691406 153.039062 L 16.773438 152.824219 L 16.824219 152.589844 Z M 16.839844 152.339844 "/>
<path style=" stroke:none;fill-rule:nonzero;fill:rgb(0%,0%,0%);fill-opacity:1;" d="M 32.871094 141.589844 L 32.855469 141.066406 L 32.804688 140.566406 L 32.722656 140.089844 L 32.613281 139.632812 L 32.480469 139.195312 L 32.324219 138.773438 L 32.144531 138.375 L 31.953125 137.988281 L 31.746094 137.621094 L 31.527344 137.269531 L 30.089844 138.0625 L 30.273438 138.351562 L 30.445312 138.648438 L 30.597656 138.949219 L 30.730469 139.257812 L 30.847656 139.574219 L 30.941406 139.902344 L 31.019531 140.238281 L 31.074219 140.589844 L 31.109375 140.949219 L 31.121094 141.324219 L 31.066406 142.042969 L 30.914062 142.710938 L 30.660156 143.320312 L 30.316406 143.871094 L 29.882812 144.359375 L 29.367188 144.773438 L 28.773438 145.113281 L 28.101562 145.378906 L 27.363281 145.554688 L 26.558594 145.644531 L 26.558594 136.859375 L 26.460938 136.847656 L 26.355469 136.832031 L 26.242188 136.820312 L 26.125 136.804688 L 26 136.792969 L 25.734375 136.777344 L 25.597656 136.769531 L 25.457031 136.765625 L 25.3125 136.765625 L 24.238281 136.820312 L 23.246094 136.984375 L 22.347656 137.257812 L 21.550781 137.636719 L 20.855469 138.113281 L 20.273438 138.691406 L 19.8125 139.367188 L 19.472656 140.136719 L 19.261719 141 L 19.191406 141.949219 L 19.269531 142.847656 L 19.5 143.722656 L 19.875 144.550781 L 20.390625 145.324219 L 21.039062 146.023438 L 21.816406 146.628906 L 22.710938 147.128906 L 23.71875 147.507812 L 24.835938 147.746094 L 26.054688 147.828125 L 27.289062 147.746094 L 28.414062 147.511719 L 29.421875 147.132812 L 30.3125 146.628906 L 31.074219 146.003906 L 31.710938 145.277344 L 32.210938 144.460938 L 32.574219 143.566406 L 32.796875 142.601562 Z M 24.976562 145.667969 L 24.246094 145.550781 L 23.578125 145.355469 L 22.984375 145.09375 L 22.457031 144.769531 L 22.007812 144.390625 L 21.628906 143.964844 L 21.335938 143.5 L 21.117188 143 L 20.988281 142.472656 L 20.945312 141.925781 L 20.984375 141.339844 L 21.113281 140.804688 L 21.320312 140.324219 L 21.609375 139.902344 L 21.980469 139.539062 L 22.425781 139.238281 L 22.953125 139 L 23.550781 138.824219 L 24.226562 138.71875 L 24.976562 138.683594 Z M 24.976562 145.667969 "/>
<path style=" stroke:none;fill-rule:nonzero;fill:rgb(0%,0%,0%);fill-opacity:1;" d="M 32.871094 128.414062 L 32.855469 127.945312 L 32.800781 127.488281 L 32.714844 127.035156 L 32.59375 126.589844 L 32.441406 126.15625 L 32.253906 125.734375 L 32.039062 125.324219 L 31.792969 124.929688 L 31.519531 124.550781 L 31.214844 124.1875 L 29.753906 125.148438 L 29.96875 125.402344 L 30.171875 125.667969 L 30.359375 125.945312 L 30.53125 126.238281 L 30.679688 126.539062 L 30.804688 126.855469 L 30.910156 127.183594 L 30.984375 127.519531 L 31.03125 127.863281 L 31.046875 128.21875 L 30.988281 128.917969 L 30.816406 129.5625 L 30.535156 130.148438 L 30.15625 130.675781 L 29.675781 131.136719 L 29.109375 131.523438 L 28.457031 131.835938 L 27.726562 132.0625 L 26.925781 132.203125 L 26.054688 132.253906 L 25.1875 132.203125 L 24.378906 132.054688 L 23.644531 131.816406 L 22.984375 131.492188 L 22.410156 131.089844 L 21.925781 130.621094 L 21.539062 130.082031 L 21.253906 129.488281 L 21.074219 128.839844 L 21.015625 128.148438 L 21.03125 127.847656 L 21.070312 127.554688 L 21.136719 127.277344 L 21.226562 127.011719 L 21.339844 126.753906 L 21.472656 126.503906 L 21.621094 126.261719 L 21.789062 126.023438 L 21.972656 125.789062 L 22.167969 125.554688 L 20.726562 124.429688 L 20.488281 124.71875 L 20.253906 125.019531 L 20.035156 125.34375 L 19.835938 125.683594 L 19.652344 126.046875 L 19.496094 126.433594 L 19.371094 126.847656 L 19.273438 127.285156 L 19.214844 127.75 L 19.191406 128.246094 L 19.265625 129.230469 L 19.488281 130.179688 L 19.855469 131.074219 L 20.355469 131.898438 L 20.996094 132.640625 L 21.761719 133.28125 L 22.65625 133.804688 L 23.675781 134.199219 L 24.808594 134.445312 L 26.054688 134.53125 L 27.296875 134.453125 L 28.421875 134.226562 L 29.433594 133.863281 L 30.320312 133.375 L 31.082031 132.769531 L 31.71875 132.058594 L 32.214844 131.257812 L 32.578125 130.375 L 32.796875 129.421875 Z M 32.871094 128.414062 "/>
<path style=" stroke:none;fill-rule:nonzero;fill:rgb(0%,0%,0%);fill-opacity:1;" d="M 32.558594 121.332031 L 32.558594 119.148438 L 19.527344 119.148438 L 19.527344 121.332031 Z M 16.839844 120.230469 L 16.824219 119.976562 L 16.773438 119.746094 L 16.691406 119.53125 L 16.582031 119.339844 L 16.441406 119.171875 L 16.273438 119.03125 L 16.082031 118.917969 L 15.871094 118.832031 L 15.632812 118.78125 L 15.375 118.765625 L 15.132812 118.78125 L 14.90625 118.832031 L 14.699219 118.917969 L 14.515625 119.03125 L 14.351562 119.171875 L 14.214844 119.339844 L 14.105469 119.53125 L 14.027344 119.746094 L 13.976562 119.976562 L 13.960938 120.230469 L 13.976562 120.480469 L 14.027344 120.710938 L 14.105469 120.925781 L 14.214844 121.117188 L 14.351562 121.285156 L 14.515625 121.425781 L 14.699219 121.539062 L 14.90625 121.625 L 15.132812 121.675781 L 15.375 121.691406 L 15.632812 121.675781 L 15.871094 121.625 L 16.082031 121.539062 L 16.273438 121.425781 L 16.441406 121.285156 L 16.582031 121.117188 L 16.691406 120.925781 L 16.773438 120.710938 L 16.824219 120.480469 Z M 16.839844 120.230469 "/>
<path style=" stroke:none;fill-rule:nonzero;fill:rgb(0%,0%,0%);fill-opacity:1;" d="M 32.871094 109.476562 L 32.855469 108.957031 L 32.804688 108.457031 L 32.722656 107.976562 L 32.613281 107.519531 L 32.480469 107.082031 L 32.324219 106.664062 L 32.144531 106.261719 L 31.953125 105.878906 L 31.746094 105.507812 L 31.527344 105.15625 L 30.089844 105.949219 L 30.273438 106.238281 L 30.445312 106.535156 L 30.597656 106.835938 L 30.730469 107.144531 L 30.847656 107.464844 L 30.941406 107.789062 L 31.019531 108.128906 L 31.074219 108.476562 L 31.109375 108.839844 L 31.121094 109.210938 L 31.066406 109.929688 L 30.914062 110.597656 L 30.660156 111.207031 L 30.316406 111.757812 L 29.882812 112.246094 L 29.367188 112.660156 L 28.773438 113.003906 L 28.101562 113.265625 L 27.363281 113.441406 L 26.558594 113.53125 L 26.558594 104.75 L 26.460938 104.734375 L 26.355469 104.71875 L 26.242188 104.707031 L 26.125 104.695312 L 26 104.683594 L 25.867188 104.671875 L 25.734375 104.664062 L 25.597656 104.65625 L 25.457031 104.652344 L 25.3125 104.652344 L 24.238281 104.707031 L 23.246094 104.875 L 22.347656 105.144531 L 21.550781 105.523438 L 20.855469 106.003906 L 20.273438 106.582031 L 19.8125 107.257812 L 19.472656 108.027344 L 19.261719 108.886719 L 19.191406 109.835938 L 19.269531 110.734375 L 19.5 111.609375 L 19.875 112.441406 L 20.390625 113.210938 L 21.039062 113.910156 L 21.816406 114.519531 L 22.710938 115.019531 L 23.71875 115.394531 L 24.835938 115.632812 L 26.054688 115.714844 L 27.289062 115.636719 L 28.414062 115.398438 L 29.421875 115.023438 L 30.3125 114.515625 L 31.074219 113.890625 L 31.710938 113.167969 L 32.210938 112.347656 L 32.574219 111.453125 L 32.796875 110.492188 Z M 24.976562 113.554688 L 24.246094 113.4375 L 23.578125 113.242188 L 22.984375 112.980469 L 22.457031 112.65625 L 22.007812 112.277344 L 21.628906 111.851562 L 21.335938 111.386719 L 21.117188 110.886719 L 20.988281 110.359375 L 20.945312 109.8125 L 20.984375 109.226562 L 21.113281 108.691406 L 21.320312 108.214844 L 21.609375 107.789062 L 21.980469 107.425781 L 22.425781 107.125 L 22.953125 106.886719 L 23.550781 106.714844 L 24.226562 106.609375 L 24.976562 106.574219 Z M 24.976562 113.554688 "/>
<path style=" stroke:none;fill-rule:nonzero;fill:rgb(0%,0%,0%);fill-opacity:1;" d="M 32.558594 101.4375 L 32.558594 99.253906 L 23.105469 99.253906 L 22.726562 98.867188 L 22.390625 98.503906 L 22.089844 98.152344 L 21.832031 97.8125 L 21.613281 97.472656 L 21.433594 97.136719 L 21.292969 96.792969 L 21.191406 96.4375 L 21.132812 96.066406 L 21.113281 95.675781 L 21.144531 95.1875 L 21.238281 94.757812 L 21.402344 94.378906 L 21.632812 94.058594 L 21.933594 93.792969 L 22.308594 93.578125 L 22.761719 93.410156 L 23.289062 93.296875 L 23.898438 93.226562 L 24.59375 93.203125 L 32.558594 93.203125 L 32.558594 91.019531 L 24.304688 91.019531 L 23.351562 91.058594 L 22.492188 91.171875 L 21.730469 91.363281 L 21.0625 91.636719 L 20.496094 91.988281 L 20.03125 92.421875 L 19.664062 92.9375 L 19.402344 93.539062 L 19.246094 94.226562 L 19.191406 95.003906 L 19.222656 95.523438 L 19.304688 96.019531 L 19.4375 96.496094 L 19.617188 96.949219 L 19.835938 97.386719 L 20.09375 97.808594 L 20.382812 98.214844 L 20.699219 98.609375 L 21.039062 98.996094 L 21.398438 99.371094 L 21.398438 99.445312 L 19.527344 99.636719 L 19.527344 101.4375 Z M 32.558594 101.4375 "/>
<path style=" stroke:none;fill-rule:nonzero;fill:rgb(0%,0%,0%);fill-opacity:1;" d="M 32.871094 82.667969 L 32.863281 82.429688 L 32.84375 82.1875 L 32.8125 81.941406 L 32.773438 81.695312 L 32.722656 81.449219 L 32.664062 81.207031 L 32.601562 80.964844 L 32.535156 80.726562 L 32.464844 80.496094 L 32.390625 80.269531 L 30.761719 80.699219 L 30.808594 80.835938 L 30.859375 80.976562 L 30.90625 81.125 L 30.992188 81.4375 L 31.027344 81.59375 L 31.054688 81.746094 L 31.078125 81.898438 L 31.089844 82.046875 L 31.097656 82.1875 L 31.070312 82.613281 L 30.988281 82.980469 L 30.855469 83.289062 L 30.671875 83.550781 L 30.4375 83.761719 L 30.15625 83.929688 L 29.828125 84.054688 L 29.457031 84.140625 L 29.039062 84.1875 L 28.574219 84.203125 L 21.304688 84.203125 L 21.304688 80.675781 L 19.527344 80.675781 L 19.527344 84.203125 L 15.855469 84.203125 L 15.855469 86.027344 L 19.527344 86.292969 L 19.648438 88.332031 L 21.304688 88.332031 L 21.304688 86.386719 L 28.527344 86.386719 L 29.28125 86.359375 L 29.976562 86.269531 L 30.609375 86.109375 L 31.175781 85.882812 L 31.671875 85.574219 L 32.089844 85.179688 L 32.421875 84.699219 L 32.667969 84.125 L 32.820312 83.449219 Z M 32.871094 82.667969 "/>
</g>
</svg>
