<?xml version="1.0" encoding="UTF-8"?>
<svg xmlns="http://www.w3.org/2000/svg" xmlns:xlink="http://www.w3.org/1999/xlink" width="720pt" height="360pt" viewBox="0 0 720 360" version="1.1">
<defs>
<clipPath id="clip1">
  <path d="M 106.113281 255 L 705.054688 255 L 705.054688 259 L 106.113281 259 Z M 106.113281 255 "/>
</clipPath>
<clipPath id="clip2">
  <path d="M 106.113281 205 L 705.054688 205 L 705.054688 209 L 106.113281 209 Z M 106.113281 205 "/>
</clipPath>
<clipPath id="clip3">
  <path d="M 106.113281 154 L 705.054688 154 L 705.054688 158 L 106.113281 158 Z M 106.113281 154 "/>
</clipPath>
<clipPath id="clip4">
  <path d="M 106.113281 103 L 705.054688 103 L 705.054688 107 L 106.113281 107 Z M 106.113281 103 "/>
</clipPath>
<clipPath id="clip5">
  <path d="M 106.113281 52 L 705.054688 52 L 705.054688 56 L 106.113281 56 Z M 106.113281 52 "/>
</clipPath>
<clipPath id="clip6">
  <path d="M 278 14.945312 L 280 14.945312 L 280 279.394531 L 278 279.394531 Z M 278 14.945312 "/>
</clipPath>
<clipPath id="clip7">
  <path d="M 106.113281 256 L 705.054688 256 L 705.054688 258 L 106.113281 258 Z M 106.113281 256 "/>
</clipPath>
</defs>
<g id="surface10">
<rect x="0" y="0" width="720" height="360" style="fill:rgb(100%,100%,100%);fill-opacity:1;stroke:none;"/>
<g clip-path="url(#clip1)" clip-rule="nonzero">
<path style="fill:none;stroke-width:2.909941;stroke-linecap:butt;stroke-linejoin:round;stroke:rgb(92.156863%,92.156863%,92.156863%);stroke-opacity:1;stroke-miterlimit:10;" d="M 106.113281 257.445312 L 705.054688 257.445312 "/>
</g>
<g clip-path="url(#clip2)" clip-rule="nonzero">
<path style="fill:none;stroke-width:2.909941;stroke-linecap:butt;stroke-linejoin:round;stroke:rgb(92.156863%,92.156863%,92.156863%);stroke-opacity:1;stroke-miterlimit:10;" d="M 106.113281 206.605469 L 705.054688 206.605469 "/>
</g>
<g clip-path="url(#clip3)" clip-rule="nonzero">
<path style="fill:none;stroke-width:2.909941;stroke-linecap:butt;stroke-linejoin:round;stroke:rgb(92.156863%,92.156863%,92.156863%);stroke-opacity:1;stroke-miterlimit:10;" d="M 106.113281 155.769531 L 705.054688 155.769531 "/>
</g>
<g clip-path="url(#clip4)" clip-rule="nonzero">
<path style="fill:none;stroke-width:2.909941;stroke-linecap:butt;stroke-linejoin:round;stroke:rgb(92.156863%,92.156863%,92.156863%);stroke-opacity:1;stroke-miterlimit:10;" d="M 106.113281 104.929688 L 705.054688 104.929688 "/>
</g>
<g clip-path="url(#clip5)" clip-rule="nonzero">
<path style="fill:none;stroke-width:2.909941;stroke-linecap:butt;stroke-linejoin:round;stroke:rgb(92.156863%,92.156863%,92.156863%);stroke-opacity:1;stroke-miterlimit:10;" d="M 106.113281 54.09375 L 705.054688 54.09375 "/>
</g>
<path style="fill:none;stroke-width:1.066978;stroke-linecap:butt;stroke-linejoin:round;stroke:rgb(0%,62.352941%,54.901961%);stroke-opacity:1;stroke-miterlimit:10;" d="M 133.339844 262.972656 L 169.636719 262.324219 L 205.9375 267.371094 L 242.238281 206.960938 L 278.535156 257.445312 L 314.835938 47.535156 L 351.136719 30.058594 L 387.433594 70.777344 L 423.734375 87.613281 L 460.035156 64.058594 L 496.332031 71.234375 L 532.632812 113.625 L 568.933594 40.546875 L 605.230469 26.964844 L 641.53125 53.007812 L 677.832031 66.730469 "/>
<g clip-path="url(#clip6)" clip-rule="nonzero">
<path style="fill:none;stroke-width:1.066978;stroke-linecap:butt;stroke-linejoin:round;stroke:rgb(0%,0%,0%);stroke-opacity:1;stroke-dasharray:4.267913,4.267913;stroke-miterlimit:10;" d="M 278.535156 279.394531 L 278.535156 14.945312 "/>
</g>
<g clip-path="url(#clip7)" clip-rule="nonzero">
<path style="fill:none;stroke-width:1.066978;stroke-linecap:butt;stroke-linejoin:round;stroke:rgb(0%,0%,0%);stroke-opacity:1;stroke-miterlimit:10;" d="M 106.113281 257.445312 L 705.054688 257.445312 "/>
</g>
<path style=" stroke:none;fill-rule:nonzero;fill:rgb(30.196078%,30.196078%,30.196078%);fill-opacity:1;" d="M 52.703125 266.566406 L 53.667969 266.472656 L 54.554688 266.199219 L 55.355469 265.742188 L 56.070312 265.101562 L 56.691406 264.277344 L 57.210938 263.269531 L 57.625 262.074219 L 57.925781 260.699219 L 58.113281 259.140625 L 58.175781 257.398438 L 58.113281 255.660156 L 57.925781 254.113281 L 57.625 252.75 L 57.210938 251.570312 L 56.691406 250.574219 L 56.070312 249.761719 L 55.355469 249.132812 L 54.554688 248.683594 L 53.667969 248.414062 L 52.703125 248.324219 L 51.734375 248.414062 L 50.84375 248.679688 L 50.035156 249.128906 L 49.316406 249.753906 L 48.695312 250.566406 L 48.175781 251.558594 L 47.761719 252.738281 L 47.457031 254.101562 L 47.269531 255.65625 L 47.207031 257.398438 L 47.269531 259.140625 L 47.457031 260.699219 L 47.761719 262.074219 L 48.175781 263.269531 L 48.695312 264.277344 L 49.316406 265.101562 L 50.035156 265.742188 L 50.84375 266.199219 L 51.734375 266.472656 Z M 52.703125 264.8125 L 52.121094 264.746094 L 51.582031 264.539062 L 51.089844 264.191406 L 50.648438 263.695312 L 50.269531 263.050781 L 49.945312 262.246094 L 49.6875 261.285156 L 49.5 260.160156 L 49.382812 258.863281 L 49.34375 257.398438 L 49.382812 255.945312 L 49.5 254.664062 L 49.6875 253.550781 L 49.945312 252.601562 L 50.269531 251.8125 L 50.648438 251.175781 L 51.089844 250.6875 L 51.582031 250.34375 L 52.121094 250.144531 L 52.703125 250.078125 L 53.28125 250.144531 L 53.816406 250.34375 L 54.304688 250.6875 L 54.738281 251.175781 L 55.117188 251.8125 L 55.4375 252.601562 L 55.695312 253.550781 L 55.882812 254.664062 L 56 255.945312 L 56.039062 257.398438 L 56 258.863281 L 55.882812 260.160156 L 55.695312 261.285156 L 55.4375 262.246094 L 55.117188 263.050781 L 54.738281 263.695312 L 54.304688 264.191406 L 53.816406 264.539062 L 53.28125 264.746094 Z M 52.703125 264.8125 "/>
<path style=" stroke:none;fill-rule:nonzero;fill:rgb(30.196078%,30.196078%,30.196078%);fill-opacity:1;" d="M 62.6875 266.566406 L 62.941406 266.546875 L 63.183594 266.488281 L 63.410156 266.394531 L 63.617188 266.265625 L 63.804688 266.105469 L 63.964844 265.917969 L 64.09375 265.699219 L 64.191406 265.457031 L 64.25 265.195312 L 64.273438 264.910156 L 64.25 264.617188 L 64.191406 264.34375 L 64.09375 264.097656 L 63.964844 263.875 L 63.804688 263.679688 L 63.617188 263.515625 L 63.410156 263.382812 L 63.183594 263.285156 L 62.941406 263.226562 L 62.6875 263.203125 L 62.433594 263.226562 L 62.191406 263.285156 L 61.964844 263.382812 L 61.757812 263.515625 L 61.570312 263.679688 L 61.414062 263.875 L 61.28125 264.097656 L 61.1875 264.34375 L 61.125 264.617188 L 61.105469 264.910156 L 61.125 265.195312 L 61.1875 265.457031 L 61.28125 265.699219 L 61.414062 265.917969 L 61.570312 266.105469 L 61.757812 266.265625 L 61.964844 266.394531 L 62.191406 266.488281 L 62.433594 266.546875 Z M 62.6875 266.566406 "/>
<path style=" stroke:none;fill-rule:nonzero;fill:rgb(30.196078%,30.196078%,30.196078%);fill-opacity:1;" d="M 72.695312 266.566406 L 73.660156 266.472656 L 74.546875 266.199219 L 75.347656 265.742188 L 76.0625 265.101562 L 76.683594 264.277344 L 77.203125 263.269531 L 77.617188 262.074219 L 77.917969 260.699219 L 78.105469 259.140625 L 78.167969 257.398438 L 78.105469 255.660156 L 77.917969 254.113281 L 77.617188 252.75 L 77.203125 251.570312 L 76.683594 250.574219 L 76.0625 249.761719 L 75.347656 249.132812 L 74.546875 248.683594 L 73.660156 248.414062 L 72.695312 248.324219 L 71.726562 248.414062 L 70.835938 248.679688 L 70.027344 249.128906 L 69.308594 249.753906 L 68.6875 250.566406 L 68.167969 251.558594 L 67.753906 252.738281 L 67.449219 254.101562 L 67.261719 255.65625 L 67.199219 257.398438 L 67.261719 259.140625 L 67.449219 260.699219 L 67.753906 262.074219 L 68.167969 263.269531 L 68.6875 264.277344 L 69.308594 265.101562 L 70.027344 265.742188 L 70.835938 266.199219 L 71.726562 266.472656 Z M 72.695312 264.8125 L 72.113281 264.746094 L 71.574219 264.539062 L 71.082031 264.191406 L 70.640625 263.695312 L 70.261719 263.050781 L 69.9375 262.246094 L 69.679688 261.285156 L 69.492188 260.160156 L 69.375 258.863281 L 69.335938 257.398438 L 69.375 255.945312 L 69.492188 254.664062 L 69.679688 253.550781 L 69.9375 252.601562 L 70.261719 251.8125 L 70.640625 251.175781 L 71.082031 250.6875 L 71.574219 250.34375 L 72.113281 250.144531 L 72.695312 250.078125 L 73.273438 250.144531 L 73.808594 250.34375 L 74.296875 250.6875 L 74.730469 251.175781 L 75.109375 251.8125 L 75.429688 252.601562 L 75.6875 253.550781 L 75.875 254.664062 L 75.992188 255.945312 L 76.03125 257.398438 L 75.992188 258.863281 L 75.875 260.160156 L 75.6875 261.285156 L 75.429688 262.246094 L 75.109375 263.050781 L 74.730469 263.695312 L 74.296875 264.191406 L 73.808594 264.539062 L 73.273438 264.746094 Z M 72.695312 264.8125 "/>
<path style=" stroke:none;fill-rule:nonzero;fill:rgb(30.196078%,30.196078%,30.196078%);fill-opacity:1;" d="M 86.015625 266.566406 L 86.980469 266.472656 L 87.867188 266.199219 L 88.667969 265.742188 L 89.382812 265.101562 L 90.003906 264.277344 L 90.523438 263.269531 L 90.9375 262.074219 L 91.238281 260.699219 L 91.425781 259.140625 L 91.488281 257.398438 L 91.425781 255.660156 L 91.238281 254.113281 L 90.9375 252.75 L 90.523438 251.570312 L 90.003906 250.574219 L 89.382812 249.761719 L 88.667969 249.132812 L 87.867188 248.683594 L 86.980469 248.414062 L 86.015625 248.324219 L 85.046875 248.414062 L 84.152344 248.679688 L 83.347656 249.128906 L 82.628906 249.753906 L 82.007812 250.566406 L 81.488281 251.558594 L 81.070312 252.738281 L 80.769531 254.101562 L 80.582031 255.65625 L 80.519531 257.398438 L 80.582031 259.140625 L 80.769531 260.699219 L 81.070312 262.074219 L 81.488281 263.269531 L 82.007812 264.277344 L 82.628906 265.101562 L 83.347656 265.742188 L 84.152344 266.199219 L 85.046875 266.472656 Z M 86.015625 264.8125 L 85.433594 264.746094 L 84.890625 264.539062 L 84.402344 264.191406 L 83.960938 263.695312 L 83.578125 263.050781 L 83.257812 262.246094 L 83 261.285156 L 82.8125 260.160156 L 82.695312 258.863281 L 82.65625 257.398438 L 82.695312 255.945312 L 82.8125 254.664062 L 83 253.550781 L 83.257812 252.601562 L 83.578125 251.8125 L 83.960938 251.175781 L 84.402344 250.6875 L 84.890625 250.34375 L 85.433594 250.144531 L 86.015625 250.078125 L 86.59375 250.144531 L 87.128906 250.34375 L 87.613281 250.6875 L 88.050781 251.175781 L 88.429688 251.8125 L 88.75 252.601562 L 89.007812 253.550781 L 89.195312 254.664062 L 89.3125 255.945312 L 89.351562 257.398438 L 89.3125 258.863281 L 89.195312 260.160156 L 89.007812 261.285156 L 88.75 262.246094 L 88.429688 263.050781 L 88.050781 263.695312 L 87.613281 264.191406 L 87.128906 264.539062 L 86.59375 264.746094 Z M 86.015625 264.8125 "/>
<path style=" stroke:none;fill-rule:nonzero;fill:rgb(30.196078%,30.196078%,30.196078%);fill-opacity:1;" d="M 52.703125 215.726562 L 53.667969 215.636719 L 54.554688 215.359375 L 55.355469 214.902344 L 56.070312 214.261719 L 56.691406 213.4375 L 57.210938 212.429688 L 57.625 211.238281 L 57.925781 209.863281 L 58.113281 208.300781 L 58.175781 206.558594 L 58.113281 204.824219 L 57.925781 203.273438 L 57.625 201.910156 L 57.210938 200.730469 L 56.691406 199.738281 L 56.070312 198.925781 L 55.355469 198.292969 L 54.554688 197.84375 L 53.667969 197.578125 L 52.703125 197.488281 L 51.734375 197.574219 L 50.84375 197.84375 L 50.035156 198.289062 L 49.316406 198.917969 L 48.695312 199.726562 L 48.175781 200.722656 L 47.761719 201.898438 L 47.457031 203.265625 L 47.269531 204.816406 L 47.207031 206.558594 L 47.269531 208.300781 L 47.457031 209.863281 L 47.761719 211.238281 L 48.175781 212.429688 L 48.695312 213.4375 L 49.316406 214.261719 L 50.035156 214.902344 L 50.84375 215.359375 L 51.734375 215.636719 Z M 52.703125 213.976562 L 52.121094 213.90625 L 51.582031 213.699219 L 51.089844 213.351562 L 50.648438 212.855469 L 50.269531 212.210938 L 49.945312 211.410156 L 49.6875 210.445312 L 49.5 209.320312 L 49.382812 208.027344 L 49.34375 206.558594 L 49.382812 205.105469 L 49.5 203.824219 L 49.6875 202.710938 L 49.945312 201.761719 L 50.269531 200.972656 L 50.648438 200.335938 L 51.089844 199.847656 L 51.582031 199.507812 L 52.121094 199.304688 L 52.703125 199.238281 L 53.28125 199.304688 L 53.816406 199.507812 L 54.304688 199.847656 L 54.738281 200.335938 L 55.117188 200.972656 L 55.4375 201.761719 L 55.695312 202.710938 L 55.882812 203.824219 L 56 205.105469 L 56.039062 206.558594 L 56 208.027344 L 55.882812 209.320312 L 55.695312 210.445312 L 55.4375 211.410156 L 55.117188 212.210938 L 54.738281 212.855469 L 54.304688 213.351562 L 53.816406 213.699219 L 53.28125 213.90625 Z M 52.703125 213.976562 "/>
<path style=" stroke:none;fill-rule:nonzero;fill:rgb(30.196078%,30.196078%,30.196078%);fill-opacity:1;" d="M 62.6875 215.726562 L 62.941406 215.707031 L 63.183594 215.648438 L 63.410156 215.554688 L 63.617188 215.425781 L 63.804688 215.269531 L 63.964844 215.078125 L 64.09375 214.863281 L 64.191406 214.621094 L 64.25 214.355469 L 64.273438 214.070312 L 64.25 213.777344 L 64.191406 213.507812 L 64.09375 213.257812 L 63.964844 213.035156 L 63.804688 212.839844 L 63.617188 212.675781 L 63.410156 212.542969 L 63.183594 212.445312 L 62.941406 212.386719 L 62.6875 212.367188 L 62.433594 212.386719 L 62.191406 212.445312 L 61.964844 212.542969 L 61.757812 212.675781 L 61.570312 212.839844 L 61.414062 213.035156 L 61.28125 213.257812 L 61.1875 213.507812 L 61.125 213.777344 L 61.105469 214.070312 L 61.125 214.355469 L 61.1875 214.621094 L 61.28125 214.863281 L 61.414062 215.078125 L 61.570312 215.269531 L 61.757812 215.425781 L 61.964844 215.554688 L 62.191406 215.648438 L 62.433594 215.707031 Z M 62.6875 215.726562 "/>
<path style=" stroke:none;fill-rule:nonzero;fill:rgb(30.196078%,30.196078%,30.196078%);fill-opacity:1;" d="M 72.695312 215.726562 L 73.660156 215.636719 L 74.546875 215.359375 L 75.347656 214.902344 L 76.0625 214.261719 L 76.683594 213.4375 L 77.203125 212.429688 L 77.617188 211.238281 L 77.917969 209.863281 L 78.105469 208.300781 L 78.167969 206.558594 L 78.105469 204.824219 L 77.917969 203.273438 L 77.617188 201.910156 L 77.203125 200.730469 L 76.683594 199.738281 L 76.0625 198.925781 L 75.347656 198.292969 L 74.546875 197.84375 L 73.660156 197.578125 L 72.695312 197.488281 L 71.726562 197.574219 L 70.835938 197.84375 L 70.027344 198.289062 L 69.308594 198.917969 L 68.6875 199.726562 L 68.167969 200.722656 L 67.753906 201.898438 L 67.449219 203.265625 L 67.261719 204.816406 L 67.199219 206.558594 L 67.261719 208.300781 L 67.449219 209.863281 L 67.753906 211.238281 L 68.167969 212.429688 L 68.6875 213.4375 L 69.308594 214.261719 L 70.027344 214.902344 L 70.835938 215.359375 L 71.726562 215.636719 Z M 72.695312 213.976562 L 72.113281 213.90625 L 71.574219 213.699219 L 71.082031 213.351562 L 70.640625 212.855469 L 70.261719 212.210938 L 69.9375 211.410156 L 69.679688 210.445312 L 69.492188 209.320312 L 69.375 208.027344 L 69.335938 206.558594 L 69.375 205.105469 L 69.492188 203.824219 L 69.679688 202.710938 L 69.9375 201.761719 L 70.261719 200.972656 L 70.640625 200.335938 L 71.082031 199.847656 L 71.574219 199.507812 L 72.113281 199.304688 L 72.695312 199.238281 L 73.273438 199.304688 L 73.808594 199.507812 L 74.296875 199.847656 L 74.730469 200.335938 L 75.109375 200.972656 L 75.429688 201.761719 L 75.6875 202.710938 L 75.875 203.824219 L 75.992188 205.105469 L 76.03125 206.558594 L 75.992188 208.027344 L 75.875 209.320312 L 75.6875 210.445312 L 75.429688 211.410156 L 75.109375 212.210938 L 74.730469 212.855469 L 74.296875 213.351562 L 73.808594 213.699219 L 73.273438 213.90625 Z M 72.695312 213.976562 "/>
<path style=" stroke:none;fill-rule:nonzero;fill:rgb(30.196078%,30.196078%,30.196078%);fill-opacity:1;" d="M 85.609375 215.726562 L 86.492188 215.660156 L 87.351562 215.46875 L 88.164062 215.152344 L 88.921875 214.710938 L 89.605469 214.152344 L 90.199219 213.476562 L 90.6875 212.6875 L 91.054688 211.792969 L 91.285156 210.785156 L 91.367188 209.679688 L 91.296875 208.582031 L 91.097656 207.613281 L 90.777344 206.765625 L 90.34375 206.042969 L 89.8125 205.433594 L 89.195312 204.941406 L 88.5 204.5625 L 87.738281 204.296875 L 86.925781 204.140625 L 86.0625 204.085938 L 85.753906 204.09375 L 85.460938 204.117188 L 85.183594 204.15625 L 84.914062 204.207031 L 84.65625 204.273438 L 84.40625 204.351562 L 84.164062 204.441406 L 83.921875 204.542969 L 83.683594 204.660156 L 83.449219 204.78125 L 83.878906 199.695312 L 90.527344 199.695312 L 90.527344 197.796875 L 81.960938 197.796875 L 81.40625 206.054688 L 82.582031 206.773438 L 82.878906 206.582031 L 83.164062 206.410156 L 83.4375 206.253906 L 83.710938 206.121094 L 83.984375 206.007812 L 84.261719 205.914062 L 84.550781 205.839844 L 84.851562 205.785156 L 85.171875 205.753906 L 85.511719 205.742188 L 86.152344 205.785156 L 86.738281 205.917969 L 87.273438 206.132812 L 87.75 206.429688 L 88.164062 206.800781 L 88.511719 207.25 L 88.789062 207.773438 L 88.992188 208.367188 L 89.117188 209.027344 L 89.160156 209.75 L 89.109375 210.492188 L 88.96875 211.167969 L 88.742188 211.78125 L 88.4375 212.320312 L 88.0625 212.789062 L 87.625 213.179688 L 87.136719 213.492188 L 86.597656 213.71875 L 86.023438 213.855469 L 85.414062 213.902344 L 84.828125 213.875 L 84.28125 213.796875 L 83.773438 213.671875 L 83.304688 213.507812 L 82.867188 213.308594 L 82.464844 213.078125 L 82.089844 212.824219 L 81.738281 212.546875 L 81.40625 212.257812 L 81.097656 211.957031 L 80.015625 213.398438 L 80.382812 213.75 L 80.785156 214.09375 L 81.226562 214.421875 L 81.703125 214.726562 L 82.226562 215.003906 L 82.796875 215.246094 L 83.414062 215.445312 L 84.089844 215.597656 L 84.816406 215.691406 Z M 85.609375 215.726562 "/>
<path style=" stroke:none;fill-rule:nonzero;fill:rgb(30.196078%,30.196078%,30.196078%);fill-opacity:1;" d="M 52.703125 164.890625 L 53.667969 164.796875 L 54.554688 164.523438 L 55.355469 164.066406 L 56.070312 163.425781 L 56.691406 162.601562 L 57.210938 161.589844 L 57.625 160.398438 L 57.925781 159.023438 L 58.113281 157.464844 L 58.175781 155.71875 L 58.113281 153.984375 L 57.925781 152.4375 L 57.625 151.074219 L 57.210938 149.894531 L 56.691406 148.898438 L 56.070312 148.085938 L 55.355469 147.457031 L 54.554688 147.007812 L 53.667969 146.738281 L 52.703125 146.648438 L 51.734375 146.738281 L 50.84375 147.003906 L 50.035156 147.453125 L 49.316406 148.078125 L 48.695312 148.890625 L 48.175781 149.882812 L 47.761719 151.0625 L 47.457031 152.425781 L 47.269531 153.980469 L 47.207031 155.71875 L 47.269531 157.464844 L 47.457031 159.023438 L 47.761719 160.398438 L 48.175781 161.589844 L 48.695312 162.601562 L 49.316406 163.425781 L 50.035156 164.066406 L 50.84375 164.523438 L 51.734375 164.796875 Z M 52.703125 163.136719 L 52.121094 163.070312 L 51.582031 162.863281 L 51.089844 162.515625 L 50.648438 162.019531 L 50.269531 161.371094 L 49.945312 160.570312 L 49.6875 159.609375 L 49.5 158.484375 L 49.382812 157.1875 L 49.34375 155.71875 L 49.382812 154.269531 L 49.5 152.988281 L 49.6875 151.875 L 49.945312 150.925781 L 50.269531 150.132812 L 50.648438 149.5 L 51.089844 149.011719 L 51.582031 148.667969 L 52.121094 148.46875 L 52.703125 148.402344 L 53.28125 148.46875 L 53.816406 148.667969 L 54.304688 149.011719 L 54.738281 149.5 L 55.117188 150.132812 L 55.4375 150.925781 L 55.695312 151.875 L 55.882812 152.988281 L 56 154.269531 L 56.039062 155.71875 L 56 157.1875 L 55.882812 158.484375 L 55.695312 159.609375 L 55.4375 160.570312 L 55.117188 161.371094 L 54.738281 162.019531 L 54.304688 162.515625 L 53.816406 162.863281 L 53.28125 163.070312 Z M 52.703125 163.136719 "/>
<path style=" stroke:none;fill-rule:nonzero;fill:rgb(30.196078%,30.196078%,30.196078%);fill-opacity:1;" d="M 62.6875 164.890625 L 62.941406 164.867188 L 63.183594 164.8125 L 63.410156 164.71875 L 63.617188 164.589844 L 63.804688 164.429688 L 63.964844 164.242188 L 64.09375 164.023438 L 64.191406 163.78125 L 64.25 163.519531 L 64.273438 163.234375 L 64.25 162.941406 L 64.191406 162.667969 L 64.09375 162.421875 L 63.964844 162.199219 L 63.804688 162.003906 L 63.617188 161.839844 L 63.410156 161.707031 L 63.183594 161.609375 L 62.941406 161.550781 L 62.6875 161.527344 L 62.433594 161.550781 L 62.191406 161.609375 L 61.964844 161.707031 L 61.757812 161.839844 L 61.570312 162.003906 L 61.414062 162.199219 L 61.28125 162.421875 L 61.1875 162.667969 L 61.125 162.941406 L 61.105469 163.234375 L 61.125 163.519531 L 61.1875 163.78125 L 61.28125 164.023438 L 61.414062 164.242188 L 61.570312 164.429688 L 61.757812 164.589844 L 61.964844 164.71875 L 62.191406 164.8125 L 62.433594 164.867188 Z M 62.6875 164.890625 "/>
<path style=" stroke:none;fill-rule:nonzero;fill:rgb(30.196078%,30.196078%,30.196078%);fill-opacity:1;" d="M 68.136719 164.578125 L 77.785156 164.578125 L 77.785156 162.753906 L 74.257812 162.753906 L 74.257812 146.960938 L 72.574219 146.960938 L 72.28125 147.128906 L 71.976562 147.285156 L 71.660156 147.433594 L 71.328125 147.574219 L 70.976562 147.703125 L 70.609375 147.828125 L 70.222656 147.941406 L 69.8125 148.046875 L 69.382812 148.144531 L 68.929688 148.234375 L 68.929688 149.625 L 72.046875 149.625 L 72.046875 162.753906 L 68.136719 162.753906 Z M 68.136719 164.578125 "/>
<path style=" stroke:none;fill-rule:nonzero;fill:rgb(30.196078%,30.196078%,30.196078%);fill-opacity:1;" d="M 86.015625 164.890625 L 86.980469 164.796875 L 87.867188 164.523438 L 88.667969 164.066406 L 89.382812 163.425781 L 90.003906 162.601562 L 90.523438 161.589844 L 90.9375 160.398438 L 91.238281 159.023438 L 91.425781 157.464844 L 91.488281 155.71875 L 91.425781 153.984375 L 91.238281 152.4375 L 90.9375 151.074219 L 90.523438 149.894531 L 90.003906 148.898438 L 89.382812 148.085938 L 88.667969 147.457031 L 87.867188 147.007812 L 86.980469 146.738281 L 86.015625 146.648438 L 85.046875 146.738281 L 84.152344 147.003906 L 83.347656 147.453125 L 82.628906 148.078125 L 82.007812 148.890625 L 81.488281 149.882812 L 81.070312 151.0625 L 80.769531 152.425781 L 80.582031 153.980469 L 80.519531 155.71875 L 80.582031 157.464844 L 80.769531 159.023438 L 81.070312 160.398438 L 81.488281 161.589844 L 82.007812 162.601562 L 82.628906 163.425781 L 83.347656 164.066406 L 84.152344 164.523438 L 85.046875 164.796875 Z M 86.015625 163.136719 L 85.433594 163.070312 L 84.890625 162.863281 L 84.402344 162.515625 L 83.960938 162.019531 L 83.578125 161.371094 L 83.257812 160.570312 L 83 159.609375 L 82.8125 158.484375 L 82.695312 157.1875 L 82.65625 155.71875 L 82.695312 154.269531 L 82.8125 152.988281 L 83 151.875 L 83.257812 150.925781 L 83.578125 150.132812 L 83.960938 149.5 L 84.402344 149.011719 L 84.890625 148.667969 L 85.433594 148.46875 L 86.015625 148.402344 L 86.59375 148.46875 L 87.128906 148.667969 L 87.613281 149.011719 L 88.050781 149.5 L 88.429688 150.132812 L 88.75 150.925781 L 89.007812 151.875 L 89.195312 152.988281 L 89.3125 154.269531 L 89.351562 155.71875 L 89.3125 157.1875 L 89.195312 158.484375 L 89.007812 159.609375 L 88.75 160.570312 L 88.429688 161.371094 L 88.050781 162.019531 L 87.613281 162.515625 L 87.128906 162.863281 L 86.59375 163.070312 Z M 86.015625 163.136719 "/>
<path style=" stroke:none;fill-rule:nonzero;fill:rgb(30.196078%,30.196078%,30.196078%);fill-opacity:1;" d="M 52.703125 114.050781 L 53.667969 113.960938 L 54.554688 113.683594 L 55.355469 113.226562 L 56.070312 112.585938 L 56.691406 111.761719 L 57.210938 110.753906 L 57.625 109.5625 L 57.925781 108.1875 L 58.113281 106.625 L 58.175781 104.882812 L 58.113281 103.148438 L 57.925781 101.597656 L 57.625 100.234375 L 57.210938 99.054688 L 56.691406 98.0625 L 56.070312 97.25 L 55.355469 96.617188 L 54.554688 96.167969 L 53.667969 95.898438 L 52.703125 95.8125 L 51.734375 95.898438 L 50.84375 96.167969 L 50.035156 96.613281 L 49.316406 97.242188 L 48.695312 98.050781 L 48.175781 99.046875 L 47.761719 100.222656 L 47.457031 101.589844 L 47.269531 103.140625 L 47.207031 104.882812 L 47.269531 106.625 L 47.457031 108.1875 L 47.761719 109.5625 L 48.175781 110.753906 L 48.695312 111.761719 L 49.316406 112.585938 L 50.035156 113.226562 L 50.84375 113.683594 L 51.734375 113.960938 Z M 52.703125 112.296875 L 52.121094 112.230469 L 51.582031 112.023438 L 51.089844 111.675781 L 50.648438 111.179688 L 50.269531 110.535156 L 49.945312 109.734375 L 49.6875 108.769531 L 49.5 107.644531 L 49.382812 106.351562 L 49.34375 104.882812 L 49.382812 103.429688 L 49.5 102.148438 L 49.6875 101.035156 L 49.945312 100.085938 L 50.269531 99.296875 L 50.648438 98.660156 L 51.089844 98.171875 L 51.582031 97.832031 L 52.121094 97.628906 L 52.703125 97.5625 L 53.28125 97.628906 L 53.816406 97.832031 L 54.304688 98.171875 L 54.738281 98.660156 L 55.117188 99.296875 L 55.4375 100.085938 L 55.695312 101.035156 L 55.882812 102.148438 L 56 103.429688 L 56.039062 104.882812 L 56 106.351562 L 55.882812 107.644531 L 55.695312 108.769531 L 55.4375 109.734375 L 55.117188 110.535156 L 54.738281 111.179688 L 54.304688 111.675781 L 53.816406 112.023438 L 53.28125 112.230469 Z M 52.703125 112.296875 "/>
<path style=" stroke:none;fill-rule:nonzero;fill:rgb(30.196078%,30.196078%,30.196078%);fill-opacity:1;" d="M 62.6875 114.050781 L 62.941406 114.03125 L 63.183594 113.972656 L 63.410156 113.878906 L 63.617188 113.75 L 63.804688 113.589844 L 63.964844 113.402344 L 64.09375 113.1875 L 64.191406 112.945312 L 64.25 112.679688 L 64.273438 112.394531 L 64.25 112.101562 L 64.191406 111.832031 L 64.09375 111.582031 L 63.964844 111.359375 L 63.804688 111.164062 L 63.617188 111 L 63.410156 110.867188 L 63.183594 110.769531 L 62.941406 110.710938 L 62.6875 110.691406 L 62.433594 110.710938 L 62.191406 110.769531 L 61.964844 110.867188 L 61.757812 111 L 61.570312 111.164062 L 61.414062 111.359375 L 61.28125 111.582031 L 61.1875 111.832031 L 61.125 112.101562 L 61.105469 112.394531 L 61.125 112.679688 L 61.1875 112.945312 L 61.28125 113.1875 L 61.414062 113.402344 L 61.570312 113.589844 L 61.757812 113.75 L 61.964844 113.878906 L 62.191406 113.972656 L 62.433594 114.03125 Z M 62.6875 114.050781 "/>
<path style=" stroke:none;fill-rule:nonzero;fill:rgb(30.196078%,30.196078%,30.196078%);fill-opacity:1;" d="M 68.136719 113.738281 L 77.785156 113.738281 L 77.785156 111.914062 L 74.257812 111.914062 L 74.257812 96.121094 L 72.574219 96.121094 L 72.28125 96.289062 L 71.976562 96.449219 L 71.660156 96.597656 L 71.328125 96.734375 L 70.976562 96.867188 L 70.609375 96.988281 L 70.222656 97.101562 L 69.8125 97.207031 L 69.382812 97.304688 L 68.929688 97.394531 L 68.929688 98.785156 L 72.046875 98.785156 L 72.046875 111.914062 L 68.136719 111.914062 Z M 68.136719 113.738281 "/>
<path style=" stroke:none;fill-rule:nonzero;fill:rgb(30.196078%,30.196078%,30.196078%);fill-opacity:1;" d="M 85.609375 114.050781 L 86.492188 113.984375 L 87.351562 113.792969 L 88.164062 113.472656 L 88.921875 113.035156 L 89.605469 112.476562 L 90.199219 111.800781 L 90.6875 111.011719 L 91.054688 110.117188 L 91.285156 109.109375 L 91.367188 108.003906 L 91.296875 106.90625 L 91.097656 105.9375 L 90.777344 105.089844 L 90.34375 104.363281 L 89.8125 103.757812 L 89.195312 103.265625 L 88.5 102.886719 L 87.738281 102.621094 L 86.925781 102.460938 L 86.0625 102.410156 L 85.753906 102.417969 L 85.460938 102.441406 L 85.183594 102.480469 L 84.914062 102.53125 L 84.65625 102.597656 L 84.40625 102.675781 L 84.164062 102.765625 L 83.921875 102.867188 L 83.683594 102.980469 L 83.449219 103.105469 L 83.878906 98.019531 L 90.527344 98.019531 L 90.527344 96.121094 L 81.960938 96.121094 L 81.40625 104.378906 L 82.582031 105.097656 L 82.878906 104.90625 L 83.164062 104.734375 L 83.4375 104.578125 L 83.710938 104.445312 L 83.984375 104.332031 L 84.261719 104.234375 L 84.550781 104.164062 L 84.851562 104.109375 L 85.171875 104.078125 L 85.511719 104.066406 L 86.152344 104.109375 L 86.738281 104.242188 L 87.273438 104.457031 L 87.75 104.75 L 88.164062 105.125 L 88.511719 105.574219 L 88.789062 106.097656 L 88.992188 106.691406 L 89.117188 107.351562 L 89.160156 108.074219 L 89.109375 108.816406 L 88.96875 109.492188 L 88.742188 110.105469 L 88.4375 110.644531 L 88.0625 111.113281 L 87.625 111.503906 L 87.136719 111.816406 L 86.597656 112.042969 L 86.023438 112.179688 L 85.414062 112.226562 L 84.828125 112.199219 L 84.28125 112.121094 L 83.773438 111.996094 L 83.304688 111.832031 L 82.867188 111.632812 L 82.464844 111.402344 L 82.089844 111.148438 L 81.738281 110.871094 L 81.40625 110.582031 L 81.097656 110.28125 L 80.015625 111.722656 L 80.382812 112.074219 L 80.785156 112.417969 L 81.226562 112.742188 L 81.703125 113.050781 L 82.226562 113.328125 L 82.796875 113.570312 L 83.414062 113.769531 L 84.089844 113.921875 L 84.816406 114.015625 Z M 85.609375 114.050781 "/>
<path style=" stroke:none;fill-rule:nonzero;fill:rgb(30.196078%,30.196078%,30.196078%);fill-opacity:1;" d="M 52.703125 63.210938 L 53.667969 63.121094 L 54.554688 62.847656 L 55.355469 62.390625 L 56.070312 61.746094 L 56.691406 60.921875 L 57.210938 59.914062 L 57.625 58.722656 L 57.925781 57.347656 L 58.113281 55.789062 L 58.175781 54.042969 L 58.113281 52.308594 L 57.925781 50.761719 L 57.625 49.398438 L 57.210938 48.21875 L 56.691406 47.222656 L 56.070312 46.410156 L 55.355469 45.78125 L 54.554688 45.332031 L 53.667969 45.0625 L 52.703125 44.972656 L 51.734375 45.0625 L 50.84375 45.328125 L 50.035156 45.773438 L 49.316406 46.402344 L 48.695312 47.214844 L 48.175781 48.207031 L 47.761719 49.386719 L 47.457031 50.75 L 47.269531 52.304688 L 47.207031 54.042969 L 47.269531 55.789062 L 47.457031 57.347656 L 47.761719 58.722656 L 48.175781 59.914062 L 48.695312 60.921875 L 49.316406 61.746094 L 50.035156 62.390625 L 50.84375 62.847656 L 51.734375 63.121094 Z M 52.703125 61.460938 L 52.121094 61.394531 L 51.582031 61.1875 L 51.089844 60.839844 L 50.648438 60.34375 L 50.269531 59.695312 L 49.945312 58.894531 L 49.6875 57.933594 L 49.5 56.804688 L 49.382812 55.511719 L 49.34375 54.042969 L 49.382812 52.589844 L 49.5 51.3125 L 49.6875 50.199219 L 49.945312 49.25 L 50.269531 48.457031 L 50.648438 47.820312 L 51.089844 47.335938 L 51.582031 46.992188 L 52.121094 46.789062 L 52.703125 46.722656 L 53.28125 46.789062 L 53.816406 46.992188 L 54.304688 47.335938 L 54.738281 47.820312 L 55.117188 48.457031 L 55.4375 49.25 L 55.695312 50.199219 L 55.882812 51.3125 L 56 52.589844 L 56.039062 54.042969 L 56 55.511719 L 55.882812 56.804688 L 55.695312 57.933594 L 55.4375 58.894531 L 55.117188 59.695312 L 54.738281 60.34375 L 54.304688 60.839844 L 53.816406 61.1875 L 53.28125 61.394531 Z M 52.703125 61.460938 "/>
<path style=" stroke:none;fill-rule:nonzero;fill:rgb(30.196078%,30.196078%,30.196078%);fill-opacity:1;" d="M 62.6875 63.210938 L 62.941406 63.191406 L 63.183594 63.132812 L 63.410156 63.039062 L 63.617188 62.914062 L 63.804688 62.753906 L 63.964844 62.566406 L 64.09375 62.347656 L 64.191406 62.105469 L 64.25 61.84375 L 64.273438 61.554688 L 64.25 61.265625 L 64.191406 60.992188 L 64.09375 60.742188 L 63.964844 60.519531 L 63.804688 60.328125 L 63.617188 60.160156 L 63.410156 60.03125 L 63.183594 59.933594 L 62.941406 59.871094 L 62.6875 59.851562 L 62.433594 59.871094 L 62.191406 59.933594 L 61.964844 60.03125 L 61.757812 60.160156 L 61.570312 60.328125 L 61.414062 60.519531 L 61.28125 60.742188 L 61.1875 60.992188 L 61.125 61.265625 L 61.105469 61.554688 L 61.125 61.84375 L 61.1875 62.105469 L 61.28125 62.347656 L 61.414062 62.566406 L 61.570312 62.753906 L 61.757812 62.914062 L 61.964844 63.039062 L 62.191406 63.132812 L 62.433594 63.191406 Z M 62.6875 63.210938 "/>
<path style=" stroke:none;fill-rule:nonzero;fill:rgb(30.196078%,30.196078%,30.196078%);fill-opacity:1;" d="M 67.078125 62.902344 L 78.144531 62.902344 L 78.144531 61.003906 L 73.273438 61.003906 L 73 61.007812 L 72.71875 61.015625 L 72.429688 61.027344 L 72.136719 61.042969 L 71.542969 61.082031 L 70.957031 61.128906 L 70.671875 61.148438 L 70.390625 61.171875 L 71.589844 60.007812 L 72.695312 58.863281 L 73.699219 57.734375 L 74.601562 56.621094 L 75.382812 55.523438 L 76.042969 54.4375 L 76.574219 53.359375 L 76.960938 52.292969 L 77.199219 51.234375 L 77.28125 50.179688 L 77.222656 49.269531 L 77.050781 48.429688 L 76.769531 47.667969 L 76.386719 46.988281 L 75.902344 46.398438 L 75.324219 45.898438 L 74.660156 45.503906 L 73.90625 45.210938 L 73.074219 45.035156 L 72.167969 44.972656 L 71.519531 45.003906 L 70.910156 45.09375 L 70.335938 45.238281 L 69.792969 45.4375 L 69.277344 45.683594 L 68.789062 45.976562 L 68.316406 46.316406 L 67.863281 46.695312 L 67.417969 47.113281 L 66.984375 47.566406 L 68.257812 48.8125 L 68.550781 48.476562 L 68.867188 48.15625 L 69.195312 47.863281 L 69.539062 47.597656 L 69.898438 47.359375 L 70.273438 47.160156 L 70.664062 46.996094 L 71.0625 46.875 L 71.476562 46.796875 L 71.902344 46.773438 L 72.523438 46.816406 L 73.078125 46.941406 L 73.566406 47.144531 L 73.988281 47.417969 L 74.34375 47.757812 L 74.632812 48.15625 L 74.855469 48.613281 L 75.015625 49.117188 L 75.113281 49.664062 L 75.144531 50.253906 L 75.066406 51.175781 L 74.835938 52.132812 L 74.445312 53.125 L 73.894531 54.164062 L 73.183594 55.253906 L 72.304688 56.394531 L 71.257812 57.597656 L 70.039062 58.863281 L 68.648438 60.195312 L 67.078125 61.605469 Z M 67.078125 62.902344 "/>
<path style=" stroke:none;fill-rule:nonzero;fill:rgb(30.196078%,30.196078%,30.196078%);fill-opacity:1;" d="M 86.015625 63.210938 L 86.980469 63.121094 L 87.867188 62.847656 L 88.667969 62.390625 L 89.382812 61.746094 L 90.003906 60.921875 L 90.523438 59.914062 L 90.9375 58.722656 L 91.238281 57.347656 L 91.425781 55.789062 L 91.488281 54.042969 L 91.425781 52.308594 L 91.238281 50.761719 L 90.9375 49.398438 L 90.523438 48.21875 L 90.003906 47.222656 L 89.382812 46.410156 L 88.667969 45.78125 L 87.867188 45.332031 L 86.980469 45.0625 L 86.015625 44.972656 L 85.046875 45.0625 L 84.152344 45.328125 L 83.347656 45.773438 L 82.628906 46.402344 L 82.007812 47.214844 L 81.488281 48.207031 L 81.070312 49.386719 L 80.769531 50.75 L 80.582031 52.304688 L 80.519531 54.042969 L 80.582031 55.789062 L 80.769531 57.347656 L 81.070312 58.722656 L 81.488281 59.914062 L 82.007812 60.921875 L 82.628906 61.746094 L 83.347656 62.390625 L 84.152344 62.847656 L 85.046875 63.121094 Z M 86.015625 61.460938 L 85.433594 61.394531 L 84.890625 61.1875 L 84.402344 60.839844 L 83.960938 60.34375 L 83.578125 59.695312 L 83.257812 58.894531 L 83 57.933594 L 82.8125 56.804688 L 82.695312 55.511719 L 82.65625 54.042969 L 82.695312 52.589844 L 82.8125 51.3125 L 83 50.199219 L 83.257812 49.25 L 83.578125 48.457031 L 83.960938 47.820312 L 84.402344 47.335938 L 84.890625 46.992188 L 85.433594 46.789062 L 86.015625 46.722656 L 86.59375 46.789062 L 87.128906 46.992188 L 87.613281 47.335938 L 88.050781 47.820312 L 88.429688 48.457031 L 88.75 49.25 L 89.007812 50.199219 L 89.195312 51.3125 L 89.3125 52.589844 L 89.351562 54.042969 L 89.3125 55.511719 L 89.195312 56.804688 L 89.007812 57.933594 L 88.75 58.894531 L 88.429688 59.695312 L 88.050781 60.34375 L 87.613281 60.839844 L 87.128906 61.1875 L 86.59375 61.394531 Z M 86.015625 61.460938 "/>
<path style=" stroke:none;fill-rule:nonzero;fill:rgb(30.196078%,30.196078%,30.196078%);fill-opacity:1;" d="M 123.617188 304.578125 L 129.761719 304.578125 L 129.761719 302.898438 L 123.617188 302.898438 Z M 123.617188 304.578125 "/>
<path style=" stroke:none;fill-rule:nonzero;fill:rgb(30.196078%,30.196078%,30.196078%);fill-opacity:1;" d="M 137.105469 310.769531 L 137.992188 310.707031 L 138.847656 310.511719 L 139.664062 310.195312 L 140.417969 309.753906 L 141.101562 309.195312 L 141.695312 308.519531 L 142.183594 307.734375 L 142.554688 306.835938 L 142.785156 305.832031 L 142.867188 304.722656 L 142.796875 303.628906 L 142.59375 302.65625 L 142.273438 301.8125 L 141.84375 301.085938 L 141.3125 300.476562 L 140.695312 299.984375 L 140 299.609375 L 139.238281 299.339844 L 138.421875 299.183594 L 137.5625 299.128906 L 137.253906 299.136719 L 136.960938 299.160156 L 136.679688 299.199219 L 136.414062 299.25 L 136.15625 299.316406 L 135.90625 299.394531 L 135.660156 299.484375 L 135.421875 299.589844 L 135.183594 299.703125 L 134.945312 299.828125 L 135.378906 294.738281 L 142.027344 294.738281 L 142.027344 292.84375 L 133.457031 292.84375 L 132.90625 301.097656 L 134.082031 301.820312 L 134.378906 301.625 L 134.660156 301.453125 L 134.9375 301.300781 L 135.210938 301.164062 L 135.484375 301.050781 L 135.761719 300.957031 L 136.050781 300.882812 L 136.351562 300.828125 L 136.667969 300.796875 L 137.011719 300.785156 L 137.648438 300.832031 L 138.238281 300.960938 L 138.773438 301.175781 L 139.25 301.472656 L 139.664062 301.847656 L 140.011719 302.296875 L 140.289062 302.816406 L 140.492188 303.410156 L 140.617188 304.070312 L 140.65625 304.792969 L 140.609375 305.535156 L 140.46875 306.210938 L 140.238281 306.824219 L 139.933594 307.367188 L 139.558594 307.832031 L 139.125 308.226562 L 138.632812 308.535156 L 138.097656 308.761719 L 137.519531 308.898438 L 136.914062 308.945312 L 136.324219 308.917969 L 135.777344 308.839844 L 135.273438 308.71875 L 134.800781 308.554688 L 134.367188 308.351562 L 133.960938 308.121094 L 133.585938 307.867188 L 133.234375 307.59375 L 132.90625 307.300781 L 132.59375 307.003906 L 131.515625 308.441406 L 131.882812 308.792969 L 132.285156 309.136719 L 132.722656 309.464844 L 133.203125 309.769531 L 133.726562 310.046875 L 134.292969 310.289062 L 134.914062 310.488281 L 135.585938 310.640625 L 136.316406 310.738281 Z M 137.105469 310.769531 "/>
<path style=" stroke:none;fill-rule:nonzero;fill:rgb(30.196078%,30.196078%,30.196078%);fill-opacity:1;" d="M 314.847656 310.769531 L 315.8125 310.679688 L 316.699219 310.40625 L 317.5 309.945312 L 318.214844 309.304688 L 318.835938 308.480469 L 319.355469 307.472656 L 319.769531 306.28125 L 320.070312 304.90625 L 320.257812 303.347656 L 320.320312 301.601562 L 320.257812 299.867188 L 320.070312 298.320312 L 319.769531 296.953125 L 319.355469 295.777344 L 318.835938 294.78125 L 318.214844 293.96875 L 317.5 293.339844 L 316.699219 292.890625 L 315.8125 292.621094 L 314.847656 292.53125 L 313.878906 292.621094 L 312.984375 292.886719 L 312.179688 293.332031 L 311.460938 293.960938 L 310.839844 294.773438 L 310.320312 295.765625 L 309.902344 296.945312 L 309.601562 298.308594 L 309.414062 299.863281 L 309.351562 301.601562 L 309.414062 303.347656 L 309.601562 304.90625 L 309.902344 306.28125 L 310.320312 307.472656 L 310.839844 308.480469 L 311.460938 309.304688 L 312.179688 309.945312 L 312.984375 310.40625 L 313.878906 310.679688 Z M 314.847656 309.019531 L 314.265625 308.949219 L 313.722656 308.746094 L 313.234375 308.398438 L 312.792969 307.902344 L 312.410156 307.253906 L 312.089844 306.453125 L 311.832031 305.492188 L 311.644531 304.363281 L 311.527344 303.070312 L 311.488281 301.601562 L 311.527344 300.148438 L 311.644531 298.871094 L 311.832031 297.757812 L 312.089844 296.808594 L 312.410156 296.015625 L 312.792969 295.378906 L 313.234375 294.894531 L 313.722656 294.550781 L 314.265625 294.347656 L 314.847656 294.28125 L 315.425781 294.347656 L 315.960938 294.550781 L 316.445312 294.894531 L 316.882812 295.378906 L 317.261719 296.015625 L 317.582031 296.808594 L 317.839844 297.757812 L 318.027344 298.871094 L 318.144531 300.148438 L 318.183594 301.601562 L 318.144531 303.070312 L 318.027344 304.363281 L 317.839844 305.492188 L 317.582031 306.453125 L 317.261719 307.253906 L 316.882812 307.902344 L 316.445312 308.398438 L 315.960938 308.746094 L 315.425781 308.949219 Z M 314.847656 309.019531 "/>
<path style=" stroke:none;fill-rule:nonzero;fill:rgb(30.196078%,30.196078%,30.196078%);fill-opacity:1;" d="M 495.9375 310.769531 L 496.820312 310.707031 L 497.679688 310.511719 L 498.496094 310.195312 L 499.25 309.753906 L 499.933594 309.195312 L 500.527344 308.519531 L 501.015625 307.734375 L 501.382812 306.835938 L 501.617188 305.832031 L 501.699219 304.722656 L 501.628906 303.628906 L 501.425781 302.65625 L 501.105469 301.8125 L 500.675781 301.085938 L 500.144531 300.476562 L 499.527344 299.984375 L 498.832031 299.609375 L 498.070312 299.339844 L 497.253906 299.183594 L 496.394531 299.128906 L 496.085938 299.136719 L 495.792969 299.160156 L 495.511719 299.199219 L 495.246094 299.25 L 494.988281 299.316406 L 494.738281 299.394531 L 494.492188 299.484375 L 494.253906 299.589844 L 494.015625 299.703125 L 493.777344 299.828125 L 494.210938 294.738281 L 500.859375 294.738281 L 500.859375 292.84375 L 492.289062 292.84375 L 491.738281 301.097656 L 492.914062 301.820312 L 493.207031 301.625 L 493.492188 301.453125 L 493.769531 301.300781 L 494.042969 301.164062 L 494.316406 301.050781 L 494.59375 300.957031 L 494.882812 300.882812 L 495.183594 300.828125 L 495.5 300.796875 L 495.839844 300.785156 L 496.480469 300.832031 L 497.070312 300.960938 L 497.601562 301.175781 L 498.078125 301.472656 L 498.492188 301.847656 L 498.839844 302.296875 L 499.117188 302.816406 L 499.320312 303.410156 L 499.445312 304.070312 L 499.488281 304.792969 L 499.441406 305.535156 L 499.296875 306.210938 L 499.070312 306.824219 L 498.765625 307.367188 L 498.390625 307.832031 L 497.957031 308.226562 L 497.464844 308.535156 L 496.925781 308.761719 L 496.351562 308.898438 L 495.746094 308.945312 L 495.15625 308.917969 L 494.609375 308.839844 L 494.101562 308.71875 L 493.632812 308.554688 L 493.199219 308.351562 L 492.792969 308.121094 L 492.417969 307.867188 L 492.066406 307.59375 L 491.738281 307.300781 L 491.425781 307.003906 L 490.34375 308.441406 L 490.714844 308.792969 L 491.117188 309.136719 L 491.554688 309.464844 L 492.035156 309.769531 L 492.558594 310.046875 L 493.125 310.289062 L 493.746094 310.488281 L 494.417969 310.640625 L 495.148438 310.738281 Z M 495.9375 310.769531 "/>
<path style=" stroke:none;fill-rule:nonzero;fill:rgb(30.196078%,30.196078%,30.196078%);fill-opacity:1;" d="M 666.625 310.457031 L 676.269531 310.457031 L 676.269531 308.632812 L 672.742188 308.632812 L 672.742188 292.84375 L 671.0625 292.84375 L 670.769531 293.011719 L 670.464844 293.167969 L 670.148438 293.316406 L 669.8125 293.457031 L 669.464844 293.585938 L 669.097656 293.707031 L 668.710938 293.820312 L 668.300781 293.925781 L 667.871094 294.023438 L 667.414062 294.113281 L 667.414062 295.507812 L 670.535156 295.507812 L 670.535156 308.632812 L 666.625 308.632812 Z M 666.625 310.457031 "/>
<path style=" stroke:none;fill-rule:nonzero;fill:rgb(30.196078%,30.196078%,30.196078%);fill-opacity:1;" d="M 684.503906 310.769531 L 685.46875 310.679688 L 686.351562 310.40625 L 687.15625 309.945312 L 687.871094 309.304688 L 688.492188 308.480469 L 689.011719 307.472656 L 689.425781 306.28125 L 689.726562 304.90625 L 689.914062 303.347656 L 689.976562 301.601562 L 689.914062 299.867188 L 689.726562 298.320312 L 689.425781 296.953125 L 689.011719 295.777344 L 688.492188 294.78125 L 687.871094 293.96875 L 687.15625 293.339844 L 686.351562 292.890625 L 685.46875 292.621094 L 684.503906 292.53125 L 683.53125 292.621094 L 682.640625 292.886719 L 681.835938 293.332031 L 681.117188 293.960938 L 680.496094 294.773438 L 679.972656 295.765625 L 679.558594 296.945312 L 679.257812 298.308594 L 679.070312 299.863281 L 679.007812 301.601562 L 679.070312 303.347656 L 679.257812 304.90625 L 679.558594 306.28125 L 679.972656 307.472656 L 680.496094 308.480469 L 681.117188 309.304688 L 681.835938 309.945312 L 682.640625 310.40625 L 683.53125 310.679688 Z M 684.503906 309.019531 L 683.917969 308.949219 L 683.378906 308.746094 L 682.886719 308.398438 L 682.449219 307.902344 L 682.066406 307.253906 L 681.746094 306.453125 L 681.488281 305.492188 L 681.300781 304.363281 L 681.183594 303.070312 L 681.144531 301.601562 L 681.183594 300.148438 L 681.300781 298.871094 L 681.488281 297.757812 L 681.746094 296.808594 L 682.066406 296.015625 L 682.449219 295.378906 L 682.886719 294.894531 L 683.378906 294.550781 L 683.917969 294.347656 L 684.503906 294.28125 L 685.082031 294.347656 L 685.617188 294.550781 L 686.101562 294.894531 L 686.539062 295.378906 L 686.917969 296.015625 L 687.238281 296.808594 L 687.496094 297.757812 L 687.683594 298.871094 L 687.800781 300.148438 L 687.839844 301.601562 L 687.800781 303.070312 L 687.683594 304.363281 L 687.496094 305.492188 L 687.238281 306.453125 L 686.917969 307.253906 L 686.539062 307.902344 L 686.101562 308.398438 L 685.617188 308.746094 L 685.082031 308.949219 Z M 684.503906 309.019531 "/>
<path style=" stroke:none;fill-rule:nonzero;fill:rgb(0%,0%,0%);fill-opacity:1;" d="M 306.835938 339.054688 L 309.070312 339.054688 L 309.070312 323.335938 L 314.398438 323.335938 L 314.398438 321.441406 L 301.507812 321.441406 L 301.507812 323.335938 L 306.835938 323.335938 Z M 306.835938 339.054688 "/>
<path style=" stroke:none;fill-rule:nonzero;fill:rgb(0%,0%,0%);fill-opacity:1;" d="M 317.347656 339.054688 L 319.53125 339.054688 L 319.53125 326.023438 L 317.347656 326.023438 Z M 318.453125 323.335938 L 318.703125 323.320312 L 318.9375 323.269531 L 319.148438 323.1875 L 319.339844 323.078125 L 319.507812 322.9375 L 319.648438 322.769531 L 319.765625 322.578125 L 319.847656 322.367188 L 319.898438 322.128906 L 319.917969 321.871094 L 319.898438 321.628906 L 319.847656 321.402344 L 319.765625 321.195312 L 319.648438 321.011719 L 319.507812 320.847656 L 319.339844 320.710938 L 319.148438 320.601562 L 318.9375 320.523438 L 318.703125 320.472656 L 318.453125 320.457031 L 318.203125 320.472656 L 317.96875 320.523438 L 317.753906 320.601562 L 317.5625 320.710938 L 317.398438 320.847656 L 317.253906 321.011719 L 317.140625 321.195312 L 317.058594 321.402344 L 317.007812 321.628906 L 316.988281 321.871094 L 317.007812 322.128906 L 317.058594 322.367188 L 317.140625 322.578125 L 317.253906 322.769531 L 317.398438 322.9375 L 317.5625 323.078125 L 317.753906 323.1875 L 317.96875 323.269531 L 318.203125 323.320312 Z M 318.453125 323.335938 "/>
<path style=" stroke:none;fill-rule:nonzero;fill:rgb(0%,0%,0%);fill-opacity:1;" d="M 323.949219 339.054688 L 326.132812 339.054688 L 326.132812 329.601562 L 326.488281 329.21875 L 326.839844 328.875 L 327.1875 328.578125 L 327.523438 328.316406 L 327.859375 328.101562 L 328.183594 327.921875 L 328.503906 327.785156 L 328.816406 327.6875 L 329.121094 327.628906 L 329.421875 327.609375 L 329.890625 327.640625 L 330.308594 327.734375 L 330.675781 327.898438 L 330.988281 328.128906 L 331.253906 328.429688 L 331.46875 328.804688 L 331.632812 329.257812 L 331.75 329.785156 L 331.820312 330.394531 L 331.84375 331.089844 L 331.84375 339.054688 L 334.027344 339.054688 L 334.027344 329.601562 L 334.390625 329.21875 L 334.742188 328.875 L 335.089844 328.578125 L 335.425781 328.316406 L 335.753906 328.101562 L 336.078125 327.921875 L 336.394531 327.785156 L 336.707031 327.6875 L 337.011719 327.628906 L 337.316406 327.609375 L 337.785156 327.640625 L 338.203125 327.734375 L 338.570312 327.898438 L 338.886719 328.128906 L 339.148438 328.429688 L 339.363281 328.804688 L 339.53125 329.257812 L 339.648438 329.785156 L 339.71875 330.394531 L 339.742188 331.089844 L 339.742188 339.054688 L 341.925781 339.054688 L 341.925781 330.800781 L 341.886719 329.847656 L 341.769531 328.988281 L 341.578125 328.226562 L 341.304688 327.558594 L 340.953125 326.992188 L 340.519531 326.527344 L 340.003906 326.160156 L 339.410156 325.898438 L 338.730469 325.742188 L 337.964844 325.6875 L 337.496094 325.71875 L 337.039062 325.808594 L 336.59375 325.949219 L 336.15625 326.144531 L 335.726562 326.386719 L 335.304688 326.671875 L 334.890625 327 L 334.480469 327.363281 L 334.074219 327.757812 L 333.667969 328.183594 L 333.492188 327.742188 L 333.28125 327.335938 L 333.035156 326.96875 L 332.746094 326.640625 L 332.417969 326.359375 L 332.042969 326.125 L 331.625 325.9375 L 331.15625 325.800781 L 330.640625 325.714844 L 330.070312 325.6875 L 329.605469 325.71875 L 329.15625 325.800781 L 328.71875 325.933594 L 328.292969 326.113281 L 327.878906 326.335938 L 327.476562 326.59375 L 327.089844 326.886719 L 326.71875 327.207031 L 326.359375 327.554688 L 326.011719 327.921875 L 325.941406 327.921875 L 325.75 326.023438 L 323.949219 326.023438 Z M 323.949219 339.054688 "/>
<path style=" stroke:none;fill-rule:nonzero;fill:rgb(0%,0%,0%);fill-opacity:1;" d="M 351.429688 339.367188 L 351.949219 339.351562 L 352.449219 339.300781 L 352.925781 339.21875 L 353.386719 339.109375 L 353.824219 338.976562 L 354.242188 338.820312 L 354.644531 338.640625 L 355.027344 338.449219 L 355.394531 338.242188 L 355.75 338.023438 L 354.957031 336.585938 L 354.667969 336.769531 L 354.371094 336.941406 L 354.070312 337.09375 L 353.757812 337.226562 L 353.441406 337.34375 L 353.113281 337.4375 L 352.777344 337.515625 L 352.429688 337.570312 L 352.066406 337.605469 L 351.691406 337.617188 L 350.976562 337.5625 L 350.308594 337.410156 L 349.695312 337.15625 L 349.144531 336.8125 L 348.660156 336.378906 L 348.242188 335.863281 L 347.902344 335.269531 L 347.640625 334.597656 L 347.460938 333.859375 L 347.371094 333.054688 L 356.15625 333.054688 L 356.171875 332.957031 L 356.183594 332.851562 L 356.199219 332.738281 L 356.210938 332.621094 L 356.222656 332.496094 L 356.234375 332.363281 L 356.242188 332.230469 L 356.246094 332.09375 L 356.25 331.953125 L 356.253906 331.808594 L 356.195312 330.734375 L 356.03125 329.742188 L 355.757812 328.84375 L 355.382812 328.046875 L 354.902344 327.351562 L 354.324219 326.769531 L 353.648438 326.308594 L 352.878906 325.96875 L 352.019531 325.757812 L 351.070312 325.6875 L 350.167969 325.765625 L 349.296875 325.996094 L 348.464844 326.371094 L 347.691406 326.886719 L 346.996094 327.535156 L 346.386719 328.3125 L 345.886719 329.207031 L 345.511719 330.214844 L 345.273438 331.332031 L 345.1875 332.550781 L 345.269531 333.785156 L 345.507812 334.910156 L 345.882812 335.917969 L 346.390625 336.808594 L 347.011719 337.570312 L 347.738281 338.207031 L 348.558594 338.707031 L 349.453125 339.070312 L 350.414062 339.292969 Z M 347.347656 331.472656 L 347.46875 330.742188 L 347.664062 330.074219 L 347.925781 329.480469 L 348.25 328.953125 L 348.625 328.503906 L 349.050781 328.125 L 349.519531 327.832031 L 350.019531 327.613281 L 350.546875 327.484375 L 351.09375 327.441406 L 351.679688 327.480469 L 352.214844 327.609375 L 352.691406 327.816406 L 353.113281 328.105469 L 353.476562 328.476562 L 353.78125 328.921875 L 354.019531 329.449219 L 354.191406 330.046875 L 354.296875 330.722656 L 354.332031 331.472656 Z M 347.347656 331.472656 "/>
<path style=" stroke:none;fill-rule:nonzero;fill:rgb(0%,0%,0%);fill-opacity:1;" d="M 368.949219 339.367188 L 369.1875 339.359375 L 369.429688 339.339844 L 369.675781 339.308594 L 369.921875 339.269531 L 370.167969 339.21875 L 370.410156 339.160156 L 370.652344 339.097656 L 370.890625 339.03125 L 371.121094 338.960938 L 371.347656 338.886719 L 370.917969 337.257812 L 370.78125 337.304688 L 370.640625 337.355469 L 370.492188 337.402344 L 370.335938 337.445312 L 370.183594 337.488281 L 370.023438 337.523438 L 369.871094 337.550781 L 369.71875 337.574219 L 369.570312 337.585938 L 369.429688 337.59375 L 369.003906 337.566406 L 368.636719 337.484375 L 368.328125 337.351562 L 368.066406 337.167969 L 367.855469 336.933594 L 367.6875 336.652344 L 367.5625 336.324219 L 367.476562 335.953125 L 367.429688 335.535156 L 367.414062 335.070312 L 367.414062 327.800781 L 370.941406 327.800781 L 370.941406 326.023438 L 367.414062 326.023438 L 367.414062 322.351562 L 365.589844 322.351562 L 365.324219 326.023438 L 363.285156 326.144531 L 363.285156 327.800781 L 365.230469 327.800781 L 365.230469 335.023438 L 365.257812 335.777344 L 365.347656 336.472656 L 365.507812 337.105469 L 365.738281 337.671875 L 366.042969 338.167969 L 366.4375 338.585938 L 366.917969 338.917969 L 367.492188 339.164062 L 368.167969 339.316406 Z M 368.949219 339.367188 "/>
<path style=" stroke:none;fill-rule:nonzero;fill:rgb(0%,0%,0%);fill-opacity:1;" d="M 378.957031 339.367188 L 379.902344 339.292969 L 380.8125 339.074219 L 381.671875 338.710938 L 382.464844 338.214844 L 383.179688 337.578125 L 383.796875 336.816406 L 384.300781 335.929688 L 384.683594 334.917969 L 384.921875 333.792969 L 385.003906 332.550781 L 384.921875 331.304688 L 384.683594 330.171875 L 384.300781 329.152344 L 383.796875 328.257812 L 383.179688 327.492188 L 382.464844 326.851562 L 381.671875 326.351562 L 380.8125 325.984375 L 379.902344 325.761719 L 378.957031 325.6875 L 378.011719 325.761719 L 377.101562 325.984375 L 376.242188 326.351562 L 375.449219 326.851562 L 374.734375 327.492188 L 374.117188 328.257812 L 373.613281 329.152344 L 373.230469 330.171875 L 372.992188 331.304688 L 372.910156 332.550781 L 372.992188 333.792969 L 373.230469 334.917969 L 373.613281 335.929688 L 374.117188 336.816406 L 374.734375 337.578125 L 375.449219 338.214844 L 376.242188 338.710938 L 377.101562 339.074219 L 378.011719 339.292969 Z M 378.957031 337.542969 L 378.304688 337.484375 L 377.699219 337.3125 L 377.148438 337.03125 L 376.65625 336.652344 L 376.226562 336.171875 L 375.867188 335.605469 L 375.578125 334.953125 L 375.363281 334.222656 L 375.234375 333.421875 L 375.1875 332.550781 L 375.234375 331.683594 L 375.363281 330.875 L 375.578125 330.140625 L 375.867188 329.480469 L 376.226562 328.90625 L 376.65625 328.421875 L 377.148438 328.035156 L 377.699219 327.75 L 378.304688 327.570312 L 378.957031 327.511719 L 379.609375 327.570312 L 380.21875 327.75 L 380.769531 328.035156 L 381.265625 328.421875 L 381.699219 328.90625 L 382.0625 329.480469 L 382.355469 330.140625 L 382.570312 330.875 L 382.703125 331.683594 L 382.75 332.550781 L 382.703125 333.421875 L 382.570312 334.222656 L 382.355469 334.953125 L 382.0625 335.605469 L 381.699219 336.171875 L 381.265625 336.652344 L 380.769531 337.03125 L 380.21875 337.3125 L 379.609375 337.484375 Z M 378.957031 337.542969 "/>
<path style=" stroke:none;fill-rule:nonzero;fill:rgb(0%,0%,0%);fill-opacity:1;" d="M 397.675781 339.054688 L 399.910156 339.054688 L 399.910156 323.335938 L 405.238281 323.335938 L 405.238281 321.441406 L 392.347656 321.441406 L 392.347656 323.335938 L 397.675781 323.335938 Z M 397.675781 339.054688 "/>
<path style=" stroke:none;fill-rule:nonzero;fill:rgb(0%,0%,0%);fill-opacity:1;" d="M 408.1875 339.054688 L 410.371094 339.054688 L 410.371094 330.679688 L 410.644531 330.054688 L 410.941406 329.511719 L 411.261719 329.046875 L 411.59375 328.660156 L 411.9375 328.34375 L 412.285156 328.09375 L 412.636719 327.90625 L 412.988281 327.777344 L 413.328125 327.703125 L 413.660156 327.679688 L 413.8125 327.679688 L 413.953125 327.6875 L 414.085938 327.695312 L 414.210938 327.707031 L 414.332031 327.726562 L 414.449219 327.746094 L 414.566406 327.773438 L 414.683594 327.808594 L 414.804688 327.847656 L 414.933594 327.894531 L 415.339844 325.976562 L 415.21875 325.914062 L 415.09375 325.863281 L 414.96875 325.820312 L 414.839844 325.78125 L 414.707031 325.75 L 414.570312 325.726562 L 414.425781 325.710938 L 414.277344 325.695312 L 414.117188 325.691406 L 413.949219 325.6875 L 413.515625 325.71875 L 413.089844 325.8125 L 412.675781 325.960938 L 412.277344 326.164062 L 411.894531 326.421875 L 411.527344 326.730469 L 411.175781 327.082031 L 410.847656 327.480469 L 410.539062 327.921875 L 410.253906 328.398438 L 410.179688 328.398438 L 409.988281 326.023438 L 408.1875 326.023438 Z M 408.1875 339.054688 "/>
<path style=" stroke:none;fill-rule:nonzero;fill:rgb(0%,0%,0%);fill-opacity:1;" d="M 422.757812 339.367188 L 423.277344 339.351562 L 423.777344 339.300781 L 424.253906 339.21875 L 424.710938 339.109375 L 425.152344 338.976562 L 425.570312 338.820312 L 425.972656 338.640625 L 426.355469 338.449219 L 426.722656 338.242188 L 427.078125 338.023438 L 426.285156 336.585938 L 425.996094 336.769531 L 425.699219 336.941406 L 425.398438 337.09375 L 425.085938 337.226562 L 424.769531 337.34375 L 424.441406 337.4375 L 424.105469 337.515625 L 423.757812 337.570312 L 423.394531 337.605469 L 423.019531 337.617188 L 422.304688 337.5625 L 421.636719 337.410156 L 421.023438 337.15625 L 420.472656 336.8125 L 419.988281 336.378906 L 419.570312 335.863281 L 419.230469 335.269531 L 418.96875 334.597656 L 418.789062 333.859375 L 418.699219 333.054688 L 427.484375 333.054688 L 427.5 332.957031 L 427.511719 332.851562 L 427.527344 332.738281 L 427.539062 332.621094 L 427.550781 332.496094 L 427.5625 332.363281 L 427.570312 332.230469 L 427.574219 332.09375 L 427.578125 331.953125 L 427.582031 331.808594 L 427.523438 330.734375 L 427.359375 329.742188 L 427.085938 328.84375 L 426.710938 328.046875 L 426.230469 327.351562 L 425.652344 326.769531 L 424.976562 326.308594 L 424.207031 325.96875 L 423.347656 325.757812 L 422.398438 325.6875 L 421.496094 325.765625 L 420.625 325.996094 L 419.792969 326.371094 L 419.019531 326.886719 L 418.324219 327.535156 L 417.714844 328.3125 L 417.214844 329.207031 L 416.839844 330.214844 L 416.601562 331.332031 L 416.515625 332.550781 L 416.597656 333.785156 L 416.832031 334.910156 L 417.210938 335.917969 L 417.71875 336.808594 L 418.339844 337.570312 L 419.066406 338.207031 L 419.886719 338.707031 L 420.78125 339.070312 L 421.742188 339.292969 Z M 418.675781 331.472656 L 418.796875 330.742188 L 418.988281 330.074219 L 419.253906 329.480469 L 419.578125 328.953125 L 419.953125 328.503906 L 420.378906 328.125 L 420.847656 327.832031 L 421.347656 327.613281 L 421.875 327.484375 L 422.421875 327.441406 L 423.007812 327.480469 L 423.542969 327.609375 L 424.019531 327.816406 L 424.441406 328.105469 L 424.804688 328.476562 L 425.109375 328.921875 L 425.347656 329.449219 L 425.519531 330.046875 L 425.625 330.722656 L 425.660156 331.472656 Z M 418.675781 331.472656 "/>
<path style=" stroke:none;fill-rule:nonzero;fill:rgb(0%,0%,0%);fill-opacity:1;" d="M 433.796875 339.367188 L 434.273438 339.34375 L 434.742188 339.273438 L 435.203125 339.160156 L 435.652344 339.007812 L 436.089844 338.820312 L 436.519531 338.601562 L 436.9375 338.355469 L 437.34375 338.085938 L 437.734375 337.800781 L 438.117188 337.496094 L 438.1875 337.496094 L 438.378906 339.054688 L 440.179688 339.054688 L 440.179688 331.039062 L 440.140625 330.109375 L 440.015625 329.25 L 439.804688 328.464844 L 439.503906 327.765625 L 439.113281 327.15625 L 438.625 326.644531 L 438.039062 326.234375 L 437.355469 325.9375 L 436.566406 325.75 L 435.667969 325.6875 L 435.050781 325.714844 L 434.449219 325.792969 L 433.867188 325.910156 L 433.304688 326.066406 L 432.769531 326.253906 L 432.257812 326.460938 L 431.777344 326.683594 L 431.328125 326.917969 L 430.910156 327.15625 L 430.53125 327.390625 L 431.398438 328.902344 L 431.714844 328.695312 L 432.054688 328.492188 L 432.410156 328.296875 L 432.785156 328.113281 L 433.171875 327.945312 L 433.574219 327.800781 L 433.992188 327.679688 L 434.421875 327.589844 L 434.859375 327.53125 L 435.308594 327.511719 L 435.902344 327.558594 L 436.410156 327.691406 L 436.832031 327.90625 L 437.175781 328.1875 L 437.453125 328.527344 L 437.664062 328.917969 L 437.820312 329.347656 L 437.921875 329.8125 L 437.980469 330.300781 L 437.996094 330.800781 L 436.425781 331.011719 L 435.035156 331.273438 L 433.820312 331.59375 L 432.78125 331.96875 L 431.910156 332.40625 L 431.207031 332.914062 L 430.664062 333.488281 L 430.28125 334.136719 L 430.054688 334.863281 L 429.980469 335.671875 L 430.027344 336.347656 L 430.167969 336.960938 L 430.390625 337.507812 L 430.695312 337.988281 L 431.070312 338.402344 L 431.511719 338.746094 L 432.007812 339.015625 L 432.5625 339.210938 L 433.160156 339.328125 Z M 434.421875 337.617188 L 434.042969 337.597656 L 433.683594 337.542969 L 433.351562 337.445312 L 433.050781 337.308594 L 432.78125 337.128906 L 432.554688 336.90625 L 432.371094 336.636719 L 432.230469 336.316406 L 432.144531 335.949219 L 432.117188 335.527344 L 432.164062 335.042969 L 432.308594 334.589844 L 432.558594 334.175781 L 432.921875 333.796875 L 433.410156 333.453125 L 434.03125 333.140625 L 434.789062 332.867188 L 435.699219 332.625 L 436.765625 332.414062 L 437.996094 332.238281 L 437.996094 335.886719 L 437.621094 336.210938 L 437.257812 336.5 L 436.902344 336.757812 L 436.554688 336.984375 L 436.207031 337.175781 L 435.863281 337.332031 L 435.515625 337.457031 L 435.160156 337.542969 L 434.796875 337.597656 Z M 434.421875 337.617188 "/>
<path style=" stroke:none;fill-rule:nonzero;fill:rgb(0%,0%,0%);fill-opacity:1;" d="M 448.4375 339.367188 L 448.675781 339.359375 L 448.917969 339.339844 L 449.164062 339.308594 L 449.410156 339.269531 L 449.65625 339.21875 L 449.898438 339.160156 L 450.140625 339.097656 L 450.378906 339.03125 L 450.609375 338.960938 L 450.835938 338.886719 L 450.40625 337.257812 L 450.269531 337.304688 L 450.128906 337.355469 L 449.980469 337.402344 L 449.667969 337.488281 L 449.511719 337.523438 L 449.359375 337.550781 L 449.207031 337.574219 L 449.058594 337.585938 L 448.917969 337.59375 L 448.492188 337.566406 L 448.125 337.484375 L 447.816406 337.351562 L 447.554688 337.167969 L 447.339844 336.933594 L 447.175781 336.652344 L 447.050781 336.324219 L 446.964844 335.953125 L 446.917969 335.535156 L 446.902344 335.070312 L 446.902344 327.800781 L 450.429688 327.800781 L 450.429688 326.023438 L 446.902344 326.023438 L 446.902344 322.351562 L 445.078125 322.351562 L 444.8125 326.023438 L 442.773438 326.144531 L 442.773438 327.800781 L 444.714844 327.800781 L 444.714844 335.023438 L 444.746094 335.777344 L 444.835938 336.472656 L 444.992188 337.105469 L 445.222656 337.671875 L 445.53125 338.167969 L 445.925781 338.585938 L 446.40625 338.917969 L 446.980469 339.164062 L 447.65625 339.316406 Z M 448.4375 339.367188 "/>
<path style=" stroke:none;fill-rule:nonzero;fill:rgb(0%,0%,0%);fill-opacity:1;" d="M 453.378906 339.054688 L 455.566406 339.054688 L 455.566406 329.601562 L 455.921875 329.21875 L 456.273438 328.875 L 456.617188 328.578125 L 456.957031 328.316406 L 457.289062 328.101562 L 457.617188 327.921875 L 457.933594 327.785156 L 458.25 327.6875 L 458.554688 327.628906 L 458.851562 327.609375 L 459.324219 327.640625 L 459.742188 327.734375 L 460.105469 327.898438 L 460.421875 328.128906 L 460.6875 328.429688 L 460.902344 328.804688 L 461.066406 329.257812 L 461.183594 329.785156 L 461.253906 330.394531 L 461.277344 331.089844 L 461.277344 339.054688 L 463.460938 339.054688 L 463.460938 329.601562 L 463.824219 329.21875 L 464.175781 328.875 L 464.519531 328.578125 L 464.855469 328.316406 L 465.1875 328.101562 L 465.507812 327.921875 L 465.824219 327.785156 L 466.136719 327.6875 L 466.445312 327.628906 L 466.75 327.609375 L 467.21875 327.640625 L 467.636719 327.734375 L 468.003906 327.898438 L 468.316406 328.128906 L 468.582031 328.429688 L 468.796875 328.804688 L 468.960938 329.257812 L 469.078125 329.785156 L 469.148438 330.394531 L 469.171875 331.089844 L 469.171875 339.054688 L 471.355469 339.054688 L 471.355469 330.800781 L 471.320312 329.847656 L 471.203125 328.988281 L 471.007812 328.226562 L 470.738281 327.558594 L 470.386719 326.992188 L 469.953125 326.527344 L 469.4375 326.160156 L 468.839844 325.898438 L 468.160156 325.742188 L 467.398438 325.6875 L 466.929688 325.71875 L 466.472656 325.808594 L 466.023438 325.949219 L 465.585938 326.144531 L 465.160156 326.386719 L 464.738281 326.671875 L 464.320312 327 L 463.910156 327.363281 L 463.503906 327.757812 L 463.101562 328.183594 L 462.925781 327.742188 L 462.714844 327.335938 L 462.46875 326.96875 L 462.179688 326.640625 L 461.851562 326.359375 L 461.476562 326.125 L 461.058594 325.9375 L 460.589844 325.800781 L 460.070312 325.714844 L 459.5 325.6875 L 459.039062 325.71875 L 458.589844 325.800781 L 458.148438 325.933594 L 457.722656 326.113281 L 457.3125 326.335938 L 456.910156 326.59375 L 456.523438 326.886719 L 456.148438 327.207031 L 455.789062 327.554688 L 455.445312 327.921875 L 455.371094 327.921875 L 455.179688 326.023438 L 453.378906 326.023438 Z M 453.378906 339.054688 "/>
<path style=" stroke:none;fill-rule:nonzero;fill:rgb(0%,0%,0%);fill-opacity:1;" d="M 480.859375 339.367188 L 481.382812 339.351562 L 481.882812 339.300781 L 482.359375 339.21875 L 482.816406 339.109375 L 483.253906 338.976562 L 483.675781 338.820312 L 484.074219 338.640625 L 484.460938 338.449219 L 484.828125 338.242188 L 485.179688 338.023438 L 484.390625 336.585938 L 484.097656 336.769531 L 483.804688 336.941406 L 483.5 337.09375 L 483.191406 337.226562 L 482.875 337.34375 L 482.546875 337.4375 L 482.210938 337.515625 L 481.859375 337.570312 L 481.5 337.605469 L 481.125 337.617188 L 480.40625 337.5625 L 479.738281 337.410156 L 479.128906 337.15625 L 478.578125 336.8125 L 478.089844 336.378906 L 477.675781 335.863281 L 477.335938 335.269531 L 477.070312 334.597656 L 476.894531 333.859375 L 476.804688 333.054688 L 485.589844 333.054688 L 485.601562 332.957031 L 485.617188 332.851562 L 485.628906 332.738281 L 485.644531 332.621094 L 485.65625 332.496094 L 485.671875 332.230469 L 485.679688 332.09375 L 485.683594 331.953125 L 485.683594 331.808594 L 485.628906 330.734375 L 485.464844 329.742188 L 485.191406 328.84375 L 484.8125 328.046875 L 484.335938 327.351562 L 483.757812 326.769531 L 483.082031 326.308594 L 482.3125 325.96875 L 481.449219 325.757812 L 480.5 325.6875 L 479.601562 325.765625 L 478.726562 325.996094 L 477.898438 326.371094 L 477.125 326.886719 L 476.425781 327.535156 L 475.820312 328.3125 L 475.320312 329.207031 L 474.941406 330.214844 L 474.703125 331.332031 L 474.621094 332.550781 L 474.703125 333.785156 L 474.9375 334.910156 L 475.316406 335.917969 L 475.820312 336.808594 L 476.445312 337.570312 L 477.171875 338.207031 L 477.988281 338.707031 L 478.882812 339.070312 L 479.847656 339.292969 Z M 476.78125 331.472656 L 476.898438 330.742188 L 477.09375 330.074219 L 477.355469 329.480469 L 477.679688 328.953125 L 478.058594 328.503906 L 478.484375 328.125 L 478.949219 327.832031 L 479.449219 327.613281 L 479.976562 327.484375 L 480.523438 327.441406 L 481.109375 327.480469 L 481.644531 327.609375 L 482.125 327.816406 L 482.546875 328.105469 L 482.910156 328.476562 L 483.210938 328.921875 L 483.449219 329.449219 L 483.625 330.046875 L 483.730469 330.722656 L 483.765625 331.472656 Z M 476.78125 331.472656 "/>
<path style=" stroke:none;fill-rule:nonzero;fill:rgb(0%,0%,0%);fill-opacity:1;" d="M 488.902344 339.054688 L 491.085938 339.054688 L 491.085938 329.601562 L 491.46875 329.222656 L 491.835938 328.886719 L 492.183594 328.585938 L 492.527344 328.328125 L 492.863281 328.109375 L 493.203125 327.929688 L 493.546875 327.789062 L 493.898438 327.6875 L 494.269531 327.628906 L 494.660156 327.609375 L 495.148438 327.640625 L 495.582031 327.734375 L 495.957031 327.898438 L 496.277344 328.128906 L 496.542969 328.429688 L 496.761719 328.804688 L 496.925781 329.257812 L 497.042969 329.785156 L 497.109375 330.394531 L 497.132812 331.089844 L 497.132812 339.054688 L 499.316406 339.054688 L 499.316406 330.800781 L 499.277344 329.847656 L 499.164062 328.988281 L 498.972656 328.226562 L 498.703125 327.558594 L 498.351562 326.992188 L 497.917969 326.527344 L 497.398438 326.160156 L 496.796875 325.898438 L 496.109375 325.742188 L 495.332031 325.6875 L 494.8125 325.71875 L 494.316406 325.800781 L 493.84375 325.933594 L 493.386719 326.113281 L 492.949219 326.332031 L 492.53125 326.589844 L 492.121094 326.878906 L 491.726562 327.195312 L 491.34375 327.535156 L 490.964844 327.894531 L 490.894531 327.894531 L 490.699219 326.023438 L 488.902344 326.023438 Z M 488.902344 339.054688 "/>
<path style=" stroke:none;fill-rule:nonzero;fill:rgb(0%,0%,0%);fill-opacity:1;" d="M 507.667969 339.367188 L 507.910156 339.359375 L 508.152344 339.339844 L 508.394531 339.308594 L 508.640625 339.269531 L 508.886719 339.21875 L 509.128906 339.160156 L 509.371094 339.097656 L 509.609375 339.03125 L 509.84375 338.960938 L 510.070312 338.886719 L 509.636719 337.257812 L 509.503906 337.304688 L 509.359375 337.355469 L 509.210938 337.402344 L 509.058594 337.445312 L 508.902344 337.488281 L 508.746094 337.523438 L 508.589844 337.550781 L 508.4375 337.574219 L 508.289062 337.585938 L 508.148438 337.59375 L 507.726562 337.566406 L 507.359375 337.484375 L 507.046875 337.351562 L 506.785156 337.167969 L 506.574219 336.933594 L 506.40625 336.652344 L 506.28125 336.324219 L 506.199219 335.953125 L 506.148438 335.535156 L 506.132812 335.070312 L 506.132812 327.800781 L 509.660156 327.800781 L 509.660156 326.023438 L 506.132812 326.023438 L 506.132812 322.351562 L 504.308594 322.351562 L 504.042969 326.023438 L 502.003906 326.144531 L 502.003906 327.800781 L 503.949219 327.800781 L 503.949219 335.023438 L 503.976562 335.777344 L 504.070312 336.472656 L 504.226562 337.105469 L 504.457031 337.671875 L 504.765625 338.167969 L 505.15625 338.585938 L 505.636719 338.917969 L 506.210938 339.164062 L 506.886719 339.316406 Z M 507.667969 339.367188 "/>
<path style=" stroke:none;fill-rule:nonzero;fill:rgb(0%,0%,0%);fill-opacity:1;" d="M 32.871094 205.355469 L 32.84375 204.6875 L 32.765625 204.054688 L 32.632812 203.449219 L 32.449219 202.871094 L 32.214844 202.324219 L 31.933594 201.800781 L 31.605469 201.304688 L 31.230469 200.832031 L 30.8125 200.382812 L 30.351562 199.957031 L 28.960938 201.179688 L 29.3125 201.523438 L 29.632812 201.875 L 29.925781 202.242188 L 30.179688 202.621094 L 30.402344 203.011719 L 30.585938 203.421875 L 30.734375 203.851562 L 30.839844 204.300781 L 30.90625 204.769531 L 30.929688 205.261719 L 30.84375 206.230469 L 30.601562 207.121094 L 30.207031 207.925781 L 29.664062 208.636719 L 28.980469 209.257812 L 28.164062 209.773438 L 27.222656 210.1875 L 26.160156 210.484375 L 24.984375 210.671875 L 23.703125 210.734375 L 22.4375 210.667969 L 21.277344 210.476562 L 20.226562 210.164062 L 19.296875 209.742188 L 18.492188 209.210938 L 17.820312 208.582031 L 17.285156 207.855469 L 16.894531 207.046875 L 16.65625 206.15625 L 16.574219 205.1875 L 16.597656 204.746094 L 16.65625 204.320312 L 16.753906 203.917969 L 16.882812 203.53125 L 17.046875 203.164062 L 17.238281 202.8125 L 17.460938 202.484375 L 17.703125 202.167969 L 17.96875 201.871094 L 18.257812 201.589844 L 16.816406 200.386719 L 16.480469 200.710938 L 16.15625 201.074219 L 15.847656 201.472656 L 15.558594 201.90625 L 15.300781 202.378906 L 15.074219 202.882812 L 14.890625 203.417969 L 14.75 203.988281 L 14.664062 204.585938 L 14.632812 205.210938 L 14.734375 206.515625 L 15.035156 207.738281 L 15.53125 208.867188 L 16.210938 209.886719 L 17.070312 210.785156 L 18.101562 211.550781 L 19.292969 212.171875 L 20.640625 212.628906 L 22.136719 212.914062 L 23.777344 213.011719 L 25.417969 212.917969 L 26.914062 212.636719 L 28.257812 212.183594 L 29.445312 211.574219 L 30.464844 210.824219 L 31.316406 209.9375 L 31.988281 208.9375 L 32.472656 207.832031 L 32.773438 206.632812 Z M 32.871094 205.355469 "/>
<path style=" stroke:none;fill-rule:nonzero;fill:rgb(0%,0%,0%);fill-opacity:1;" d="M 32.871094 191.820312 L 32.796875 190.875 L 32.578125 189.964844 L 32.214844 189.105469 L 31.71875 188.3125 L 31.082031 187.597656 L 30.320312 186.980469 L 29.433594 186.476562 L 28.421875 186.09375 L 27.296875 185.855469 L 26.054688 185.773438 L 24.808594 185.855469 L 23.675781 186.09375 L 22.65625 186.476562 L 21.761719 186.980469 L 20.996094 187.597656 L 20.355469 188.3125 L 19.855469 189.105469 L 19.488281 189.964844 L 19.265625 190.875 L 19.191406 191.820312 L 19.265625 192.765625 L 19.488281 193.675781 L 19.855469 194.535156 L 20.355469 195.328125 L 20.996094 196.042969 L 21.761719 196.660156 L 22.65625 197.164062 L 23.675781 197.546875 L 24.808594 197.785156 L 26.054688 197.867188 L 27.296875 197.785156 L 28.421875 197.546875 L 29.433594 197.164062 L 30.320312 196.660156 L 31.082031 196.042969 L 31.71875 195.328125 L 32.214844 194.535156 L 32.578125 193.675781 L 32.796875 192.765625 Z M 31.046875 191.820312 L 30.988281 192.472656 L 30.816406 193.078125 L 30.535156 193.628906 L 30.15625 194.121094 L 29.675781 194.550781 L 29.109375 194.910156 L 28.457031 195.199219 L 27.726562 195.414062 L 26.925781 195.542969 L 26.054688 195.589844 L 25.1875 195.542969 L 24.378906 195.414062 L 23.644531 195.199219 L 22.984375 194.910156 L 22.410156 194.550781 L 21.925781 194.121094 L 21.539062 193.628906 L 21.253906 193.078125 L 21.074219 192.472656 L 21.015625 191.820312 L 21.074219 191.167969 L 21.253906 190.558594 L 21.539062 190.007812 L 21.925781 189.511719 L 22.410156 189.078125 L 22.984375 188.714844 L 23.644531 188.421875 L 24.378906 188.207031 L 25.1875 188.074219 L 26.054688 188.027344 L 26.925781 188.074219 L 27.726562 188.207031 L 28.457031 188.421875 L 29.109375 188.714844 L 29.675781 189.078125 L 30.15625 189.511719 L 30.535156 190.007812 L 30.816406 190.558594 L 30.988281 191.167969 Z M 31.046875 191.820312 "/>
<path style=" stroke:none;fill-rule:nonzero;fill:rgb(0%,0%,0%);fill-opacity:1;" d="M 32.871094 177.085938 L 32.855469 176.5625 L 32.804688 176.0625 L 32.722656 175.585938 L 32.613281 175.128906 L 32.480469 174.691406 L 32.324219 174.269531 L 32.144531 173.871094 L 31.953125 173.484375 L 31.746094 173.117188 L 31.527344 172.765625 L 30.089844 173.554688 L 30.273438 173.847656 L 30.445312 174.140625 L 30.597656 174.445312 L 30.730469 174.753906 L 30.847656 175.070312 L 30.941406 175.398438 L 31.019531 175.734375 L 31.074219 176.085938 L 31.109375 176.445312 L 31.121094 176.820312 L 31.066406 177.539062 L 30.914062 178.207031 L 30.660156 178.816406 L 30.316406 179.367188 L 29.882812 179.855469 L 29.367188 180.269531 L 28.773438 180.609375 L 28.101562 180.875 L 27.363281 181.050781 L 26.558594 181.140625 L 26.558594 172.355469 L 26.460938 172.34375 L 26.355469 172.328125 L 26.242188 172.316406 L 26.125 172.300781 L 26 172.289062 L 25.734375 172.273438 L 25.597656 172.265625 L 25.457031 172.261719 L 25.3125 172.261719 L 24.238281 172.316406 L 23.246094 172.480469 L 22.347656 172.753906 L 21.550781 173.132812 L 20.855469 173.609375 L 20.273438 174.1875 L 19.8125 174.863281 L 19.472656 175.632812 L 19.261719 176.496094 L 19.191406 177.445312 L 19.269531 178.34375 L 19.5 179.21875 L 19.875 180.046875 L 20.390625 180.820312 L 21.039062 181.519531 L 21.816406 182.125 L 22.710938 182.625 L 23.71875 183.003906 L 24.835938 183.242188 L 26.054688 183.324219 L 27.289062 183.242188 L 28.414062 183.007812 L 29.421875 182.628906 L 30.3125 182.125 L 31.074219 181.5 L 31.710938 180.773438 L 32.210938 179.957031 L 32.574219 179.0625 L 32.796875 178.097656 Z M 24.976562 181.164062 L 24.246094 181.046875 L 23.578125 180.851562 L 22.984375 180.589844 L 22.457031 180.265625 L 22.007812 179.886719 L 21.628906 179.460938 L 21.335938 178.996094 L 21.117188 178.496094 L 20.988281 177.96875 L 20.945312 177.421875 L 20.984375 176.835938 L 21.113281 176.300781 L 21.320312 175.820312 L 21.609375 175.398438 L 21.980469 175.035156 L 22.425781 174.734375 L 22.953125 174.496094 L 23.550781 174.320312 L 24.226562 174.214844 L 24.976562 174.179688 Z M 24.976562 181.164062 "/>
<path style=" stroke:none;fill-rule:nonzero;fill:rgb(0%,0%,0%);fill-opacity:1;" d="M 32.558594 168.683594 L 32.558594 166.5 L 21.304688 166.5 L 21.304688 163.742188 L 19.527344 163.742188 L 19.527344 166.5 L 17.464844 166.5 L 16.984375 166.484375 L 16.550781 166.429688 L 16.167969 166.335938 L 15.835938 166.210938 L 15.550781 166.042969 L 15.316406 165.84375 L 15.132812 165.601562 L 15 165.324219 L 14.921875 165.007812 L 14.894531 164.652344 L 14.898438 164.515625 L 14.910156 164.371094 L 14.925781 164.226562 L 14.953125 164.078125 L 14.984375 163.929688 L 15.019531 163.78125 L 15.0625 163.628906 L 15.113281 163.480469 L 15.171875 163.332031 L 15.230469 163.1875 L 13.574219 162.707031 L 13.5 162.894531 L 13.429688 163.089844 L 13.367188 163.296875 L 13.308594 163.507812 L 13.261719 163.730469 L 13.21875 163.953125 L 13.1875 164.183594 L 13.164062 164.417969 L 13.148438 164.65625 L 13.144531 164.890625 L 13.191406 165.628906 L 13.335938 166.28125 L 13.574219 166.855469 L 13.894531 167.347656 L 14.300781 167.761719 L 14.789062 168.097656 L 15.347656 168.355469 L 15.980469 168.539062 L 16.679688 168.648438 L 17.441406 168.683594 L 19.527344 168.683594 L 19.648438 170.460938 L 21.304688 170.460938 L 21.304688 168.683594 Z M 32.558594 168.683594 "/>
<path style=" stroke:none;fill-rule:nonzero;fill:rgb(0%,0%,0%);fill-opacity:1;" d="M 32.558594 160.882812 L 32.558594 158.699219 L 21.304688 158.699219 L 21.304688 155.941406 L 19.527344 155.941406 L 19.527344 158.699219 L 17.464844 158.699219 L 16.984375 158.683594 L 16.550781 158.628906 L 16.167969 158.539062 L 15.835938 158.410156 L 15.550781 158.246094 L 15.316406 158.042969 L 15.132812 157.800781 L 15 157.523438 L 14.921875 157.207031 L 14.894531 156.851562 L 14.898438 156.714844 L 14.910156 156.570312 L 14.925781 156.425781 L 14.953125 156.277344 L 14.984375 156.128906 L 15.019531 155.980469 L 15.0625 155.832031 L 15.113281 155.679688 L 15.171875 155.535156 L 15.230469 155.386719 L 13.574219 154.910156 L 13.5 155.09375 L 13.429688 155.289062 L 13.367188 155.496094 L 13.308594 155.707031 L 13.261719 155.929688 L 13.21875 156.15625 L 13.1875 156.386719 L 13.164062 156.617188 L 13.148438 156.855469 L 13.144531 157.09375 L 13.191406 157.828125 L 13.335938 158.480469 L 13.574219 159.054688 L 13.894531 159.546875 L 14.300781 159.960938 L 14.789062 160.296875 L 15.347656 160.554688 L 15.980469 160.738281 L 16.679688 160.847656 L 17.441406 160.882812 L 19.527344 160.882812 L 19.648438 162.660156 L 21.304688 162.660156 L 21.304688 160.882812 Z M 32.558594 160.882812 "/>
<path style=" stroke:none;fill-rule:nonzero;fill:rgb(0%,0%,0%);fill-opacity:1;" d="M 32.558594 153.445312 L 32.558594 151.261719 L 19.527344 151.261719 L 19.527344 153.445312 Z M 16.839844 152.339844 L 16.824219 152.089844 L 16.773438 151.855469 L 16.691406 151.644531 L 16.582031 151.453125 L 16.441406 151.285156 L 16.273438 151.144531 L 16.082031 151.03125 L 15.871094 150.945312 L 15.632812 150.894531 L 15.375 150.875 L 15.132812 150.894531 L 14.90625 150.945312 L 14.699219 151.03125 L 14.515625 151.144531 L 14.351562 151.285156 L 14.214844 151.453125 L 14.105469 151.644531 L 14.027344 151.855469 L 13.976562 152.089844 L 13.960938 152.339844 L 13.976562 152.589844 L 14.027344 152.824219 L 14.105469 153.039062 L 14.214844 153.230469 L 14.351562 153.398438 L 14.515625 153.539062 L 14.699219 153.652344 L 14.90625 153.734375 L 15.132812 153.785156 L 15.375 153.804688 L 15.632812 153.785156 L 15.871094 153.734375 L 16.082031 153.652344 L 16.273438 153.539062 L 16.441406 153.398438 L 16.582031 153.230469 L 16.691406 153.039062 L 16.773438 152.824219 L 16.824219 152.589844 Z M 16.839844 152.339844 "/>
<path style=" stroke:none;fill-rule:nonzero;fill:rgb(0%,0%,0%);fill-opacity:1;" d="M 32.871094 141.589844 L 32.855469 141.066406 L 32.804688 140.566406 L 32.722656 140.089844 L 32.613281 139.632812 L 32.480469 139.195312 L 32.324219 138.773438 L 32.144531 138.375 L 31.953125 137.988281 L 31.746094 137.621094 L 31.527344 137.269531 L 30.089844 138.0625 L 30.273438 138.351562 L 30.445312 138.648438 L 30.597656 138.949219 L 30.730469 139.257812 L 30.847656 139.574219 L 30.941406 139.902344 L 31.019531 140.238281 L 31.074219 140.589844 L 31.109375 140.949219 L 31.121094 141.324219 L 31.066406 142.042969 L 30.914062 142.710938 L 30.660156 143.320312 L 30.316406 143.871094 L 29.882812 144.359375 L 29.367188 144.773438 L 28.773438 145.113281 L 28.101562 145.378906 L 27.363281 145.554688 L 26.558594 145.644531 L 26.558594 136.859375 L 26.460938 136.847656 L 26.355469 136.832031 L 26.242188 136.820312 L 26.125 136.804688 L 26 136.792969 L 25.734375 136.777344 L 25.597656 136.769531 L 25.457031 136.765625 L 25.3125 136.765625 L 24.238281 136.820312 L 23.246094 136.984375 L 22.347656 137.257812 L 21.550781 137.636719 L 20.855469 138.113281 L 20.273438 138.691406 L 19.8125 139.367188 L 19.472656 140.136719 L 19.261719 141 L 19.191406 141.949219 L 19.269531 142.847656 L 19.5 143.722656 L 19.875 144.550781 L 20.390625 145.324219 L 21.039062 146.023438 L 21.816406 146.628906 L 22.710938 147.128906 L 23.71875 147.507812 L 24.835938 147.746094 L 26.054688 147.828125 L 27.289062 147.746094 L 28.414062 147.511719 L 29.421875 147.132812 L 30.3125 146.628906 L 31.074219 146.003906 L 31.710938 145.277344 L 32.210938 144.460938 L 32.574219 143.566406 L 32.796875 142.601562 Z M 24.976562 145.667969 L 24.246094 145.550781 L 23.578125 145.355469 L 22.984375 145.09375 L 22.457031 144.769531 L 22.007812 144.390625 L 21.628906 143.964844 L 21.335938 143.5 L 21.117188 143 L 20.988281 142.472656 L 20.945312 141.925781 L 20.984375 141.339844 L 21.113281 140.804688 L 21.320312 140.324219 L 21.609375 139.902344 L 21.980469 139.539062 L 22.425781 139.238281 L 22.953125 139 L 23.550781 138.824219 L 24.226562 138.71875 L 24.976562 138.683594 Z M 24.976562 145.667969 "/>
<path style=" stroke:none;fill-rule:nonzero;fill:rgb(0%,0%,0%);fill-opacity:1;" d="M 32.871094 128.414062 L 32.855469 127.945312 L 32.800781 127.488281 L 32.714844 127.035156 L 32.59375 126.589844 L 32.441406 126.15625 L 32.253906 125.734375 L 32.039062 125.324219 L 31.792969 124.929688 L 31.519531 124.550781 L 31.214844 124.1875 L 29.753906 125.148438 L 29.96875 125.402344 L 30.171875 125.667969 L 30.359375 125.945312 L 30.53125 126.238281 L 30.679688 126.539062 L 30.804688 126.855469 L 30.910156 127.183594 L 30.984375 127.519531 L 31.03125 127.863281 L 31.046875 128.21875 L 30.988281 128.917969 L 30.816406 129.5625 L 30.535156 130.148438 L 30.15625 130.675781 L 29.675781 131.136719 L 29.109375 131.523438 L 28.457031 131.835938 L 27.726562 132.0625 L 26.925781 132.203125 L 26.054688 132.253906 L 25.1875 132.203125 L 24.378906 132.054688 L 23.644531 131.816406 L 22.984375 131.492188 L 22.410156 131.089844 L 21.925781 130.621094 L 21.539062 130.082031 L 21.253906 129.488281 L 21.074219 128.839844 L 21.015625 128.148438 L 21.03125 127.847656 L 21.070312 127.554688 L 21.136719 127.277344 L 21.226562 127.011719 L 21.339844 126.753906 L 21.472656 126.503906 L 21.621094 126.261719 L 21.789062 126.023438 L 21.972656 125.789062 L 22.167969 125.554688 L 20.726562 124.429688 L 20.488281 124.71875 L 20.253906 125.019531 L 20.035156 125.34375 L 19.835938 125.683594 L 19.652344 126.046875 L 19.496094 126.433594 L 19.371094 126.847656 L 19.273438 127.285156 L 19.214844 127.75 L 19.191406 128.246094 L 19.265625 129.230469 L 19.488281 130.179688 L 19.855469 131.074219 L 20.355469 131.898438 L 20.996094 132.640625 L 21.761719 133.28125 L 22.65625 133.804688 L 23.675781 134.199219 L 24.808594 134.445312 L 26.054688 134.53125 L 27.296875 134.453125 L 28.421875 134.226562 L 29.433594 133.863281 L 30.320312 133.375 L 31.082031 132.769531 L 31.71875 132.058594 L 32.214844 131.257812 L 32.578125 130.375 L 32.796875 129.421875 Z M 32.871094 128.414062 "/>
<path style=" stroke:none;fill-rule:nonzero;fill:rgb(0%,0%,0%);fill-opacity:1;" d="M 32.558594 121.332031 L 32.558594 119.148438 L 19.527344 119.148438 L 19.527344 121.332031 Z M 16.839844 120.230469 L 16.824219 119.976562 L 16.773438 119.746094 L 16.691406 119.53125 L 16.582031 119.339844 L 16.441406 119.171875 L 16.273438 119.03125 L 16.082031 118.917969 L 15.871094 118.832031 L 15.632812 118.78125 L 15.375 118.765625 L 15.132812 118.78125 L 14.90625 118.832031 L 14.699219 118.917969 L 14.515625 119.03125 L 14.351562 119.171875 L 14.214844 119.339844 L 14.105469 119.53125 L 14.027344 119.746094 L 13.976562 119.976562 L 13.960938 120.230469 L 13.976562 120.480469 L 14.027344 120.710938 L 14.105469 120.925781 L 14.214844 121.117188 L 14.351562 121.285156 L 14.515625 121.425781 L 14.699219 121.539062 L 14.90625 121.625 L 15.132812 121.675781 L 15.375 121.691406 L 15.632812 121.675781 L 15.871094 121.625 L 16.082031 121.539062 L 16.273438 121.425781 L 16.441406 121.285156 L 16.582031 121.117188 L 16.691406 120.925781 L 16.773438 120.710938 L 16.824219 120.480469 Z M 16.839844 120.230469 "/>
<path style=" stroke:none;fill-rule:nonzero;fill:rgb(0%,0%,0%);fill-opacity:1;" d="M 32.871094 109.476562 L 32.855469 108.957031 L 32.804688 108.457031 L 32.722656 107.976562 L 32.613281 107.519531 L 32.480469 107.082031 L 32.324219 106.664062 L 32.144531 106.261719 L 31.953125 105.878906 L 31.746094 105.507812 L 31.527344 105.15625 L 30.089844 105.949219 L 30.273438 106.238281 L 30.445312 106.535156 L 30.597656 106.835938 L 30.730469 107.144531 L 30.847656 107.464844 L 30.941406 107.789062 L 31.019531 108.128906 L 31.074219 108.476562 L 31.109375 108.839844 L 31.121094 109.210938 L 31.066406 109.929688 L 30.914062 110.597656 L 30.660156 111.207031 L 30.316406 111.757812 L 29.882812 112.246094 L 29.367188 112.660156 L 28.773438 113.003906 L 28.101562 113.265625 L 27.363281 113.441406 L 26.558594 113.53125 L 26.558594 104.75 L 26.460938 104.734375 L 26.355469 104.71875 L 26.242188 104.707031 L 26.125 104.695312 L 26 104.683594 L 25.867188 104.671875 L 25.734375 104.664062 L 25.597656 104.65625 L 25.457031 104.652344 L 25.3125 104.652344 L 24.238281 104.707031 L 23.246094 104.875 L 22.347656 105.144531 L 21.550781 105.523438 L 20.855469 106.003906 L 20.273438 106.582031 L 19.8125 107.257812 L 19.472656 108.027344 L 19.261719 108.886719 L 19.191406 109.835938 L 19.269531 110.734375 L 19.5 111.609375 L 19.875 112.441406 L 20.390625 113.210938 L 21.039062 113.910156 L 21.816406 114.519531 L 22.710938 115.019531 L 23.71875 115.394531 L 24.835938 115.632812 L 26.054688 115.714844 L 27.289062 115.636719 L 28.414062 115.398438 L 29.421875 115.023438 L 30.3125 114.515625 L 31.074219 113.890625 L 31.710938 113.167969 L 32.210938 112.347656 L 32.574219 111.453125 L 32.796875 110.492188 Z M 24.976562 113.554688 L 24.246094 113.4375 L 23.578125 113.242188 L 22.984375 112.980469 L 22.457031 112.65625 L 22.007812 112.277344 L 21.628906 111.851562 L 21.335938 111.386719 L 21.117188 110.886719 L 20.988281 110.359375 L 20.945312 109.8125 L 20.984375 109.226562 L 21.113281 108.691406 L 21.320312 108.214844 L 21.609375 107.789062 L 21.980469 107.425781 L 22.425781 107.125 L 22.953125 106.886719 L 23.550781 106.714844 L 24.226562 106.609375 L 24.976562 106.574219 Z M 24.976562 113.554688 "/>
<path style=" stroke:none;fill-rule:nonzero;fill:rgb(0%,0%,0%);fill-opacity:1;" d="M 32.558594 101.4375 L 32.558594 99.253906 L 23.105469 99.253906 L 22.726562 98.867188 L 22.390625 98.503906 L 22.089844 98.152344 L 21.832031 97.8125 L 21.613281 97.472656 L 21.433594 97.136719 L 21.292969 96.792969 L 21.191406 96.4375 L 21.132812 96.066406 L 21.113281 95.675781 L 21.144531 95.1875 L 21.238281 94.757812 L 21.402344 94.378906 L 21.632812 94.058594 L 21.933594 93.792969 L 22.308594 93.578125 L 22.761719 93.410156 L 23.289062 93.296875 L 23.898438 93.226562 L 24.59375 93.203125 L 32.558594 93.203125 L 32.558594 91.019531 L 24.304688 91.019531 L 23.351562 91.058594 L 22.492188 91.171875 L 21.730469 91.363281 L 21.0625 91.636719 L 20.496094 91.988281 L 20.03125 92.421875 L 19.664062 92.9375 L 19.402344 93.539062 L 19.246094 94.226562 L 19.191406 95.003906 L 19.222656 95.523438 L 19.304688 96.019531 L 19.4375 96.496094 L 19.617188 96.949219 L 19.835938 97.386719 L 20.09375 97.808594 L 20.382812 98.214844 L 20.699219 98.609375 L 21.039062 98.996094 L 21.398438 99.371094 L 21.398438 99.445312 L 19.527344 99.636719 L 19.527344 101.4375 Z M 32.558594 101.4375 "/>
<path style=" stroke:none;fill-rule:nonzero;fill:rgb(0%,0%,0%);fill-opacity:1;" d="M 32.871094 82.667969 L 32.863281 82.429688 L 32.84375 82.1875 L 32.8125 81.941406 L 32.773438 81.695312 L 32.722656 81.449219 L 32.664062 81.207031 L 32.601562 80.964844 L 32.535156 80.726562 L 32.464844 80.496094 L 32.390625 80.269531 L 30.761719 80.699219 L 30.808594 80.835938 L 30.859375 80.976562 L 30.90625 81.125 L 30.992188 81.4375 L 31.027344 81.59375 L 31.054688 81.746094 L 31.078125 81.898438 L 31.089844 82.046875 L 31.097656 82.1875 L 31.070312 82.613281 L 30.988281 82.980469 L 30.855469 83.289062 L 30.671875 83.550781 L 30.4375 83.761719 L 30.15625 83.929688 L 29.828125 84.054688 L 29.457031 84.140625 L 29.039062 84.1875 L 28.574219 84.203125 L 21.304688 84.203125 L 21.304688 80.675781 L 19.527344 80.675781 L 19.527344 84.203125 L 15.855469 84.203125 L 15.855469 86.027344 L 19.527344 86.292969 L 19.648438 88.332031 L 21.304688 88.332031 L 21.304688 86.386719 L 28.527344 86.386719 L 29.28125 86.359375 L 29.976562 86.269531 L 30.609375 86.109375 L 31.175781 85.882812 L 31.671875 85.574219 L 32.089844 85.179688 L 32.421875 84.699219 L 32.667969 84.125 L 32.820312 83.449219 Z M 32.871094 82.667969 "/>
</g>
</svg>
