<svg xmlns="http://www.w3.org/2000/svg" xmlns:xlink="http://www.w3.org/1999/xlink" x="0" y="0" width="661.8181762695312" height="211.26419067382812" style="
        width:661.8181762695312px;
        height:211.26419067382812px;
        background: transparent;
        fill: none;
">
        
        
        <svg xmlns="http://www.w3.org/2000/svg" class="role-diagram-draw-area"><g class="shapes-region" style="stroke: black; fill: none;"><g class="composite-shape"><path class="real" d=" M219,90 C219,86.13 222.13,83 226,83 C229.87,83 233,86.13 233,90 C233,93.87 229.87,97 226,97 C222.13,97 219,93.87 219,90 Z" style="stroke-width: 1; stroke: rgb(0, 0, 0); fill: none; fill-opacity: 1;"/></g><g class="arrow-line"><path class="connection real" stroke-dasharray="" d="  M233,90 L444.09,24.59" style="stroke: rgb(0, 0, 0); stroke-width: 1; fill: none; fill-opacity: 1;"/><g stroke="#000" transform="matrix(-0.9551750823435957,0.2960414870755535,-0.2960414870755535,-0.9551750823435957,446,24)" style="stroke: rgb(0, 0, 0); stroke-width: 1;"><path d=" M10.93,-3.29 Q4.96,-0.45 0,0 Q4.96,0.45 10.93,3.29"/></g></g><g class="composite-shape"><path class="real" d=" M446,24 C446,20.13 449.13,17 453,17 C456.87,17 460,20.13 460,24 C460,27.87 456.87,31 453,31 C449.13,31 446,27.87 446,24 Z" style="stroke-width: 1; stroke: rgb(0, 0, 0); fill: none; fill-opacity: 1;"/></g><g class="composite-shape"><path class="real" d=" M219,139 C219,135.13 222.13,132 226,132 C229.87,132 233,135.13 233,139 C233,142.87 229.87,146 226,146 C222.13,146 219,142.87 219,139 Z" style="stroke-width: 1; stroke: rgb(0, 0, 0); fill: none; fill-opacity: 1;"/></g><g class="arrow-line"><path class="connection real" stroke-dasharray="" d="  M233,139 L446,129.09" style="stroke: rgb(0, 0, 0); stroke-width: 1; fill: none; fill-opacity: 1;"/><g stroke="#000" transform="matrix(-0.9989225180424558,0.046409082599418144,-0.046409082599418144,-0.9989225180424558,448,129)" style="stroke: rgb(0, 0, 0); stroke-width: 1;"><path d=" M10.93,-3.29 Q4.96,-0.45 0,0 Q4.96,0.45 10.93,3.29"/></g></g><g class="composite-shape"><path class="real" d=" M448,129 C448,125.13 451.13,122 455,122 C458.87,122 462,125.13 462,129 C462,132.87 458.87,136 455,136 C451.13,136 448,132.87 448,129 Z" style="stroke-width: 1; stroke: rgb(0, 0, 0); fill: none; fill-opacity: 1;"/></g><g class="arrow-line"><path class="connection real" stroke-dasharray="1.125 3.35" d="  M234,91 L447,81.09" style="stroke: rgb(0, 0, 0); stroke-width: 1; fill: none; fill-opacity: 1;"/><g stroke="#000" transform="matrix(-0.9989225180424558,0.046409082599418144,-0.046409082599418144,-0.9989225180424558,449,81)" style="stroke: rgb(0, 0, 0); stroke-width: 1;"><path d=" M10.93,-3.29 Q4.96,-0.45 0,0 Q4.96,0.45 10.93,3.29"/></g></g><g class="composite-shape"><path class="real" d=" M449,81 C449,77.13 452.13,74 456,74 C459.87,74 463,77.13 463,81 C463,84.87 459.87,88 456,88 C452.13,88 449,84.87 449,81 Z" style="stroke-width: 1; stroke: rgb(0, 0, 0); fill: none; fill-opacity: 1; stroke-dasharray: 1.125, 3.35;"/></g><g/></g><g/><g/><g/></svg>
        <svg xmlns="http://www.w3.org/2000/svg" xmlns:xlink="http://www.w3.org/1999/xlink" width="660" height="209.44601440429688" style="width:660px;height:209.44601440429688px;font-family:Asana-Math, Asana;background:transparent;"><g><g><g><g><g><g><g transform="matrix(1,0,0,1,180.9019775390625,145.90625)"><path transform="matrix(0.017,0,0,-0.017,0,0)" d="M52 647L55 623C78 632 89 635 100 635C147 635 183 589 224 477C248 410 287 273 286 257C286 257 286 254 285 251L264 125C247 34 246 31 206 28L158 25L154 -3L207 -2C254 -1 277 0 293 0L390 -3L416 -3L419 25L370 28C343 30 334 37 334 57C334 63 335 73 336 78L362 246C371 301 436 419 510 512C568 586 610 616 669 626L675 697C602 678 549 636 474 536C413 452 374 384 346 310C271 616 223 704 131 705C128 702 90 672 67 658Z" stroke="rgb(0,0,0)" stroke-opacity="1" stroke-width="8" fill="rgb(0,0,0)" fill-opacity="1"></path></g></g><g><g><g><g><g transform="matrix(1,0,0,1,192.734375,148.90283813476563)"><path transform="matrix(0.0119,0,0,-0.0119,0,0)" d="M263 689C108 689 29 566 29 324C29 207 50 106 85 57C120 8 176 -20 238 -20C389 -20 465 110 465 366C465 585 400 689 263 689ZM245 654C342 654 381 556 381 316C381 103 343 15 251 15C154 15 113 116 113 360C113 571 150 654 245 654ZM703 123C676 114 658 108 605 93C598 17 573 -48 515 -144L529 -155L570 -136C651 -31 689 32 717 109ZM1260 689C1105 689 1026 566 1026 324C1026 207 1047 106 1082 57C1117 8 1173 -20 1235 -20C1386 -20 1462 110 1462 366C1462 585 1397 689 1260 689ZM1242 654C1339 654 1378 556 1378 316C1378 103 1340 15 1248 15C1151 15 1110 116 1110 360C1110 571 1147 654 1242 654Z" stroke="rgb(0,0,0)" stroke-opacity="1" stroke-width="8" fill="rgb(0,0,0)" fill-opacity="1"></path></g></g></g></g></g></g></g></g></g></g><g><g><g><g><g><g><g transform="matrix(1,0,0,1,473.89910888671875,131.90765380859375)"><path transform="matrix(0.017,0,0,-0.017,0,0)" d="M52 647L55 623C78 632 89 635 100 635C147 635 183 589 224 477C248 410 287 273 286 257C286 257 286 254 285 251L264 125C247 34 246 31 206 28L158 25L154 -3L207 -2C254 -1 277 0 293 0L390 -3L416 -3L419 25L370 28C343 30 334 37 334 57C334 63 335 73 336 78L362 246C371 301 436 419 510 512C568 586 610 616 669 626L675 697C602 678 549 636 474 536C413 452 374 384 346 310C271 616 223 704 131 705C128 702 90 672 67 658Z" stroke="rgb(0,0,0)" stroke-opacity="1" stroke-width="8" fill="rgb(0,0,0)" fill-opacity="1"></path></g></g><g><g><g><g><g transform="matrix(1,0,0,1,485.73150634765625,134.90424194335938)"><path transform="matrix(0.0119,0,0,-0.0119,0,0)" d="M263 689C108 689 29 566 29 324C29 207 50 106 85 57C120 8 176 -20 238 -20C389 -20 465 110 465 366C465 585 400 689 263 689ZM245 654C342 654 381 556 381 316C381 103 343 15 251 15C154 15 113 116 113 360C113 571 150 654 245 654ZM703 123C676 114 658 108 605 93C598 17 573 -48 515 -144L529 -155L570 -136C651 -31 689 32 717 109ZM1415 -3L1415 27L1363 30C1308 33 1298 44 1298 96L1298 700L1057 598L1064 548L1214 614L1214 96C1214 44 1203 33 1149 30L1093 27L1093 -3C1247 0 1247 0 1258 0C1289 0 1399 -3 1415 -3Z" stroke="rgb(0,0,0)" stroke-opacity="1" stroke-width="8" fill="rgb(0,0,0)" fill-opacity="1"></path></g></g></g></g></g></g></g></g></g></g><g><g><g><g><g><g><g transform="matrix(1,0,0,1,186.90338134765625,97.90908813476562)"><path transform="matrix(0.017,0,0,-0.017,0,0)" d="M52 647L55 623C78 632 89 635 100 635C147 635 183 589 224 477C248 410 287 273 286 257C286 257 286 254 285 251L264 125C247 34 246 31 206 28L158 25L154 -3L207 -2C254 -1 277 0 293 0L390 -3L416 -3L419 25L370 28C343 30 334 37 334 57C334 63 335 73 336 78L362 246C371 301 436 419 510 512C568 586 610 616 669 626L675 697C602 678 549 636 474 536C413 452 374 384 346 310C271 616 223 704 131 705C128 702 90 672 67 658Z" stroke="rgb(0,0,0)" stroke-opacity="1" stroke-width="8" fill="rgb(0,0,0)" fill-opacity="1"></path></g></g><g><g><g><g><g transform="matrix(1,0,0,1,198.73577880859375,100.90567626953126)"><path transform="matrix(0.0119,0,0,-0.0119,0,0)" d="M418 -3L418 27L366 30C311 33 301 44 301 96L301 700L60 598L67 548L217 614L217 96C217 44 206 33 152 30L96 27L96 -3C250 0 250 0 261 0C292 0 402 -3 418 -3ZM703 123C676 114 658 108 605 93C598 17 573 -48 515 -144L529 -155L570 -136C651 -31 689 32 717 109ZM1260 689C1105 689 1026 566 1026 324C1026 207 1047 106 1082 57C1117 8 1173 -20 1235 -20C1386 -20 1462 110 1462 366C1462 585 1397 689 1260 689ZM1242 654C1339 654 1378 556 1378 316C1378 103 1340 15 1248 15C1151 15 1110 116 1110 360C1110 571 1147 654 1242 654Z" stroke="rgb(0,0,0)" stroke-opacity="1" stroke-width="8" fill="rgb(0,0,0)" fill-opacity="1"></path></g></g></g></g></g></g></g></g></g></g><g><g><g><g><g><g><g transform="matrix(1,0,0,1,476.90338134765625,29.904830932617188)"><path transform="matrix(0.017,0,0,-0.017,0,0)" d="M52 647L55 623C78 632 89 635 100 635C147 635 183 589 224 477C248 410 287 273 286 257C286 257 286 254 285 251L264 125C247 34 246 31 206 28L158 25L154 -3L207 -2C254 -1 277 0 293 0L390 -3L416 -3L419 25L370 28C343 30 334 37 334 57C334 63 335 73 336 78L362 246C371 301 436 419 510 512C568 586 610 616 669 626L675 697C602 678 549 636 474 536C413 452 374 384 346 310C271 616 223 704 131 705C128 702 90 672 67 658Z" stroke="rgb(0,0,0)" stroke-opacity="1" stroke-width="8" fill="rgb(0,0,0)" fill-opacity="1"></path></g></g><g><g><g><g><g transform="matrix(1,0,0,1,488.73577880859375,32.90141906738281)"><path transform="matrix(0.0119,0,0,-0.0119,0,0)" d="M418 -3L418 27L366 30C311 33 301 44 301 96L301 700L60 598L67 548L217 614L217 96C217 44 206 33 152 30L96 27L96 -3C250 0 250 0 261 0C292 0 402 -3 418 -3ZM703 123C676 114 658 108 605 93C598 17 573 -48 515 -144L529 -155L570 -136C651 -31 689 32 717 109ZM1260 689C1105 689 1026 566 1026 324C1026 207 1047 106 1082 57C1117 8 1173 -20 1235 -20C1386 -20 1462 110 1462 366C1462 585 1397 689 1260 689ZM1242 654C1339 654 1378 556 1378 316C1378 103 1340 15 1248 15C1151 15 1110 116 1110 360C1110 571 1147 654 1242 654Z" stroke="rgb(0,0,0)" stroke-opacity="1" stroke-width="8" fill="rgb(0,0,0)" fill-opacity="1"></path></g></g></g></g></g></g></g></g></g></g><g><g><g><g><g><g><g transform="matrix(1,0,0,1,469.90057373046875,60.928852539062504)"><path transform="matrix(0.024480000000000002,0,0,-0.024480000000000002,0,0)" d="M63 278L63 281C118 423 114 402 279 408C237 307 190 180 187 71C183 -74 360 -4 411 59L411 65L397 75L397 74C374 56 347 33 318 33C198 33 313 370 326 412C371 413 431 411 476 420L476 463L108 463C81 448 56 310 48 278Z" stroke="rgb(183,92,157)" stroke-opacity="1" stroke-width="8" fill="rgb(183,92,157)" fill-opacity="1"></path></g></g></g></g></g></g></g><g><g><g><g transform="matrix(1,0,0,1,451.015625,67.23766906738281)"><path transform="matrix(0.04233,0,0,-0.04233,0,0)" d="M275 273C213 292 199 327 199 392L199 578C199 703 144 726 44 726C109 707 127 667 127 595L127 409C127 335 139 292 208 274L208 272C136 253 127 207 127 128L127 -45C127 -117 107 -161 44 -175C157 -175 199 -149 199 -17L199 151C199 223 209 254 275 273Z" stroke="rgb(183,92,157)" stroke-opacity="1" stroke-width="8" fill="rgb(183,92,157)" fill-opacity="1"></path></g></g></g></g><g><g><g><g transform="matrix(1,0,0,1,200.9019775390625,187.85028686523438)"><path transform="matrix(0.020399999999999998,0,0,-0.020399999999999998,0,0)" d="M125 390L69 107C68 99 56 61 56 31C56 6 67 -9 86 -9C121 -9 156 11 234 74L265 99L255 117L210 86C181 66 161 56 150 56C141 56 136 64 136 76C136 102 150 183 179 328L192 390L299 390L310 440C272 436 238 434 200 434C216 528 227 577 245 631L234 646C214 634 187 622 156 610L131 440C87 419 61 408 43 403L41 390Z" stroke="rgb(0,0,0)" stroke-opacity="1" stroke-width="8" fill="rgb(0,0,0)" fill-opacity="1"></path></g></g><g><g transform="matrix(1,0,0,1,218.8707275390625,187.85028686523438)"><path transform="matrix(0.020399999999999998,0,0,-0.020399999999999998,0,0)" d="M604 347L604 406L65 406L65 347ZM604 134L604 193L65 193L65 134Z" stroke="rgb(0,0,0)" stroke-opacity="1" stroke-width="8" fill="rgb(0,0,0)" fill-opacity="1"></path></g></g><g><g transform="matrix(1,0,0,1,238.61505126953125,187.85028686523438)"><path transform="matrix(0.020399999999999998,0,0,-0.020399999999999998,0,0)" d="M512 689C357 689 278 566 278 324C278 207 299 106 334 57C369 8 425 -20 487 -20C638 -20 714 110 714 366C714 585 649 689 512 689ZM494 654C591 654 630 556 630 316C630 103 592 15 500 15C403 15 362 116 362 360C362 571 399 654 494 654Z" stroke="rgb(0,0,0)" stroke-opacity="1" stroke-width="8" fill="rgb(0,0,0)" fill-opacity="1"></path></g></g></g></g><g><g><g><g transform="matrix(1,0,0,1,429.90057373046875,186.48663940429688)"><path transform="matrix(0.020399999999999998,0,0,-0.020399999999999998,0,0)" d="M125 390L69 107C68 99 56 61 56 31C56 6 67 -9 86 -9C121 -9 156 11 234 74L265 99L255 117L210 86C181 66 161 56 150 56C141 56 136 64 136 76C136 102 150 183 179 328L192 390L299 390L310 440C272 436 238 434 200 434C216 528 227 577 245 631L234 646C214 634 187 622 156 610L131 440C87 419 61 408 43 403L41 390Z" stroke="rgb(0,0,0)" stroke-opacity="1" stroke-width="8" fill="rgb(0,0,0)" fill-opacity="1"></path></g></g><g><g transform="matrix(1,0,0,1,447.86932373046875,186.48663940429688)"><path transform="matrix(0.020399999999999998,0,0,-0.020399999999999998,0,0)" d="M604 347L604 406L65 406L65 347ZM604 134L604 193L65 193L65 134Z" stroke="rgb(0,0,0)" stroke-opacity="1" stroke-width="8" fill="rgb(0,0,0)" fill-opacity="1"></path></g></g><g><g transform="matrix(1,0,0,1,467.6136474609375,186.48663940429688)"><path transform="matrix(0.020399999999999998,0,0,-0.020399999999999998,0,0)" d="M667 -3L667 27L615 30C560 33 550 44 550 96L550 700L309 598L316 548L466 614L466 96C466 44 455 33 401 30L345 27L345 -3C499 0 499 0 510 0C541 0 651 -3 667 -3Z" stroke="rgb(0,0,0)" stroke-opacity="1" stroke-width="8" fill="rgb(0,0,0)" fill-opacity="1"></path></g></g></g></g></svg>
</svg>
