<svg xmlns="http://www.w3.org/2000/svg" xmlns:xlink="http://www.w3.org/1999/xlink" x="0" y="0" width="661.45458984375" height="362.2727355957031" style="
        width:661.45458984375px;
        height:362.2727355957031px;
        background: transparent;
        fill: none;
">
        
        
        <svg xmlns="http://www.w3.org/2000/svg" class="role-diagram-draw-area"><g class="shapes-region" style="stroke: black; fill: none;"><g class="composite-shape"><path class="real" d=" M190.67,93.95 L296.57,93.95 L296.57,147.29 L190.67,147.29 Z" style="stroke-width: 1; stroke: rgb(39, 40, 34); stroke-opacity: 1; fill: none; fill-opacity: 1;"/></g><g class="composite-shape"><path class="real" d=" M402.48,147.29 L508.38,147.29 L508.38,200.63 L402.48,200.63 Z" style="stroke-width: 1; stroke: rgb(39, 40, 34); stroke-opacity: 1; fill: rgb(64, 191, 176); fill-opacity: 1;"/></g><g class="composite-shape"><path class="real" d=" M402.48,200.63 L508.38,200.63 L508.38,253.98 L402.48,253.98 Z" style="stroke-width: 1; stroke: rgb(39, 40, 34); stroke-opacity: 1; fill: rgb(64, 191, 176); fill-opacity: 1;"/></g><g class="composite-shape"><path class="real" d=" M402.48,93.95 L508.38,93.95 L508.38,147.29 L402.48,147.29 Z" style="stroke-width: 1; stroke: rgb(39, 40, 34); stroke-opacity: 1; fill: rgb(64, 191, 176); fill-opacity: 1;"/></g><g class="composite-shape"><path class="real" d=" M190.67,200.63 L296.57,200.63 L296.57,253.98 L190.67,253.98 Z" style="stroke-width: 1; stroke: rgb(39, 40, 34); stroke-opacity: 1; fill: rgb(64, 191, 176); fill-opacity: 1;"/></g><g class="composite-shape"><path class="real" d=" M296.57,147.29 L402.48,147.29 L402.48,200.63 L296.57,200.63 Z" style="stroke-width: 1; stroke: rgb(39, 40, 34); stroke-opacity: 1; fill: rgb(64, 191, 176); fill-opacity: 1;"/></g><g class="composite-shape"><path class="real" d=" M296.57,200.63 L402.48,200.63 L402.48,253.98 L296.57,253.98 Z" style="stroke-width: 1; stroke: rgb(39, 40, 34); stroke-opacity: 1; fill: rgb(64, 191, 176); fill-opacity: 1;"/></g><g class="composite-shape"><path class="real" d=" M296.57,93.95 L402.48,93.95 L402.48,147.29 L296.57,147.29 Z" style="stroke-width: 1; stroke: rgb(39, 40, 34); stroke-opacity: 1; fill: rgb(255, 255, 255); fill-opacity: 0;"/></g><g class="composite-shape"><path class="real" d=" M84.07,147.29 L189.97,147.29 L189.97,200.63 L84.07,200.63 Z" style="stroke-width: 1; stroke: rgb(39, 40, 34); stroke-opacity: 1; fill: none; fill-opacity: 1;"/></g><g class="composite-shape"><path class="real" d=" M84.76,200.63 L190.67,200.63 L190.67,253.98 L84.76,253.98 Z" style="stroke-width: 1; stroke: rgb(39, 40, 34); stroke-opacity: 1; fill: rgb(255, 255, 255); fill-opacity: 0;"/></g><g class="composite-shape"><path class="real" d=" M84.07,93.95 L189.97,93.95 L189.97,147.29 L84.07,147.29 Z" style="stroke-width: 1; stroke: rgb(39, 40, 34); stroke-opacity: 1; fill: none; fill-opacity: 1;"/></g><g class="arrow-line"><path class="connection real" stroke-dasharray="" d="  M84.07,253.98 L654.27,253.73" style="stroke: rgb(39, 40, 34); stroke-opacity: 1; stroke-width: 1; fill: none; fill-opacity: 1;"/><g stroke="rgb(39,40,34)" stroke-opacity="1" transform="matrix(-0.9999999390765166,0.0003490658433104424,-0.0003490658433104424,-0.9999999390765166,656.2741699218751,253.73295593261722)" style="stroke: rgb(39, 40, 34); stroke-width: 1;"><path d=" M10.93,-3.29 Q4.96,-0.45 0,0 Q4.96,0.45 10.93,3.29"/></g></g><g class="arrow-line"><path class="connection real" stroke-dasharray="" d="  M84.07,253.98 L84.07,22.96" style="stroke: rgb(39, 40, 34); stroke-opacity: 1; stroke-width: 1; fill: none; fill-opacity: 1;"/><g stroke="rgb(39,40,34)" stroke-opacity="1" transform="matrix(3.061616997868383e-16,1,-1,3.061616997868383e-16,84.06902895502796,20.962765416026713)" style="stroke: rgb(39, 40, 34); stroke-width: 1;"><path d=" M10.93,-3.29 Q4.96,-0.45 0,0 Q4.96,0.45 10.93,3.29"/></g></g><g class="composite-shape"><path class="real" d=" M84.76,40.6 L190.67,40.6 L190.67,93.95 L84.76,93.95 Z" style="stroke-width: 1; stroke: rgb(39, 40, 34); stroke-opacity: 1; fill: rgb(255, 255, 255); fill-opacity: 0;"/></g><g class="composite-shape"><path class="real" d=" M189.97,40.6 L295.88,40.6 L295.88,93.95 L189.97,93.95 Z" style="stroke-width: 1; stroke: rgb(39, 40, 34); stroke-opacity: 1; fill: rgb(255, 255, 255); fill-opacity: 0;"/></g><g class="composite-shape"><path class="real" d=" M296.64,40.6 L402.55,40.6 L402.55,93.95 L296.64,93.95 Z" style="stroke-width: 1; stroke: rgb(39, 40, 34); stroke-opacity: 1; fill: rgb(255, 255, 255); fill-opacity: 0;"/></g><g class="composite-shape"><path class="real" d=" M402.55,40.6 L508.45,40.6 L508.45,93.95 L402.55,93.95 Z" style="stroke-width: 1; stroke: rgb(39, 40, 34); stroke-opacity: 1; fill: rgb(255, 255, 255); fill-opacity: 0;"/></g><g/></g><g/><g/><g/></svg>
        <svg xmlns="http://www.w3.org/2000/svg" xmlns:xlink="http://www.w3.org/1999/xlink" width="660" height="360.8182067871094" style="width:660px;height:360.8182067871094px;font-family:Asana-Math, Asana;background:transparent;"><g><g><g><g transform="matrix(1,0,0,1,630.2159729003906,278.69317626953125)"><path transform="matrix(0.017,0,0,-0.017,0,0)" d="M125 390L69 107C68 99 56 61 56 31C56 6 67 -9 86 -9C121 -9 156 11 234 74L265 99L255 117L210 86C181 66 161 56 150 56C141 56 136 64 136 76C136 102 150 183 179 328L192 390L299 390L310 440C272 436 238 434 200 434C216 528 227 577 245 631L234 646C214 634 187 622 156 610L131 440C87 419 61 408 43 403L41 390Z" stroke="rgb(0,0,0)" stroke-opacity="1" stroke-width="8" fill="rgb(0,0,0)" fill-opacity="1"></path></g></g></g></g><g><g><g><g transform="matrix(1,0,0,1,68.87496948242188,39.034088134765625)"><path transform="matrix(0.017,0,0,-0.017,0,0)" d="M34 388L41 368L73 389C110 412 113 414 120 414C130 414 138 404 138 391C138 384 134 361 130 347L64 107C56 76 51 49 51 30C51 6 62 -9 81 -9C107 -9 143 12 241 85L231 103L205 86C176 67 153 56 144 56C137 56 131 66 131 76C131 86 133 95 138 116L215 420C219 437 221 448 221 456C221 473 212 482 196 482C174 482 137 461 62 408ZM228 712C199 712 170 679 170 645C170 620 185 604 209 604C240 604 264 633 264 671C264 695 249 712 228 712Z" stroke="rgb(0,0,0)" stroke-opacity="1" stroke-width="8" fill="rgb(0,0,0)" fill-opacity="1"></path></g></g></g></g><g><g><g><g transform="matrix(1,0,0,1,117.09091186523438,272.7159118652344)"><path transform="matrix(0.017,0,0,-0.017,0,0)" d="M125 390L69 107C68 99 56 61 56 31C56 6 67 -9 86 -9C121 -9 156 11 234 74L265 99L255 117L210 86C181 66 161 56 150 56C141 56 136 64 136 76C136 102 150 183 179 328L192 390L299 390L310 440C272 436 238 434 200 434C216 528 227 577 245 631L234 646C214 634 187 622 156 610L131 440C87 419 61 408 43 403L41 390Z" stroke="rgb(39,40,34)" stroke-opacity="1" stroke-width="8" fill="rgb(39,40,34)" fill-opacity="1"></path></g></g><g><g transform="matrix(1,0,0,1,132.05679321289062,272.7159118652344)"><path transform="matrix(0.017,0,0,-0.017,0,0)" d="M604 347L604 406L65 406L65 347ZM604 134L604 193L65 193L65 134Z" stroke="rgb(39,40,34)" stroke-opacity="1" stroke-width="8" fill="rgb(39,40,34)" fill-opacity="1"></path></g></g><g><g transform="matrix(1,0,0,1,148.51138305664062,272.7159118652344)"><path transform="matrix(0.017,0,0,-0.017,0,0)" d="M418 -3L418 27L366 30C311 33 301 44 301 96L301 700L60 598L67 548L217 614L217 96C217 44 206 33 152 30L96 27L96 -3C250 0 250 0 261 0C292 0 402 -3 418 -3Z" stroke="rgb(39,40,34)" stroke-opacity="1" stroke-width="8" fill="rgb(39,40,34)" fill-opacity="1"></path></g></g></g></g><g><g><g><g transform="matrix(1,0,0,1,225.95455932617188,273.30682373046875)"><path transform="matrix(0.017,0,0,-0.017,0,0)" d="M125 390L69 107C68 99 56 61 56 31C56 6 67 -9 86 -9C121 -9 156 11 234 74L265 99L255 117L210 86C181 66 161 56 150 56C141 56 136 64 136 76C136 102 150 183 179 328L192 390L299 390L310 440C272 436 238 434 200 434C216 528 227 577 245 631L234 646C214 634 187 622 156 610L131 440C87 419 61 408 43 403L41 390Z" stroke="rgb(39,40,34)" stroke-opacity="1" stroke-width="8" fill="rgb(39,40,34)" fill-opacity="1"></path></g></g><g><g transform="matrix(1,0,0,1,240.92044067382812,273.30682373046875)"><path transform="matrix(0.017,0,0,-0.017,0,0)" d="M604 347L604 406L65 406L65 347ZM604 134L604 193L65 193L65 134Z" stroke="rgb(39,40,34)" stroke-opacity="1" stroke-width="8" fill="rgb(39,40,34)" fill-opacity="1"></path></g></g><g><g transform="matrix(1,0,0,1,257.3749694824219,273.30682373046875)"><path transform="matrix(0.017,0,0,-0.017,0,0)" d="M16 23L16 -3C203 -3 203 0 239 0C275 0 275 -3 468 -3L468 82C353 77 307 81 122 77L304 270C401 373 431 428 431 503C431 618 353 689 226 689C154 689 105 669 56 619L39 483L68 483L81 529C97 587 133 612 200 612C286 612 341 558 341 473C341 398 299 324 186 204Z" stroke="rgb(39,40,34)" stroke-opacity="1" stroke-width="8" fill="rgb(39,40,34)" fill-opacity="1"></path></g></g></g></g><g><g><g><g transform="matrix(1,0,0,1,335.9999694824219,272.7159118652344)"><path transform="matrix(0.017,0,0,-0.017,0,0)" d="M125 390L69 107C68 99 56 61 56 31C56 6 67 -9 86 -9C121 -9 156 11 234 74L265 99L255 117L210 86C181 66 161 56 150 56C141 56 136 64 136 76C136 102 150 183 179 328L192 390L299 390L310 440C272 436 238 434 200 434C216 528 227 577 245 631L234 646C214 634 187 622 156 610L131 440C87 419 61 408 43 403L41 390Z" stroke="rgb(39,40,34)" stroke-opacity="1" stroke-width="8" fill="rgb(39,40,34)" fill-opacity="1"></path></g></g><g><g transform="matrix(1,0,0,1,350.9659118652344,272.7159118652344)"><path transform="matrix(0.017,0,0,-0.017,0,0)" d="M604 347L604 406L65 406L65 347ZM604 134L604 193L65 193L65 134Z" stroke="rgb(39,40,34)" stroke-opacity="1" stroke-width="8" fill="rgb(39,40,34)" fill-opacity="1"></path></g></g><g><g transform="matrix(1,0,0,1,367.4204406738281,272.7159118652344)"><path transform="matrix(0.017,0,0,-0.017,0,0)" d="M462 224C462 345 355 366 308 374C388 436 418 482 418 541C418 630 344 689 233 689C165 689 120 670 72 622L43 498L74 498L92 554C103 588 166 622 218 622C283 622 336 569 336 506C336 431 277 368 206 368C198 368 187 369 174 370L159 371L147 318L154 312C192 329 211 334 238 334C321 334 369 281 369 190C369 88 308 21 215 21C169 21 128 36 98 64C74 86 61 109 42 163L15 153C36 92 44 56 50 6C103 -12 147 -20 184 -20C307 -20 462 87 462 224Z" stroke="rgb(39,40,34)" stroke-opacity="1" stroke-width="8" fill="rgb(39,40,34)" fill-opacity="1"></path></g></g></g></g><g><g><g><g transform="matrix(1,0,0,1,430.8182067871094,273.7159118652344)"><path transform="matrix(0.017,0,0,-0.017,0,0)" d="M125 390L69 107C68 99 56 61 56 31C56 6 67 -9 86 -9C121 -9 156 11 234 74L265 99L255 117L210 86C181 66 161 56 150 56C141 56 136 64 136 76C136 102 150 183 179 328L192 390L299 390L310 440C272 436 238 434 200 434C216 528 227 577 245 631L234 646C214 634 187 622 156 610L131 440C87 419 61 408 43 403L41 390Z" stroke="rgb(39,40,34)" stroke-opacity="1" stroke-width="8" fill="rgb(39,40,34)" fill-opacity="1"></path></g></g><g><g transform="matrix(1,0,0,1,445.7840881347656,273.7159118652344)"><path transform="matrix(0.017,0,0,-0.017,0,0)" d="M604 347L604 406L65 406L65 347ZM604 134L604 193L65 193L65 134Z" stroke="rgb(39,40,34)" stroke-opacity="1" stroke-width="8" fill="rgb(39,40,34)" fill-opacity="1"></path></g></g><g><g transform="matrix(1,0,0,1,462.2386169433594,273.7159118652344)"><path transform="matrix(0.017,0,0,-0.017,0,0)" d="M280 181L280 106C280 46 269 32 220 30L158 27L158 -3C291 0 291 0 315 0C339 0 339 0 472 -3L472 27L424 30C375 33 364 46 364 106L364 181C423 181 444 180 472 177L472 248L364 245L365 697L285 667L2 204L2 181ZM280 245L65 245L280 597Z" stroke="rgb(39,40,34)" stroke-opacity="1" stroke-width="8" fill="rgb(39,40,34)" fill-opacity="1"></path></g></g></g></g><g><g><g><g transform="matrix(1,0,0,1,29.20452880859375,237.15908813476562)"><path transform="matrix(0.017,0,0,-0.017,0,0)" d="M34 388L41 368L73 389C110 412 113 414 120 414C130 414 138 404 138 391C138 384 134 361 130 347L64 107C56 76 51 49 51 30C51 6 62 -9 81 -9C107 -9 143 12 241 85L231 103L205 86C176 67 153 56 144 56C137 56 131 66 131 76C131 86 133 95 138 116L215 420C219 437 221 448 221 456C221 473 212 482 196 482C174 482 137 461 62 408ZM228 712C199 712 170 679 170 645C170 620 185 604 209 604C240 604 264 633 264 671C264 695 249 712 228 712Z" stroke="rgb(39,40,34)" stroke-opacity="1" stroke-width="8" fill="rgb(39,40,34)" fill-opacity="1"></path></g></g><g><g transform="matrix(1,0,0,1,43.238616943359375,237.15908813476562)"><path transform="matrix(0.017,0,0,-0.017,0,0)" d="M604 347L604 406L65 406L65 347ZM604 134L604 193L65 193L65 134Z" stroke="rgb(39,40,34)" stroke-opacity="1" stroke-width="8" fill="rgb(39,40,34)" fill-opacity="1"></path></g></g><g><g transform="matrix(1,0,0,1,59.69317626953125,237.15908813476562)"><path transform="matrix(0.017,0,0,-0.017,0,0)" d="M418 -3L418 27L366 30C311 33 301 44 301 96L301 700L60 598L67 548L217 614L217 96C217 44 206 33 152 30L96 27L96 -3C250 0 250 0 261 0C292 0 402 -3 418 -3Z" stroke="rgb(39,40,34)" stroke-opacity="1" stroke-width="8" fill="rgb(39,40,34)" fill-opacity="1"></path></g></g></g></g><g><g><g><g transform="matrix(1,0,0,1,30.375,178.19317626953125)"><path transform="matrix(0.017,0,0,-0.017,0,0)" d="M34 388L41 368L73 389C110 412 113 414 120 414C130 414 138 404 138 391C138 384 134 361 130 347L64 107C56 76 51 49 51 30C51 6 62 -9 81 -9C107 -9 143 12 241 85L231 103L205 86C176 67 153 56 144 56C137 56 131 66 131 76C131 86 133 95 138 116L215 420C219 437 221 448 221 456C221 473 212 482 196 482C174 482 137 461 62 408ZM228 712C199 712 170 679 170 645C170 620 185 604 209 604C240 604 264 633 264 671C264 695 249 712 228 712Z" stroke="rgb(39,40,34)" stroke-opacity="1" stroke-width="8" fill="rgb(39,40,34)" fill-opacity="1"></path></g></g><g><g transform="matrix(1,0,0,1,44.409088134765625,178.19317626953125)"><path transform="matrix(0.017,0,0,-0.017,0,0)" d="M604 347L604 406L65 406L65 347ZM604 134L604 193L65 193L65 134Z" stroke="rgb(39,40,34)" stroke-opacity="1" stroke-width="8" fill="rgb(39,40,34)" fill-opacity="1"></path></g></g><g><g transform="matrix(1,0,0,1,60.863616943359375,178.19317626953125)"><path transform="matrix(0.017,0,0,-0.017,0,0)" d="M16 23L16 -3C203 -3 203 0 239 0C275 0 275 -3 468 -3L468 82C353 77 307 81 122 77L304 270C401 373 431 428 431 503C431 618 353 689 226 689C154 689 105 669 56 619L39 483L68 483L81 529C97 587 133 612 200 612C286 612 341 558 341 473C341 398 299 324 186 204Z" stroke="rgb(39,40,34)" stroke-opacity="1" stroke-width="8" fill="rgb(39,40,34)" fill-opacity="1"></path></g></g></g></g><g><g><g><g transform="matrix(1,0,0,1,32.715911865234375,125.125)"><path transform="matrix(0.017,0,0,-0.017,0,0)" d="M34 388L41 368L73 389C110 412 113 414 120 414C130 414 138 404 138 391C138 384 134 361 130 347L64 107C56 76 51 49 51 30C51 6 62 -9 81 -9C107 -9 143 12 241 85L231 103L205 86C176 67 153 56 144 56C137 56 131 66 131 76C131 86 133 95 138 116L215 420C219 437 221 448 221 456C221 473 212 482 196 482C174 482 137 461 62 408ZM228 712C199 712 170 679 170 645C170 620 185 604 209 604C240 604 264 633 264 671C264 695 249 712 228 712Z" stroke="rgb(39,40,34)" stroke-opacity="1" stroke-width="8" fill="rgb(39,40,34)" fill-opacity="1"></path></g></g><g><g transform="matrix(1,0,0,1,46.75,125.125)"><path transform="matrix(0.017,0,0,-0.017,0,0)" d="M604 347L604 406L65 406L65 347ZM604 134L604 193L65 193L65 134Z" stroke="rgb(39,40,34)" stroke-opacity="1" stroke-width="8" fill="rgb(39,40,34)" fill-opacity="1"></path></g></g><g><g transform="matrix(1,0,0,1,63.20452880859375,125.125)"><path transform="matrix(0.017,0,0,-0.017,0,0)" d="M462 224C462 345 355 366 308 374C388 436 418 482 418 541C418 630 344 689 233 689C165 689 120 670 72 622L43 498L74 498L92 554C103 588 166 622 218 622C283 622 336 569 336 506C336 431 277 368 206 368C198 368 187 369 174 370L159 371L147 318L154 312C192 329 211 334 238 334C321 334 369 281 369 190C369 88 308 21 215 21C169 21 128 36 98 64C74 86 61 109 42 163L15 153C36 92 44 56 50 6C103 -12 147 -20 184 -20C307 -20 462 87 462 224Z" stroke="rgb(39,40,34)" stroke-opacity="1" stroke-width="8" fill="rgb(39,40,34)" fill-opacity="1"></path></g></g></g></g><g><g><g><g transform="matrix(1,0,0,1,32.715911865234375,70.875)"><path transform="matrix(0.017,0,0,-0.017,0,0)" d="M34 388L41 368L73 389C110 412 113 414 120 414C130 414 138 404 138 391C138 384 134 361 130 347L64 107C56 76 51 49 51 30C51 6 62 -9 81 -9C107 -9 143 12 241 85L231 103L205 86C176 67 153 56 144 56C137 56 131 66 131 76C131 86 133 95 138 116L215 420C219 437 221 448 221 456C221 473 212 482 196 482C174 482 137 461 62 408ZM228 712C199 712 170 679 170 645C170 620 185 604 209 604C240 604 264 633 264 671C264 695 249 712 228 712Z" stroke="rgb(39,40,34)" stroke-opacity="1" stroke-width="8" fill="rgb(39,40,34)" fill-opacity="1"></path></g></g><g><g transform="matrix(1,0,0,1,46.75,70.875)"><path transform="matrix(0.017,0,0,-0.017,0,0)" d="M604 347L604 406L65 406L65 347ZM604 134L604 193L65 193L65 134Z" stroke="rgb(39,40,34)" stroke-opacity="1" stroke-width="8" fill="rgb(39,40,34)" fill-opacity="1"></path></g></g><g><g transform="matrix(1,0,0,1,63.20452880859375,70.875)"><path transform="matrix(0.017,0,0,-0.017,0,0)" d="M280 181L280 106C280 46 269 32 220 30L158 27L158 -3C291 0 291 0 315 0C339 0 339 0 472 -3L472 27L424 30C375 33 364 46 364 106L364 181C423 181 444 180 472 177L472 248L364 245L365 697L285 667L2 204L2 181ZM280 245L65 245L280 597Z" stroke="rgb(39,40,34)" stroke-opacity="1" stroke-width="8" fill="rgb(39,40,34)" fill-opacity="1"></path></g></g></g></g><g><g><g><g><g><g><g transform="matrix(1,0,0,1,95.73861694335938,318.4)"><path transform="matrix(0.020399999999999998,0,0,-0.020399999999999998,0,0)" d="M316 -3C388 -3 437 8 489 34C645 114 741 265 741 431C741 529 711 599 650 642C604 675 519 693 424 692L220 689L210 689C201 689 198 689 97 692L94 664L147 662C171 661 182 653 182 635C182 621 178 589 173 559L86 55C81 31 56 29 33 23L28 -3L121 0L176 0C211 0 282 -3 316 -3ZM384 655C566 655 649 579 649 415C649 225 549 41 329 41C285 41 236 46 168 56C168 68 169 75 172 93L268 650C291 650 349 655 384 655Z" stroke="rgb(39,40,34)" stroke-opacity="1" stroke-width="8" fill="rgb(39,40,34)" fill-opacity="1"></path></g></g></g></g><svg xmlns="http://www.w3.org/2000/svg" x="95.73861694335938" y="296.727294921875" height="7" width="15.852272987365723"><defs><clipPath id="ccp0.06838475824648449"><rect x="-0.5" y="-0.5" width="16.352272987365723" height="7.5"></rect></clipPath></defs><g clip-path="url(#ccp0.06838475824648449)"><svg xmlns="http://www.w3.org/2000/svg" x="0" y="0" height="24.47727394104004" width="20.40909194946289"><defs><clipPath id="ccp0.31683936525049194"><rect x="-0.5" y="-0.5" width="20.90909194946289" height="24.97727394104004"></rect></clipPath></defs><g clip-path="url(#ccp0.31683936525049194)"><g><g transform="matrix(1,0,0,1,0,20.4)"><path transform="matrix(0.020399999999999998,0,0,-0.020399999999999998,0,0)" d="M-877 790L1877 790L1877 850L-877 850Z" stroke="rgb(39,40,34)" stroke-opacity="1" stroke-width="8" fill="rgb(39,40,34)" fill-opacity="1"></path></g></g></g></svg></g></svg></g><g><g><g><g><g transform="matrix(1,0,0,1,113.20455932617188,324.6777355957031)"><path transform="matrix(0.01428,0,0,-0.01428,0,0)" d="M125 390L69 107C68 99 56 61 56 31C56 6 67 -9 86 -9C121 -9 156 11 234 74L265 99L255 117L210 86C181 66 161 56 150 56C141 56 136 64 136 76C136 102 150 183 179 328L192 390L299 390L310 440C272 436 238 434 200 434C216 528 227 577 245 631L234 646C214 634 187 622 156 610L131 440C87 419 61 408 43 403L41 390ZM936 347L936 406L397 406L397 347ZM936 134L936 193L397 193L397 134ZM1418 -3L1418 27L1366 30C1311 33 1301 44 1301 96L1301 700L1060 598L1067 548L1217 614L1217 96C1217 44 1206 33 1152 30L1096 27L1096 -3C1250 0 1250 0 1261 0C1292 0 1402 -3 1418 -3Z" stroke="rgb(39,40,34)" stroke-opacity="1" stroke-width="8" fill="rgb(39,40,34)" fill-opacity="1"></path></g></g></g></g></g><g><g transform="matrix(1,0,0,1,135.82955932617188,318.4)"><path transform="matrix(0.020399999999999998,0,0,-0.020399999999999998,0,0)" d="" stroke="rgb(39,40,34)" stroke-opacity="1" stroke-width="8" fill="rgb(39,40,34)" fill-opacity="1"></path></g></g><g><g transform="matrix(1,0,0,1,147.03408813476562,318.4)"><path transform="matrix(0.020399999999999998,0,0,-0.020399999999999998,0,0)" d="M604 347L604 406L65 406L65 347ZM604 134L604 193L65 193L65 134Z" stroke="rgb(39,40,34)" stroke-opacity="1" stroke-width="8" fill="rgb(39,40,34)" fill-opacity="1"></path></g></g><g><g transform="matrix(1,0,0,1,166.78408813476562,318.4)"><path transform="matrix(0.020399999999999998,0,0,-0.020399999999999998,0,0)" d="M512 689C357 689 278 566 278 324C278 207 299 106 334 57C369 8 425 -20 487 -20C638 -20 714 110 714 366C714 585 649 689 512 689ZM494 654C591 654 630 556 630 316C630 103 592 15 500 15C403 15 362 116 362 360C362 571 399 654 494 654Z" stroke="rgb(39,40,34)" stroke-opacity="1" stroke-width="8" fill="rgb(39,40,34)" fill-opacity="1"></path></g></g></g></g><g><g><g><g><g><g><g transform="matrix(1,0,0,1,201.73861694335938,319.6954711914062)"><path transform="matrix(0.020399999999999998,0,0,-0.020399999999999998,0,0)" d="M316 -3C388 -3 437 8 489 34C645 114 741 265 741 431C741 529 711 599 650 642C604 675 519 693 424 692L220 689L210 689C201 689 198 689 97 692L94 664L147 662C171 661 182 653 182 635C182 621 178 589 173 559L86 55C81 31 56 29 33 23L28 -3L121 0L176 0C211 0 282 -3 316 -3ZM384 655C566 655 649 579 649 415C649 225 549 41 329 41C285 41 236 46 168 56C168 68 169 75 172 93L268 650C291 650 349 655 384 655Z" stroke="rgb(39,40,34)" stroke-opacity="1" stroke-width="8" fill="rgb(39,40,34)" fill-opacity="1"></path></g></g></g></g><svg xmlns="http://www.w3.org/2000/svg" x="201.73861694335938" y="298.0227355957031" height="7" width="15.852272987365723"><defs><clipPath id="ccp0.12310254493575434"><rect x="-0.5" y="-0.5" width="16.352272987365723" height="7.5"></rect></clipPath></defs><g clip-path="url(#ccp0.12310254493575434)"><svg xmlns="http://www.w3.org/2000/svg" x="0" y="0" height="24.47727394104004" width="20.40909194946289"><defs><clipPath id="ccp0.7694444287429683"><rect x="-0.5" y="-0.5" width="20.90909194946289" height="24.97727394104004"></rect></clipPath></defs><g clip-path="url(#ccp0.7694444287429683)"><g><g transform="matrix(1,0,0,1,0,20.4)"><path transform="matrix(0.020399999999999998,0,0,-0.020399999999999998,0,0)" d="M-877 790L1877 790L1877 850L-877 850Z" stroke="rgb(39,40,34)" stroke-opacity="1" stroke-width="8" fill="rgb(39,40,34)" fill-opacity="1"></path></g></g></g></svg></g></svg></g><g><g><g><g><g transform="matrix(1,0,0,1,219.20455932617188,325.9731762695312)"><path transform="matrix(0.01428,0,0,-0.01428,0,0)" d="M125 390L69 107C68 99 56 61 56 31C56 6 67 -9 86 -9C121 -9 156 11 234 74L265 99L255 117L210 86C181 66 161 56 150 56C141 56 136 64 136 76C136 102 150 183 179 328L192 390L299 390L310 440C272 436 238 434 200 434C216 528 227 577 245 631L234 646C214 634 187 622 156 610L131 440C87 419 61 408 43 403L41 390ZM936 347L936 406L397 406L397 347ZM936 134L936 193L397 193L397 134ZM1016 23L1016 -3C1203 -3 1203 0 1239 0C1275 0 1275 -3 1468 -3L1468 82C1353 77 1307 81 1122 77L1304 270C1401 373 1431 428 1431 503C1431 618 1353 689 1226 689C1154 689 1105 669 1056 619L1039 483L1068 483L1081 529C1097 587 1133 612 1200 612C1286 612 1341 558 1341 473C1341 398 1299 324 1186 204Z" stroke="rgb(39,40,34)" stroke-opacity="1" stroke-width="8" fill="rgb(39,40,34)" fill-opacity="1"></path></g></g></g></g></g><g><g transform="matrix(1,0,0,1,241.82955932617188,319.6954711914062)"><path transform="matrix(0.020399999999999998,0,0,-0.020399999999999998,0,0)" d="" stroke="rgb(39,40,34)" stroke-opacity="1" stroke-width="8" fill="rgb(39,40,34)" fill-opacity="1"></path></g></g><g><g transform="matrix(1,0,0,1,253.03408813476562,319.6954711914062)"><path transform="matrix(0.020399999999999998,0,0,-0.020399999999999998,0,0)" d="M604 347L604 406L65 406L65 347ZM604 134L604 193L65 193L65 134Z" stroke="rgb(39,40,34)" stroke-opacity="1" stroke-width="8" fill="rgb(39,40,34)" fill-opacity="1"></path></g></g><g><g transform="matrix(1,0,0,1,272.7840881347656,319.6954711914062)"><path transform="matrix(0.020399999999999998,0,0,-0.020399999999999998,0,0)" d="" stroke="rgb(39,40,34)" stroke-opacity="1" stroke-width="8" fill="rgb(39,40,34)" fill-opacity="1"></path></g></g><g><g><g><g><g transform="matrix(1,0,0,1,279.9090881347656,305.2181762695312)"><path transform="matrix(0.020399999999999998,0,0,-0.020399999999999998,0,0)" d="M418 -3L418 27L366 30C311 33 301 44 301 96L301 700L60 598L67 548L217 614L217 96C217 44 206 33 152 30L96 27L96 -3C250 0 250 0 261 0C292 0 402 -3 418 -3Z" stroke="rgb(39,40,34)" stroke-opacity="1" stroke-width="8" fill="rgb(39,40,34)" fill-opacity="1"></path></g></g></g></g><g><g><g><g transform="matrix(1,0,0,1,279.9090881347656,336.1727355957031)"><path transform="matrix(0.020399999999999998,0,0,-0.020399999999999998,0,0)" d="M280 181L280 106C280 46 269 32 220 30L158 27L158 -3C291 0 291 0 315 0C339 0 339 0 472 -3L472 27L424 30C375 33 364 46 364 106L364 181C423 181 444 180 472 177L472 248L364 245L365 697L285 667L2 204L2 181ZM280 245L65 245L280 597Z" stroke="rgb(39,40,34)" stroke-opacity="1" stroke-width="8" fill="rgb(39,40,34)" fill-opacity="1"></path></g></g></g></g><line style="fill:none;stroke-width:0.727273px;stroke:rgb(39, 40, 34);" x1="279.9090881347656" y1="314.5681846141815" x2="290.0909061431885" y2="314.5681846141815"></line></g></g></g><g><g><g><g><g><g><g transform="matrix(1,0,0,1,309.7386169433594,321.6954711914062)"><path transform="matrix(0.020399999999999998,0,0,-0.020399999999999998,0,0)" d="M316 -3C388 -3 437 8 489 34C645 114 741 265 741 431C741 529 711 599 650 642C604 675 519 693 424 692L220 689L210 689C201 689 198 689 97 692L94 664L147 662C171 661 182 653 182 635C182 621 178 589 173 559L86 55C81 31 56 29 33 23L28 -3L121 0L176 0C211 0 282 -3 316 -3ZM384 655C566 655 649 579 649 415C649 225 549 41 329 41C285 41 236 46 168 56C168 68 169 75 172 93L268 650C291 650 349 655 384 655Z" stroke="rgb(39,40,34)" stroke-opacity="1" stroke-width="8" fill="rgb(39,40,34)" fill-opacity="1"></path></g></g></g></g><svg xmlns="http://www.w3.org/2000/svg" x="309.7386169433594" y="300.0227355957031" height="7" width="15.852272987365723"><defs><clipPath id="ccp0.3668891337816991"><rect x="-0.5" y="-0.5" width="16.352272987365723" height="7.5"></rect></clipPath></defs><g clip-path="url(#ccp0.3668891337816991)"><svg xmlns="http://www.w3.org/2000/svg" x="0" y="0" height="24.47727394104004" width="20.40909194946289"><defs><clipPath id="ccp0.14094992809596962"><rect x="-0.5" y="-0.5" width="20.90909194946289" height="24.97727394104004"></rect></clipPath></defs><g clip-path="url(#ccp0.14094992809596962)"><g><g transform="matrix(1,0,0,1,0,20.4)"><path transform="matrix(0.020399999999999998,0,0,-0.020399999999999998,0,0)" d="M-877 790L1877 790L1877 850L-877 850Z" stroke="rgb(39,40,34)" stroke-opacity="1" stroke-width="8" fill="rgb(39,40,34)" fill-opacity="1"></path></g></g></g></svg></g></svg></g><g><g><g><g><g transform="matrix(1,0,0,1,327.2045593261719,327.9731762695312)"><path transform="matrix(0.01428,0,0,-0.01428,0,0)" d="M125 390L69 107C68 99 56 61 56 31C56 6 67 -9 86 -9C121 -9 156 11 234 74L265 99L255 117L210 86C181 66 161 56 150 56C141 56 136 64 136 76C136 102 150 183 179 328L192 390L299 390L310 440C272 436 238 434 200 434C216 528 227 577 245 631L234 646C214 634 187 622 156 610L131 440C87 419 61 408 43 403L41 390ZM936 347L936 406L397 406L397 347ZM936 134L936 193L397 193L397 134ZM1462 224C1462 345 1355 366 1308 374C1388 436 1418 482 1418 541C1418 630 1344 689 1233 689C1165 689 1120 670 1072 622L1043 498L1074 498L1092 554C1103 588 1166 622 1218 622C1283 622 1336 569 1336 506C1336 431 1277 368 1206 368C1198 368 1187 369 1174 370L1159 371L1147 318L1154 312C1192 329 1211 334 1238 334C1321 334 1369 281 1369 190C1369 88 1308 21 1215 21C1169 21 1128 36 1098 64C1074 86 1061 109 1042 163L1015 153C1036 92 1044 56 1050 6C1103 -12 1147 -20 1184 -20C1307 -20 1462 87 1462 224Z" stroke="rgb(39,40,34)" stroke-opacity="1" stroke-width="8" fill="rgb(39,40,34)" fill-opacity="1"></path></g></g></g></g></g><g><g transform="matrix(1,0,0,1,349.8295593261719,321.6954711914062)"><path transform="matrix(0.020399999999999998,0,0,-0.020399999999999998,0,0)" d="" stroke="rgb(39,40,34)" stroke-opacity="1" stroke-width="8" fill="rgb(39,40,34)" fill-opacity="1"></path></g></g><g><g transform="matrix(1,0,0,1,361.0340881347656,321.6954711914062)"><path transform="matrix(0.020399999999999998,0,0,-0.020399999999999998,0,0)" d="M604 347L604 406L65 406L65 347ZM604 134L604 193L65 193L65 134Z" stroke="rgb(39,40,34)" stroke-opacity="1" stroke-width="8" fill="rgb(39,40,34)" fill-opacity="1"></path></g></g><g><g transform="matrix(1,0,0,1,380.7840881347656,321.6954711914062)"><path transform="matrix(0.020399999999999998,0,0,-0.020399999999999998,0,0)" d="" stroke="rgb(39,40,34)" stroke-opacity="1" stroke-width="8" fill="rgb(39,40,34)" fill-opacity="1"></path></g></g><g><g><g><g><g transform="matrix(1,0,0,1,387.9090881347656,307.2181762695312)"><path transform="matrix(0.020399999999999998,0,0,-0.020399999999999998,0,0)" d="M418 -3L418 27L366 30C311 33 301 44 301 96L301 700L60 598L67 548L217 614L217 96C217 44 206 33 152 30L96 27L96 -3C250 0 250 0 261 0C292 0 402 -3 418 -3Z" stroke="rgb(39,40,34)" stroke-opacity="1" stroke-width="8" fill="rgb(39,40,34)" fill-opacity="1"></path></g></g></g></g><g><g><g><g transform="matrix(1,0,0,1,387.9090881347656,338.1727355957031)"><path transform="matrix(0.020399999999999998,0,0,-0.020399999999999998,0,0)" d="M16 23L16 -3C203 -3 203 0 239 0C275 0 275 -3 468 -3L468 82C353 77 307 81 122 77L304 270C401 373 431 428 431 503C431 618 353 689 226 689C154 689 105 669 56 619L39 483L68 483L81 529C97 587 133 612 200 612C286 612 341 558 341 473C341 398 299 324 186 204Z" stroke="rgb(39,40,34)" stroke-opacity="1" stroke-width="8" fill="rgb(39,40,34)" fill-opacity="1"></path></g></g></g></g><line style="fill:none;stroke-width:0.727273px;stroke:rgb(39, 40, 34);" x1="387.9090881347656" y1="316.5681846141815" x2="398.0909061431885" y2="316.5681846141815"></line></g></g></g><g><g><g><g><g><g><g transform="matrix(1,0,0,1,412.7386169433594,325.6954711914062)"><path transform="matrix(0.020399999999999998,0,0,-0.020399999999999998,0,0)" d="M316 -3C388 -3 437 8 489 34C645 114 741 265 741 431C741 529 711 599 650 642C604 675 519 693 424 692L220 689L210 689C201 689 198 689 97 692L94 664L147 662C171 661 182 653 182 635C182 621 178 589 173 559L86 55C81 31 56 29 33 23L28 -3L121 0L176 0C211 0 282 -3 316 -3ZM384 655C566 655 649 579 649 415C649 225 549 41 329 41C285 41 236 46 168 56C168 68 169 75 172 93L268 650C291 650 349 655 384 655Z" stroke="rgb(39,40,34)" stroke-opacity="1" stroke-width="8" fill="rgb(39,40,34)" fill-opacity="1"></path></g></g></g></g><svg xmlns="http://www.w3.org/2000/svg" x="412.7386169433594" y="304.0227355957031" height="7" width="15.852272987365723"><defs><clipPath id="ccp0.9378248295284071"><rect x="-0.5" y="-0.5" width="16.352272987365723" height="7.5"></rect></clipPath></defs><g clip-path="url(#ccp0.9378248295284071)"><svg xmlns="http://www.w3.org/2000/svg" x="0" y="0" height="24.47727394104004" width="20.40909194946289"><defs><clipPath id="ccp0.6953910759925472"><rect x="-0.5" y="-0.5" width="20.90909194946289" height="24.97727394104004"></rect></clipPath></defs><g clip-path="url(#ccp0.6953910759925472)"><g><g transform="matrix(1,0,0,1,0,20.4)"><path transform="matrix(0.020399999999999998,0,0,-0.020399999999999998,0,0)" d="M-877 790L1877 790L1877 850L-877 850Z" stroke="rgb(39,40,34)" stroke-opacity="1" stroke-width="8" fill="rgb(39,40,34)" fill-opacity="1"></path></g></g></g></svg></g></svg></g><g><g><g><g><g transform="matrix(1,0,0,1,430.2045593261719,331.9731762695312)"><path transform="matrix(0.01428,0,0,-0.01428,0,0)" d="M125 390L69 107C68 99 56 61 56 31C56 6 67 -9 86 -9C121 -9 156 11 234 74L265 99L255 117L210 86C181 66 161 56 150 56C141 56 136 64 136 76C136 102 150 183 179 328L192 390L299 390L310 440C272 436 238 434 200 434C216 528 227 577 245 631L234 646C214 634 187 622 156 610L131 440C87 419 61 408 43 403L41 390ZM936 347L936 406L397 406L397 347ZM936 134L936 193L397 193L397 134ZM1280 181L1280 106C1280 46 1269 32 1220 30L1158 27L1158 -3C1291 0 1291 0 1315 0C1339 0 1339 0 1472 -3L1472 27L1424 30C1375 33 1364 46 1364 106L1364 181C1423 181 1444 180 1472 177L1472 248L1364 245L1365 697L1285 667L1002 204L1002 181ZM1280 245L1065 245L1280 597Z" stroke="rgb(39,40,34)" stroke-opacity="1" stroke-width="8" fill="rgb(39,40,34)" fill-opacity="1"></path></g></g></g></g></g><g><g transform="matrix(1,0,0,1,452.8295593261719,325.6954711914062)"><path transform="matrix(0.020399999999999998,0,0,-0.020399999999999998,0,0)" d="" stroke="rgb(39,40,34)" stroke-opacity="1" stroke-width="8" fill="rgb(39,40,34)" fill-opacity="1"></path></g></g><g><g transform="matrix(1,0,0,1,464.0340881347656,325.6954711914062)"><path transform="matrix(0.020399999999999998,0,0,-0.020399999999999998,0,0)" d="M604 347L604 406L65 406L65 347ZM604 134L604 193L65 193L65 134Z" stroke="rgb(39,40,34)" stroke-opacity="1" stroke-width="8" fill="rgb(39,40,34)" fill-opacity="1"></path></g></g><g><g transform="matrix(1,0,0,1,483.7840881347656,325.6954711914062)"><path transform="matrix(0.020399999999999998,0,0,-0.020399999999999998,0,0)" d="" stroke="rgb(39,40,34)" stroke-opacity="1" stroke-width="8" fill="rgb(39,40,34)" fill-opacity="1"></path></g></g><g><g><g><g><g transform="matrix(1,0,0,1,490.9090881347656,311.2181762695312)"><path transform="matrix(0.020399999999999998,0,0,-0.020399999999999998,0,0)" d="M462 224C462 345 355 366 308 374C388 436 418 482 418 541C418 630 344 689 233 689C165 689 120 670 72 622L43 498L74 498L92 554C103 588 166 622 218 622C283 622 336 569 336 506C336 431 277 368 206 368C198 368 187 369 174 370L159 371L147 318L154 312C192 329 211 334 238 334C321 334 369 281 369 190C369 88 308 21 215 21C169 21 128 36 98 64C74 86 61 109 42 163L15 153C36 92 44 56 50 6C103 -12 147 -20 184 -20C307 -20 462 87 462 224Z" stroke="rgb(39,40,34)" stroke-opacity="1" stroke-width="8" fill="rgb(39,40,34)" fill-opacity="1"></path></g></g></g></g><g><g><g><g transform="matrix(1,0,0,1,490.9090881347656,342.1727355957031)"><path transform="matrix(0.020399999999999998,0,0,-0.020399999999999998,0,0)" d="M280 181L280 106C280 46 269 32 220 30L158 27L158 -3C291 0 291 0 315 0C339 0 339 0 472 -3L472 27L424 30C375 33 364 46 364 106L364 181C423 181 444 180 472 177L472 248L364 245L365 697L285 667L2 204L2 181ZM280 245L65 245L280 597Z" stroke="rgb(39,40,34)" stroke-opacity="1" stroke-width="8" fill="rgb(39,40,34)" fill-opacity="1"></path></g></g></g></g><line style="fill:none;stroke-width:0.727273px;stroke:rgb(39, 40, 34);" x1="490.9090881347656" y1="320.5681846141815" x2="501.0909061431885" y2="320.5681846141815"></line></g></g></g><g><g><g><g><g><g><g transform="matrix(1,0,0,1,519.7386169433594,71.20682373046876)"><path transform="matrix(0.020399999999999998,0,0,-0.020399999999999998,0,0)" d="M316 -3C388 -3 437 8 489 34C645 114 741 265 741 431C741 529 711 599 650 642C604 675 519 693 424 692L220 689L210 689C201 689 198 689 97 692L94 664L147 662C171 661 182 653 182 635C182 621 178 589 173 559L86 55C81 31 56 29 33 23L28 -3L121 0L176 0C211 0 282 -3 316 -3ZM384 655C566 655 649 579 649 415C649 225 549 41 329 41C285 41 236 46 168 56C168 68 169 75 172 93L268 650C291 650 349 655 384 655Z" stroke="rgb(39,40,34)" stroke-opacity="1" stroke-width="8" fill="rgb(39,40,34)" fill-opacity="1"></path></g></g></g></g><svg xmlns="http://www.w3.org/2000/svg" x="519.7386169433594" y="49.534088134765625" height="7" width="15.852272987365723"><defs><clipPath id="ccp0.2167324813000424"><rect x="-0.5" y="-0.5" width="16.352272987365723" height="7.5"></rect></clipPath></defs><g clip-path="url(#ccp0.2167324813000424)"><svg xmlns="http://www.w3.org/2000/svg" x="0" y="0" height="24.47727394104004" width="20.40909194946289"><defs><clipPath id="ccp0.5651730250787315"><rect x="-0.5" y="-0.5" width="20.90909194946289" height="24.97727394104004"></rect></clipPath></defs><g clip-path="url(#ccp0.5651730250787315)"><g><g transform="matrix(1,0,0,1,0,20.4)"><path transform="matrix(0.020399999999999998,0,0,-0.020399999999999998,0,0)" d="M-877 790L1877 790L1877 850L-877 850Z" stroke="rgb(39,40,34)" stroke-opacity="1" stroke-width="8" fill="rgb(39,40,34)" fill-opacity="1"></path></g></g></g></svg></g></svg></g><g><g><g><g><g transform="matrix(1,0,0,1,537.2045593261719,77.48454406738281)"><path transform="matrix(0.01428,0,0,-0.01428,0,0)" d="M34 388L41 368L73 389C110 412 113 414 120 414C130 414 138 404 138 391C138 384 134 361 130 347L64 107C56 76 51 49 51 30C51 6 62 -9 81 -9C107 -9 143 12 241 85L231 103L205 86C176 67 153 56 144 56C137 56 131 66 131 76C131 86 133 95 138 116L215 420C219 437 221 448 221 456C221 473 212 482 196 482C174 482 137 461 62 408ZM228 712C199 712 170 679 170 645C170 620 185 604 209 604C240 604 264 633 264 671C264 695 249 712 228 712ZM881 347L881 406L342 406L342 347ZM881 134L881 193L342 193L342 134ZM1225 181L1225 106C1225 46 1214 32 1165 30L1103 27L1103 -3C1236 0 1236 0 1260 0C1284 0 1284 0 1417 -3L1417 27L1369 30C1320 33 1309 46 1309 106L1309 181C1368 181 1389 180 1417 177L1417 248L1309 245L1310 697L1230 667L947 204L947 181ZM1225 245L1010 245L1225 597Z" stroke="rgb(39,40,34)" stroke-opacity="1" stroke-width="8" fill="rgb(39,40,34)" fill-opacity="1"></path></g></g></g></g></g><g><g transform="matrix(1,0,0,1,559.0454406738281,71.20682373046876)"><path transform="matrix(0.020399999999999998,0,0,-0.020399999999999998,0,0)" d="" stroke="rgb(39,40,34)" stroke-opacity="1" stroke-width="8" fill="rgb(39,40,34)" fill-opacity="1"></path></g></g><g><g transform="matrix(1,0,0,1,570.2500305175781,71.20682373046876)"><path transform="matrix(0.020399999999999998,0,0,-0.020399999999999998,0,0)" d="M604 347L604 406L65 406L65 347ZM604 134L604 193L65 193L65 134Z" stroke="rgb(39,40,34)" stroke-opacity="1" stroke-width="8" fill="rgb(39,40,34)" fill-opacity="1"></path></g></g><g><g transform="matrix(1,0,0,1,590.0000305175781,71.20682373046876)"><path transform="matrix(0.020399999999999998,0,0,-0.020399999999999998,0,0)" d="M512 689C357 689 278 566 278 324C278 207 299 106 334 57C369 8 425 -20 487 -20C638 -20 714 110 714 366C714 585 649 689 512 689ZM494 654C591 654 630 556 630 316C630 103 592 15 500 15C403 15 362 116 362 360C362 571 399 654 494 654Z" stroke="rgb(39,40,34)" stroke-opacity="1" stroke-width="8" fill="rgb(39,40,34)" fill-opacity="1"></path></g></g></g></g><g><g><g><g><g><g><g transform="matrix(1,0,0,1,519.7386169433594,127.68408813476563)"><path transform="matrix(0.020399999999999998,0,0,-0.020399999999999998,0,0)" d="M316 -3C388 -3 437 8 489 34C645 114 741 265 741 431C741 529 711 599 650 642C604 675 519 693 424 692L220 689L210 689C201 689 198 689 97 692L94 664L147 662C171 661 182 653 182 635C182 621 178 589 173 559L86 55C81 31 56 29 33 23L28 -3L121 0L176 0C211 0 282 -3 316 -3ZM384 655C566 655 649 579 649 415C649 225 549 41 329 41C285 41 236 46 168 56C168 68 169 75 172 93L268 650C291 650 349 655 384 655Z" stroke="rgb(39,40,34)" stroke-opacity="1" stroke-width="8" fill="rgb(39,40,34)" fill-opacity="1"></path></g></g></g></g><svg xmlns="http://www.w3.org/2000/svg" x="519.7386169433594" y="106.0113525390625" height="7" width="15.852272987365723"><defs><clipPath id="ccp0.9493700752803425"><rect x="-0.5" y="-0.5" width="16.352272987365723" height="7.5"></rect></clipPath></defs><g clip-path="url(#ccp0.9493700752803425)"><svg xmlns="http://www.w3.org/2000/svg" x="0" y="0" height="24.47727394104004" width="20.40909194946289"><defs><clipPath id="ccp0.09504635962502017"><rect x="-0.5" y="-0.5" width="20.90909194946289" height="24.97727394104004"></rect></clipPath></defs><g clip-path="url(#ccp0.09504635962502017)"><g><g transform="matrix(1,0,0,1,0,20.4)"><path transform="matrix(0.020399999999999998,0,0,-0.020399999999999998,0,0)" d="M-877 790L1877 790L1877 850L-877 850Z" stroke="rgb(39,40,34)" stroke-opacity="1" stroke-width="8" fill="rgb(39,40,34)" fill-opacity="1"></path></g></g></g></svg></g></svg></g><g><g><g><g><g transform="matrix(1,0,0,1,537.2045593261719,133.96182373046875)"><path transform="matrix(0.01428,0,0,-0.01428,0,0)" d="M34 388L41 368L73 389C110 412 113 414 120 414C130 414 138 404 138 391C138 384 134 361 130 347L64 107C56 76 51 49 51 30C51 6 62 -9 81 -9C107 -9 143 12 241 85L231 103L205 86C176 67 153 56 144 56C137 56 131 66 131 76C131 86 133 95 138 116L215 420C219 437 221 448 221 456C221 473 212 482 196 482C174 482 137 461 62 408ZM228 712C199 712 170 679 170 645C170 620 185 604 209 604C240 604 264 633 264 671C264 695 249 712 228 712ZM881 347L881 406L342 406L342 347ZM881 134L881 193L342 193L342 134ZM1407 224C1407 345 1300 366 1253 374C1333 436 1363 482 1363 541C1363 630 1289 689 1178 689C1110 689 1065 670 1017 622L988 498L1019 498L1037 554C1048 588 1111 622 1163 622C1228 622 1281 569 1281 506C1281 431 1222 368 1151 368C1143 368 1132 369 1119 370L1104 371L1092 318L1099 312C1137 329 1156 334 1183 334C1266 334 1314 281 1314 190C1314 88 1253 21 1160 21C1114 21 1073 36 1043 64C1019 86 1006 109 987 163L960 153C981 92 989 56 995 6C1048 -12 1092 -20 1129 -20C1252 -20 1407 87 1407 224Z" stroke="rgb(39,40,34)" stroke-opacity="1" stroke-width="8" fill="rgb(39,40,34)" fill-opacity="1"></path></g></g></g></g></g><g><g transform="matrix(1,0,0,1,559.0454406738281,127.68408813476563)"><path transform="matrix(0.020399999999999998,0,0,-0.020399999999999998,0,0)" d="" stroke="rgb(39,40,34)" stroke-opacity="1" stroke-width="8" fill="rgb(39,40,34)" fill-opacity="1"></path></g></g><g><g transform="matrix(1,0,0,1,570.2500305175781,127.68408813476563)"><path transform="matrix(0.020399999999999998,0,0,-0.020399999999999998,0,0)" d="M604 347L604 406L65 406L65 347ZM604 134L604 193L65 193L65 134Z" stroke="rgb(39,40,34)" stroke-opacity="1" stroke-width="8" fill="rgb(39,40,34)" fill-opacity="1"></path></g></g><g><g transform="matrix(1,0,0,1,590.0000305175781,127.68408813476563)"><path transform="matrix(0.020399999999999998,0,0,-0.020399999999999998,0,0)" d="" stroke="rgb(39,40,34)" stroke-opacity="1" stroke-width="8" fill="rgb(39,40,34)" fill-opacity="1"></path></g></g><g><g><g><g><g transform="matrix(1,0,0,1,597.1250305175781,113.20682373046876)"><path transform="matrix(0.020399999999999998,0,0,-0.020399999999999998,0,0)" d="M418 -3L418 27L366 30C311 33 301 44 301 96L301 700L60 598L67 548L217 614L217 96C217 44 206 33 152 30L96 27L96 -3C250 0 250 0 261 0C292 0 402 -3 418 -3Z" stroke="rgb(39,40,34)" stroke-opacity="1" stroke-width="8" fill="rgb(39,40,34)" fill-opacity="1"></path></g></g></g></g><g><g><g><g transform="matrix(1,0,0,1,597.1250305175781,144.1613525390625)"><path transform="matrix(0.020399999999999998,0,0,-0.020399999999999998,0,0)" d="M280 181L280 106C280 46 269 32 220 30L158 27L158 -3C291 0 291 0 315 0C339 0 339 0 472 -3L472 27L424 30C375 33 364 46 364 106L364 181C423 181 444 180 472 177L472 248L364 245L365 697L285 667L2 204L2 181ZM280 245L65 245L280 597Z" stroke="rgb(39,40,34)" stroke-opacity="1" stroke-width="8" fill="rgb(39,40,34)" fill-opacity="1"></path></g></g></g></g><line style="fill:none;stroke-width:0.727273px;stroke:rgb(39, 40, 34);" x1="597.1250305175781" y1="122.55683207511902" x2="607.306848526001" y2="122.55683207511902"></line></g></g></g><g><g><g><g><g><g><g transform="matrix(1,0,0,1,519.7386169433594,182.69547119140626)"><path transform="matrix(0.020399999999999998,0,0,-0.020399999999999998,0,0)" d="M316 -3C388 -3 437 8 489 34C645 114 741 265 741 431C741 529 711 599 650 642C604 675 519 693 424 692L220 689L210 689C201 689 198 689 97 692L94 664L147 662C171 661 182 653 182 635C182 621 178 589 173 559L86 55C81 31 56 29 33 23L28 -3L121 0L176 0C211 0 282 -3 316 -3ZM384 655C566 655 649 579 649 415C649 225 549 41 329 41C285 41 236 46 168 56C168 68 169 75 172 93L268 650C291 650 349 655 384 655Z" stroke="rgb(39,40,34)" stroke-opacity="1" stroke-width="8" fill="rgb(39,40,34)" fill-opacity="1"></path></g></g></g></g><svg xmlns="http://www.w3.org/2000/svg" x="519.7386169433594" y="161.02273559570312" height="7" width="15.852272987365723"><defs><clipPath id="ccp0.3897760795345506"><rect x="-0.5" y="-0.5" width="16.352272987365723" height="7.5"></rect></clipPath></defs><g clip-path="url(#ccp0.3897760795345506)"><svg xmlns="http://www.w3.org/2000/svg" x="0" y="0" height="24.47727394104004" width="20.40909194946289"><defs><clipPath id="ccp0.5484408606123163"><rect x="-0.5" y="-0.5" width="20.90909194946289" height="24.97727394104004"></rect></clipPath></defs><g clip-path="url(#ccp0.5484408606123163)"><g><g transform="matrix(1,0,0,1,0,20.4)"><path transform="matrix(0.020399999999999998,0,0,-0.020399999999999998,0,0)" d="M-877 790L1877 790L1877 850L-877 850Z" stroke="rgb(39,40,34)" stroke-opacity="1" stroke-width="8" fill="rgb(39,40,34)" fill-opacity="1"></path></g></g></g></svg></g></svg></g><g><g><g><g><g transform="matrix(1,0,0,1,537.2045593261719,188.97317626953125)"><path transform="matrix(0.01428,0,0,-0.01428,0,0)" d="M34 388L41 368L73 389C110 412 113 414 120 414C130 414 138 404 138 391C138 384 134 361 130 347L64 107C56 76 51 49 51 30C51 6 62 -9 81 -9C107 -9 143 12 241 85L231 103L205 86C176 67 153 56 144 56C137 56 131 66 131 76C131 86 133 95 138 116L215 420C219 437 221 448 221 456C221 473 212 482 196 482C174 482 137 461 62 408ZM228 712C199 712 170 679 170 645C170 620 185 604 209 604C240 604 264 633 264 671C264 695 249 712 228 712ZM881 347L881 406L342 406L342 347ZM881 134L881 193L342 193L342 134ZM961 23L961 -3C1148 -3 1148 0 1184 0C1220 0 1220 -3 1413 -3L1413 82C1298 77 1252 81 1067 77L1249 270C1346 373 1376 428 1376 503C1376 618 1298 689 1171 689C1099 689 1050 669 1001 619L984 483L1013 483L1026 529C1042 587 1078 612 1145 612C1231 612 1286 558 1286 473C1286 398 1244 324 1131 204Z" stroke="rgb(39,40,34)" stroke-opacity="1" stroke-width="8" fill="rgb(39,40,34)" fill-opacity="1"></path></g></g></g></g></g><g><g transform="matrix(1,0,0,1,559.0454406738281,182.69547119140626)"><path transform="matrix(0.020399999999999998,0,0,-0.020399999999999998,0,0)" d="" stroke="rgb(39,40,34)" stroke-opacity="1" stroke-width="8" fill="rgb(39,40,34)" fill-opacity="1"></path></g></g><g><g transform="matrix(1,0,0,1,570.2500305175781,182.69547119140626)"><path transform="matrix(0.020399999999999998,0,0,-0.020399999999999998,0,0)" d="M604 347L604 406L65 406L65 347ZM604 134L604 193L65 193L65 134Z" stroke="rgb(39,40,34)" stroke-opacity="1" stroke-width="8" fill="rgb(39,40,34)" fill-opacity="1"></path></g></g><g><g transform="matrix(1,0,0,1,590.0000305175781,182.69547119140626)"><path transform="matrix(0.020399999999999998,0,0,-0.020399999999999998,0,0)" d="" stroke="rgb(39,40,34)" stroke-opacity="1" stroke-width="8" fill="rgb(39,40,34)" fill-opacity="1"></path></g></g><g><g><g><g><g transform="matrix(1,0,0,1,597.1250305175781,168.21817626953126)"><path transform="matrix(0.020399999999999998,0,0,-0.020399999999999998,0,0)" d="M418 -3L418 27L366 30C311 33 301 44 301 96L301 700L60 598L67 548L217 614L217 96C217 44 206 33 152 30L96 27L96 -3C250 0 250 0 261 0C292 0 402 -3 418 -3Z" stroke="rgb(39,40,34)" stroke-opacity="1" stroke-width="8" fill="rgb(39,40,34)" fill-opacity="1"></path></g></g></g></g><g><g><g><g transform="matrix(1,0,0,1,597.1250305175781,199.17273559570313)"><path transform="matrix(0.020399999999999998,0,0,-0.020399999999999998,0,0)" d="M16 23L16 -3C203 -3 203 0 239 0C275 0 275 -3 468 -3L468 82C353 77 307 81 122 77L304 270C401 373 431 428 431 503C431 618 353 689 226 689C154 689 105 669 56 619L39 483L68 483L81 529C97 587 133 612 200 612C286 612 341 558 341 473C341 398 299 324 186 204Z" stroke="rgb(39,40,34)" stroke-opacity="1" stroke-width="8" fill="rgb(39,40,34)" fill-opacity="1"></path></g></g></g></g><line style="fill:none;stroke-width:0.727273px;stroke:rgb(39, 40, 34);" x1="597.1250305175781" y1="177.56818461418152" x2="607.306848526001" y2="177.56818461418152"></line></g></g></g><g><g><g><g><g><g><g transform="matrix(1,0,0,1,520.7386169433594,233.69547119140626)"><path transform="matrix(0.020399999999999998,0,0,-0.020399999999999998,0,0)" d="M316 -3C388 -3 437 8 489 34C645 114 741 265 741 431C741 529 711 599 650 642C604 675 519 693 424 692L220 689L210 689C201 689 198 689 97 692L94 664L147 662C171 661 182 653 182 635C182 621 178 589 173 559L86 55C81 31 56 29 33 23L28 -3L121 0L176 0C211 0 282 -3 316 -3ZM384 655C566 655 649 579 649 415C649 225 549 41 329 41C285 41 236 46 168 56C168 68 169 75 172 93L268 650C291 650 349 655 384 655Z" stroke="rgb(39,40,34)" stroke-opacity="1" stroke-width="8" fill="rgb(39,40,34)" fill-opacity="1"></path></g></g></g></g><svg xmlns="http://www.w3.org/2000/svg" x="520.7386169433594" y="212.02273559570312" height="7" width="15.852272987365723"><defs><clipPath id="ccp0.5042514769661968"><rect x="-0.5" y="-0.5" width="16.352272987365723" height="7.5"></rect></clipPath></defs><g clip-path="url(#ccp0.5042514769661968)"><svg xmlns="http://www.w3.org/2000/svg" x="0" y="0" height="24.47727394104004" width="20.40909194946289"><defs><clipPath id="ccp0.4537435753513379"><rect x="-0.5" y="-0.5" width="20.90909194946289" height="24.97727394104004"></rect></clipPath></defs><g clip-path="url(#ccp0.4537435753513379)"><g><g transform="matrix(1,0,0,1,0,20.4)"><path transform="matrix(0.020399999999999998,0,0,-0.020399999999999998,0,0)" d="M-877 790L1877 790L1877 850L-877 850Z" stroke="rgb(39,40,34)" stroke-opacity="1" stroke-width="8" fill="rgb(39,40,34)" fill-opacity="1"></path></g></g></g></svg></g></svg></g><g><g><g><g><g transform="matrix(1,0,0,1,538.2045593261719,239.97317626953125)"><path transform="matrix(0.01428,0,0,-0.01428,0,0)" d="M34 388L41 368L73 389C110 412 113 414 120 414C130 414 138 404 138 391C138 384 134 361 130 347L64 107C56 76 51 49 51 30C51 6 62 -9 81 -9C107 -9 143 12 241 85L231 103L205 86C176 67 153 56 144 56C137 56 131 66 131 76C131 86 133 95 138 116L215 420C219 437 221 448 221 456C221 473 212 482 196 482C174 482 137 461 62 408ZM228 712C199 712 170 679 170 645C170 620 185 604 209 604C240 604 264 633 264 671C264 695 249 712 228 712ZM881 347L881 406L342 406L342 347ZM881 134L881 193L342 193L342 134ZM1363 -3L1363 27L1311 30C1256 33 1246 44 1246 96L1246 700L1005 598L1012 548L1162 614L1162 96C1162 44 1151 33 1097 30L1041 27L1041 -3C1195 0 1195 0 1206 0C1237 0 1347 -3 1363 -3Z" stroke="rgb(39,40,34)" stroke-opacity="1" stroke-width="8" fill="rgb(39,40,34)" fill-opacity="1"></path></g></g></g></g></g><g><g transform="matrix(1,0,0,1,560.0454406738281,233.69547119140626)"><path transform="matrix(0.020399999999999998,0,0,-0.020399999999999998,0,0)" d="" stroke="rgb(39,40,34)" stroke-opacity="1" stroke-width="8" fill="rgb(39,40,34)" fill-opacity="1"></path></g></g><g><g transform="matrix(1,0,0,1,571.2500305175781,233.69547119140626)"><path transform="matrix(0.020399999999999998,0,0,-0.020399999999999998,0,0)" d="M604 347L604 406L65 406L65 347ZM604 134L604 193L65 193L65 134Z" stroke="rgb(39,40,34)" stroke-opacity="1" stroke-width="8" fill="rgb(39,40,34)" fill-opacity="1"></path></g></g><g><g transform="matrix(1,0,0,1,591.0000305175781,233.69547119140626)"><path transform="matrix(0.020399999999999998,0,0,-0.020399999999999998,0,0)" d="" stroke="rgb(39,40,34)" stroke-opacity="1" stroke-width="8" fill="rgb(39,40,34)" fill-opacity="1"></path></g></g><g><g><g><g><g transform="matrix(1,0,0,1,598.1250305175781,219.21817626953126)"><path transform="matrix(0.020399999999999998,0,0,-0.020399999999999998,0,0)" d="M462 224C462 345 355 366 308 374C388 436 418 482 418 541C418 630 344 689 233 689C165 689 120 670 72 622L43 498L74 498L92 554C103 588 166 622 218 622C283 622 336 569 336 506C336 431 277 368 206 368C198 368 187 369 174 370L159 371L147 318L154 312C192 329 211 334 238 334C321 334 369 281 369 190C369 88 308 21 215 21C169 21 128 36 98 64C74 86 61 109 42 163L15 153C36 92 44 56 50 6C103 -12 147 -20 184 -20C307 -20 462 87 462 224Z" stroke="rgb(39,40,34)" stroke-opacity="1" stroke-width="8" fill="rgb(39,40,34)" fill-opacity="1"></path></g></g></g></g><g><g><g><g transform="matrix(1,0,0,1,598.1250305175781,250.17273559570313)"><path transform="matrix(0.020399999999999998,0,0,-0.020399999999999998,0,0)" d="M280 181L280 106C280 46 269 32 220 30L158 27L158 -3C291 0 291 0 315 0C339 0 339 0 472 -3L472 27L424 30C375 33 364 46 364 106L364 181C423 181 444 180 472 177L472 248L364 245L365 697L285 667L2 204L2 181ZM280 245L65 245L280 597Z" stroke="rgb(39,40,34)" stroke-opacity="1" stroke-width="8" fill="rgb(39,40,34)" fill-opacity="1"></path></g></g></g></g><line style="fill:none;stroke-width:0.727273px;stroke:rgb(39, 40, 34);" x1="598.1250305175781" y1="228.56818461418152" x2="608.306848526001" y2="228.56818461418152"></line></g></g></g></svg>
</svg>
